<svg width="3200" height="700" viewBox="0 0 3200 700" fill="none" xmlns="http://www.w3.org/2000/svg">
<g filter="url(#filter0_d)">
<path d="M807 393.515C820.774 385.548 857.365 374.394 893.541 393.515C938.76 417.417 953.573 400.968 975.013 393.515C996.454 386.062 1018.28 377.067 1064.28 393.515C1110.28 409.963 1118.08 411.762 1160.57 393.515C1203.06 375.268 1219.43 381.179 1248.28 393.515" stroke="#00E1FF" stroke-width="3"/>
<path d="M1603.02 393.423C1557.8 369.522 1542.98 385.97 1521.54 393.423C1500.1 400.877 1478.27 409.872 1432.28 393.423C1386.28 376.975 1378.48 375.176 1335.99 393.423C1293.5 411.671 1277.13 405.76 1248.28 393.423" stroke="#00E1FF" stroke-width="3"/>
</g>
<g filter="url(#filter1_d)">
<path d="M807.017 394.02C793.244 401.987 756.652 413.141 720.477 394.02C675.257 370.118 660.444 386.566 639.004 394.02C617.564 401.473 595.734 410.468 549.735 394.02C503.736 377.571 495.939 375.772 453.448 394.02C410.958 412.267 394.585 406.356 365.738 394.02" stroke="#00E1FF" stroke-width="3"/>
<path d="M11 394.111C56.2194 418.013 71.0326 401.564 92.4729 394.111C113.913 386.658 135.743 377.663 181.742 394.111C227.741 410.56 235.538 412.359 278.028 394.111C320.519 375.864 336.891 381.775 365.738 394.111" stroke="#00E1FF" stroke-width="3"/>
</g>
<g filter="url(#filter2_d)">
<path d="M2396.74 392.02C2382.96 399.987 2346.37 411.141 2310.2 392.02C2264.98 368.118 2250.16 384.566 2228.72 392.02C2207.28 399.473 2185.45 408.468 2139.45 392.02C2093.46 375.571 2085.66 373.772 2043.17 392.02C2000.68 410.267 1984.3 404.356 1955.46 392.02" stroke="#00E1FF" stroke-width="3"/>
<path d="M1600.72 392.111C1645.94 416.013 1660.75 399.564 1682.19 392.111C1703.63 384.658 1725.46 375.663 1771.46 392.111C1817.46 408.56 1825.26 410.359 1867.75 392.111C1910.24 373.864 1926.61 379.775 1955.46 392.111" stroke="#00E1FF" stroke-width="3"/>
</g>
<g filter="url(#filter3_d)">
<path d="M2392.98 394.217C2406.76 386.249 2443.35 375.095 2479.52 394.217C2524.74 418.118 2539.56 401.67 2561 394.217C2582.44 386.763 2604.27 377.768 2650.27 394.217C2696.26 410.665 2704.06 412.464 2746.55 394.217C2789.04 375.969 2805.41 381.88 2834.26 394.217" stroke="#00E1FF" stroke-width="3"/>
<path d="M3189 394.125C3143.78 370.224 3128.97 386.672 3107.53 394.125C3086.09 401.578 3064.26 410.574 3018.26 394.125C2972.26 377.677 2964.46 375.878 2921.97 394.125C2879.48 412.373 2863.11 406.461 2834.26 394.125" stroke="#00E1FF" stroke-width="3"/>
</g>
<g clip-path="url(#clip0)">
<g filter="url(#filter4_d)">
<path d="M2635.44 320.555C2633.35 318.365 2631.45 316.183 2629.31 314.25C2624.39 309.788 2619.35 305.447 2614.36 301.058C2610.4 297.572 2606.37 294.151 2602.51 290.551C2601.74 289.833 2601.06 288.246 2601.34 287.395C2601.65 286.464 2603.07 285.417 2604.11 285.298C2608.79 284.762 2613.51 284.251 2618.21 284.299C2621.41 284.332 2623.86 286.677 2626.25 288.637C2628.66 290.603 2630.7 293.102 2633.31 294.699C2640.01 298.799 2646.92 302.566 2653.78 306.393C2658.32 308.922 2662.91 311.347 2667.51 313.763C2668.36 314.212 2669.38 314.332 2670.28 314.719C2671.37 315.193 2672.36 315.911 2673.48 316.299C2674.61 316.692 2675.84 317.021 2677.02 317.015C2684.07 316.983 2691.13 316.833 2698.18 316.746C2705.06 316.662 2711.93 316.625 2718.8 316.532C2726.54 316.427 2734.28 316.268 2742.03 316.161C2749.4 316.059 2756.77 316.008 2764.14 315.908C2770.32 315.825 2776.5 315.69 2782.68 315.602C2788.99 315.513 2795.3 315.464 2801.61 315.38C2808.35 315.29 2815.09 315.215 2821.84 315.067C2826.26 314.969 2830.67 314.652 2835.09 314.624C2837.87 314.606 2840.68 314.735 2843.42 315.164C2848.15 315.905 2852.83 316.945 2857.53 317.832C2862.98 318.859 2867.61 321.723 2872.29 324.451C2876.8 327.085 2881.33 329.701 2885.8 332.425C2888.55 334.104 2891.1 336.105 2893.89 337.715C2897.36 339.72 2900.88 341.695 2904.57 343.238C2906.45 344.024 2908.73 343.86 2910.84 344.082C2913.5 344.363 2916.17 344.574 2918.83 344.861C2922.84 345.293 2926.86 345.732 2930.86 346.232C2933.55 346.57 2936.23 347.033 2938.92 347.412C2940.24 347.599 2941.32 347.889 2941.51 345.713C2941.68 343.822 2943.01 342.062 2943.57 340.168C2944.28 337.792 2944.8 335.352 2945.27 332.915C2945.53 331.548 2945.6 330.133 2945.64 328.736C2945.7 326.957 2945.17 325.539 2943.1 325.242C2942.44 325.147 2941.78 324.983 2941.15 324.75C2939.91 324.286 2939.4 322.538 2940.03 321.369C2941.4 318.83 2942.72 316.265 2944.04 313.703C2945.2 311.472 2946.37 309.25 2947.44 306.982C2947.73 306.385 2947.97 305.501 2947.73 304.969C2946.13 301.362 2944.28 297.861 2942.75 294.226C2941.98 292.411 2941.58 290.406 2941.29 288.446C2941.18 287.689 2941.69 286.729 2942.16 286.016C2945.17 281.397 2948.29 276.841 2951.3 272.219C2952.52 270.342 2953.62 268.376 2954.67 266.399C2955.24 265.348 2954.79 264.751 2953.6 264.432C2951.5 263.867 2950.73 262.44 2951.24 260.355C2952.15 256.702 2952.95 253.045 2955.1 249.805C2957.35 246.398 2960.47 244.957 2964.4 245.232C2967.32 245.437 2970.14 249.473 2969.4 252.316C2968.93 254.133 2968.99 255.739 2969.68 257.56C2970.48 259.625 2969.05 262.633 2966.8 263.152C2963.69 263.87 2962.21 267.37 2963.07 271.204C2964.16 276.131 2966.5 280.438 2970.54 283.634C2971.84 284.656 2973.01 284.916 2974.54 283.594C2977.27 281.237 2980.26 279.174 2983.18 277.05C2983.78 276.613 2984.56 276.359 2985.3 276.18C2986.82 275.809 2988.12 276.171 2988.72 277.766C2989.34 279.402 2988.1 280.039 2986.99 280.705C2984.99 281.904 2982.92 283.014 2981 284.329C2979.65 285.254 2978.49 286.459 2977.24 287.532C2974.25 290.087 2970.11 289.964 2967.31 287.171C2965.97 285.836 2964.75 284.386 2963.46 282.998C2963.3 282.819 2963.07 282.696 2962.87 282.547C2962.71 283.018 2962.4 283.49 2962.41 283.958C2962.44 285.698 2962.6 287.435 2962.64 289.175C2962.73 293.232 2962.79 297.29 2962.85 301.348C2962.91 306.229 2964.27 310.817 2965.92 315.352C2966.86 317.957 2967.89 320.551 2968.55 323.23C2968.78 324.143 2968.31 325.544 2967.67 326.291C2966.63 327.489 2966.31 328.527 2966.74 330.068C2968.25 335.45 2966.75 340.35 2964.16 345.071C2963.46 346.353 2962.98 347.769 2962.52 349.165C2962.26 349.974 2962.24 350.387 2963.6 350.448C2967.12 350.604 2970.62 351.296 2974.13 351.699C2977.81 352.121 2981.51 352.389 2985.18 352.867C2986.49 353.038 2986.62 352.302 2986.79 351.437C2987.28 348.991 2987.79 346.548 2988.22 344.091C2988.73 341.152 2989 338.16 2989.69 335.269C2990.03 333.872 2991.06 332.622 2991.85 331.357C2995.96 324.846 3000.13 318.376 3004.18 311.833C3005.24 310.128 3006.38 308.292 3006.75 306.375C3007.78 301.046 3008.45 295.646 3009.19 290.264C3009.25 289.769 3008.81 289.204 3008.6 288.671C3008.16 288.93 3007.62 289.106 3007.27 289.463C3005.05 291.742 3002.92 294.108 3000.67 296.348C2998.99 298.018 2996.86 297.47 2996.44 295.162C2996.14 293.466 2996.61 291.638 2996.38 289.916C2995.96 286.719 2995.82 283.347 2991.99 281.847C2990.51 281.267 2990.35 279.512 2991.16 278.37C2991.87 277.381 2993.1 277.165 2994.58 277.85C2998.16 279.512 3000.08 282.133 3000.41 286.025C3000.47 286.697 3000.7 287.367 3000.94 288.007C3001.06 288.33 3001.36 288.583 3001.59 288.868C3001.82 288.653 3002.06 288.448 3002.27 288.221C3003.83 286.601 3005.39 284.988 3006.92 283.345C3007.34 282.895 3007.87 282.394 3007.98 281.843C3008.35 280.01 3008.48 278.129 3008.84 276.294C3009.18 274.503 3008.09 273.663 3006.84 272.88C3005.45 272 3004.37 271.047 3004.94 269.11C3005.05 268.73 3004.46 267.912 3003.99 267.65C3003.26 267.239 3002.23 267.319 3001.57 266.853C3000.27 265.948 3001.05 263.59 3002.61 262.677C3003.47 262.178 3004.23 261.259 3004.67 260.352C3005.37 258.899 3005.83 257.317 3006.27 255.756C3006.79 253.96 3008.15 253.633 3009.72 253.526C3012.21 253.355 3016.37 255.933 3016.39 258.083C3016.41 260.571 3016.34 263.337 3015.29 265.489C3013.97 268.214 3014.29 270.457 3015.67 272.699C3016.84 274.598 3018.49 276.196 3019.77 278.035C3022.57 282.04 3022.67 286.664 3022.65 291.306C3022.64 293.696 3022.32 296.061 3023.88 298.292C3025.01 299.908 3024.15 301.73 3022.52 302.902C3021.8 303.42 3021.09 304.281 3020.88 305.113C3020.02 308.57 3019.43 312.093 3018.6 315.56C3017.38 320.666 3015.95 325.723 3014.81 330.843C3013.71 335.709 3012.92 340.641 3011.89 345.521C3011.26 348.492 3010.44 351.42 3009.69 354.365C3009.38 355.571 3009.26 356.221 3011.07 356.168C3013.42 356.1 3015.78 356.691 3018.15 356.968C3022.15 357.437 3026.17 357.862 3030.17 358.345C3032.6 358.638 3035.02 359.038 3037.46 359.331C3041.46 359.814 3045.48 360.219 3049.48 360.715C3052.11 361.041 3054.72 361.557 3057.35 361.825C3059.34 362.027 3061.16 362.285 3062.64 363.894C3063.05 364.344 3064.21 364.201 3065.02 364.183C3072.56 364.009 3080.11 363.835 3087.65 363.598C3096.67 363.313 3105.7 362.917 3114.73 362.719C3115.71 362.697 3117.13 363.422 3117.61 364.235C3118.29 365.404 3118.63 366.961 3117.32 368.253C3114.47 371.061 3111.72 373.978 3108.83 376.75C3105.7 379.761 3102.57 382.793 3099.23 385.573C3094.8 389.269 3090.28 392.886 3085.59 396.25C3080.56 399.854 3075.27 403.085 3070.15 406.555C3065.61 409.631 3061.28 413.037 3056.6 415.87C3053.14 417.963 3049.26 419.363 3045.57 421.081C3044.92 421.385 3044.27 421.696 3043.65 422.065C3036.53 426.344 3029.49 430.757 3021.49 433.388C3015.06 435.502 3008.78 438.056 3002.43 440.424C2998.46 441.907 2994.54 443.59 2990.5 444.84C2987.49 445.769 2984.26 445.961 2981.23 446.815C2977.12 447.972 2973.01 449.218 2969.07 450.847C2964.43 452.766 2959.67 452.593 2954.85 452.594C2947.04 452.597 2939.23 452.716 2931.41 452.753C2921.97 452.796 2912.52 452.784 2903.08 452.835C2894.27 452.882 2885.45 452.982 2876.64 453.054C2868.96 453.118 2861.27 453.167 2853.58 453.238C2844.77 453.319 2835.96 453.436 2827.15 453.502C2820.46 453.552 2813.77 453.538 2807.07 453.568C2799.26 453.604 2791.44 453.664 2783.63 453.701C2774.19 453.746 2764.74 453.74 2755.3 453.826C2745.99 453.911 2736.69 454.135 2727.39 454.201C2720.06 454.252 2712.74 454.12 2705.41 454.137C2700.48 454.148 2695.55 454.307 2690.61 454.343C2683.3 454.395 2675.98 454.373 2668.66 454.426C2659.91 454.49 2651.17 454.619 2642.42 454.684C2634.6 454.741 2626.78 454.742 2618.97 454.78C2611.15 454.818 2603.34 454.876 2595.52 454.914C2586.08 454.958 2576.64 454.966 2567.19 455.035C2557.95 455.102 2548.7 455.351 2539.45 455.272C2535.11 455.235 2530.71 455.998 2526.41 454.743C2526.08 454.647 2525.67 454.818 2525.3 454.844C2522.59 455.04 2521.36 453.595 2521.95 450.837C2522.22 449.593 2522.46 448.329 2522.89 447.138C2524.79 441.936 2523.16 437.693 2519.51 433.907C2516.88 431.191 2514.35 428.387 2511.78 425.626C2510.22 423.954 2509.91 421.96 2511.1 419.974C2511.76 418.866 2512.62 417.859 2513.47 416.882C2517.97 411.737 2522.48 406.605 2527.01 401.489C2532.44 395.346 2537.9 389.22 2543.36 383.096C2545.09 381.145 2546.9 379.25 2548.61 377.282C2549.74 375.994 2550.99 375.726 2552.71 375.863C2556.08 376.128 2559.47 376.047 2562.85 375.984C2571.4 375.824 2579.94 375.594 2588.48 375.394C2595.53 375.229 2602.58 374.912 2609.62 374.972C2612.99 375.001 2614.81 373.193 2616.7 370.892C2621.62 364.904 2626.68 359.021 2631.7 353.111C2633.67 350.793 2635.7 348.528 2637.64 346.191C2637.82 345.981 2637.7 345.166 2637.5 345.064C2636.53 344.575 2635.51 344.106 2634.46 343.864C2632.03 343.306 2629.59 342.733 2627.12 342.438C2621.99 341.827 2616.84 341.073 2611.69 340.959C2603.01 340.767 2594.32 341.065 2585.63 341.079C2581.43 341.086 2577.22 340.898 2573.01 340.831C2570.08 340.785 2567.67 338.523 2568.57 336.556C2569.2 335.198 2570.02 333.932 2570.73 332.615C2571.78 330.692 2572.87 328.787 2573.83 326.824C2574.94 324.57 2576.91 324.107 2579.12 324.126C2586.45 324.188 2593.79 324.272 2601.12 324.356C2609.33 324.449 2617.54 324.514 2625.75 324.667C2629.72 324.741 2633.69 325.001 2637.66 325.136C2638.11 325.151 2638.58 324.899 2639.04 324.771C2638.78 324.382 2638.56 323.957 2638.25 323.612C2637.35 322.617 2636.42 321.653 2635.44 320.555ZM2699.99 377.516C2698.98 377.47 2697.96 377.362 2696.96 377.385C2685.42 377.648 2673.88 377.889 2662.35 378.222C2650.2 378.571 2638.06 379.103 2625.92 379.391C2613.43 379.686 2600.94 379.695 2588.45 379.993C2576.87 380.27 2565.29 380.829 2553.71 381.084C2552.12 381.119 2551.13 381.593 2550.21 382.64C2544.45 389.155 2538.68 395.669 2532.93 402.197C2528.83 406.858 2524.75 411.54 2520.66 416.216C2519.95 417.03 2519.26 417.865 2518.56 418.69C2519.54 418.682 2520.53 418.679 2521.51 418.668C2529.38 418.575 2537.25 418.48 2545.12 418.386C2552.99 418.292 2560.86 418.191 2568.74 418.107C2575.11 418.039 2581.48 417.976 2587.86 417.942C2594.05 417.91 2600.25 417.949 2606.44 417.897C2613.56 417.837 2620.68 417.696 2627.8 417.619C2636.3 417.527 2644.8 417.457 2653.3 417.395C2659.43 417.351 2665.55 417.362 2671.68 417.3C2678.24 417.233 2684.79 417.075 2691.35 417.018C2699.61 416.946 2707.86 416.96 2716.12 416.893C2724.36 416.825 2732.61 416.695 2740.85 416.605C2748.79 416.518 2756.72 416.436 2764.66 416.374C2770.79 416.326 2776.92 416.341 2783.04 416.278C2790.66 416.199 2798.28 416.038 2805.9 415.968C2813.65 415.897 2821.41 415.934 2829.16 415.85C2836.15 415.775 2843.14 415.563 2850.13 415.483C2857.45 415.399 2864.77 415.423 2872.08 415.361C2881.27 415.283 2890.45 415.155 2899.63 415.069C2907.51 414.996 2915.39 414.969 2923.26 414.892C2930.2 414.825 2937.13 414.695 2944.06 414.633C2952.5 414.558 2960.94 414.544 2969.38 414.468C2976.32 414.405 2983.25 414.267 2990.18 414.206C2999.18 414.126 3008.19 414.082 3017.19 414.037C3026.51 413.99 3035.84 413.703 3045.14 414.048C3048.96 414.189 3052.08 413.333 3055.08 411.258C3057.04 409.909 3059.06 408.658 3061.04 407.348C3066.2 403.936 3071.4 400.576 3076.5 397.076C3079.53 394.995 3082.44 392.721 3085.35 390.473C3088.2 388.284 3091.03 386.077 3093.77 383.771C3097.02 381.042 3100.2 378.223 3103.36 375.395C3105.76 373.255 3108.1 371.052 3110.41 368.827C3110.58 368.664 3110.36 367.757 3110.32 367.757C3109.45 367.748 3108.58 367.857 3107.71 367.877C3102.91 367.986 3098.1 368.054 3093.3 368.18C3085.64 368.382 3077.97 368.665 3070.31 368.83C3061.88 369.012 3053.45 369.044 3045.02 369.243C3036.36 369.448 3027.71 369.824 3019.05 370.038C3008.63 370.296 2998.21 370.44 2987.79 370.675C2981.62 370.815 2975.45 371.062 2969.28 371.213C2961.67 371.4 2954.06 371.529 2946.45 371.701C2940.96 371.825 2935.48 371.989 2929.99 372.118C2922.51 372.295 2915.02 372.445 2907.54 372.626C2900.99 372.785 2894.45 372.996 2887.9 373.141C2879.73 373.322 2871.56 373.461 2863.38 373.614C2856.2 373.748 2849.03 373.838 2841.85 374.017C2836.06 374.161 2830.27 374.454 2824.48 374.603C2816.06 374.819 2807.64 374.944 2799.21 375.148C2792.11 375.32 2785.01 375.588 2777.9 375.745C2768.67 375.949 2759.43 376.045 2750.19 376.26C2739.28 376.514 2728.38 376.873 2717.47 377.133C2711.73 377.27 2705.98 377.295 2699.99 377.516ZM2807.11 448.6C2808.24 448.608 2809.37 448.626 2810.5 448.622C2819.94 448.586 2829.39 448.552 2838.83 448.507C2846.65 448.47 2854.46 448.413 2862.28 448.377C2869.53 448.342 2876.79 448.348 2884.04 448.29C2892.79 448.221 2901.54 448.08 2910.28 448.015C2917.04 447.964 2923.8 447.998 2930.55 447.968C2938.93 447.931 2947.31 447.993 2955.68 447.763C2960.34 447.636 2964.96 447.409 2969.45 445.399C2973.33 443.66 2977.67 442.907 2981.84 441.829C2985.45 440.896 2989.22 440.461 2992.7 439.202C3000.23 436.476 3007.61 433.342 3015.07 430.415C3019.32 428.748 3023.69 427.346 3027.84 425.481C3031.56 423.815 3035.07 421.688 3038.64 419.728C3038.97 419.55 3039.15 419.106 3039.39 418.786C3038.77 418.668 3038.15 418.43 3037.53 418.452C3035.05 418.539 3032.57 418.802 3030.08 418.825C3021.77 418.901 3013.45 418.872 3005.13 418.941C2998.57 418.994 2992.02 419.157 2985.46 419.226C2976.4 419.321 2967.33 419.38 2958.27 419.441C2952.14 419.483 2946.01 419.471 2939.89 419.538C2932.83 419.615 2925.78 419.792 2918.72 419.854C2910.4 419.928 2902.09 419.883 2893.77 419.965C2886.78 420.034 2879.79 420.254 2872.8 420.331C2864.36 420.423 2855.92 420.415 2847.48 420.484C2839.42 420.55 2831.36 420.672 2823.3 420.745C2813.36 420.834 2803.42 420.888 2793.48 420.978C2784.86 421.056 2776.24 421.176 2767.62 421.256C2759.74 421.328 2751.86 421.362 2743.99 421.431C2735.93 421.502 2727.87 421.6 2719.81 421.674C2712.49 421.742 2705.18 421.802 2697.87 421.849C2690.18 421.899 2682.49 421.904 2674.79 421.974C2667.11 422.045 2659.43 422.197 2651.75 422.268C2644.06 422.339 2636.37 422.331 2628.68 422.402C2620.99 422.472 2613.31 422.604 2605.63 422.696C2597.57 422.792 2589.51 422.882 2581.45 422.956C2573.57 423.029 2565.7 423.086 2557.82 423.134C2550.13 423.18 2542.44 423.216 2534.75 423.236C2529.24 423.251 2523.73 423.22 2518.23 423.257C2517.75 423.261 2517.28 423.622 2516.81 423.818C2517.12 424.135 2517.42 424.467 2517.75 424.765C2518.3 425.266 2518.94 425.682 2519.42 426.246C2521.51 428.742 2523.71 431.166 2525.57 433.828C2527.56 436.689 2529.05 439.829 2528.34 443.534C2527.98 445.458 2527.64 447.388 2527.3 449.319C2527.14 450.285 2526.83 451.42 2528.55 450.602C2528.81 450.478 2529.16 450.527 2529.47 450.522C2532.97 450.472 2536.47 450.405 2539.97 450.387C2547.72 450.345 2555.48 450.322 2563.23 450.303C2570.49 450.286 2577.75 450.326 2585.01 450.263C2594.25 450.181 2603.49 449.99 2612.73 449.904C2621.11 449.825 2629.49 449.826 2637.87 449.788C2645.69 449.753 2653.51 449.699 2661.32 449.677C2669.65 449.654 2677.97 449.704 2686.29 449.636C2694.47 449.569 2702.65 449.351 2710.83 449.279C2720.27 449.195 2729.71 449.206 2739.16 449.162C2746.97 449.125 2754.79 449.058 2762.6 449.021C2769.86 448.987 2777.11 448.993 2784.37 448.948C2791.87 448.901 2799.37 448.815 2807.11 448.6ZM2740.97 320.866C2733.93 321.03 2726.88 321.239 2719.83 321.345C2711.15 321.475 2702.46 321.512 2693.78 321.604C2684.53 321.703 2675.28 321.764 2666.04 321.999C2664.93 322.027 2663.72 322.883 2662.79 323.642C2661.9 324.365 2661.35 325.493 2660.6 326.393C2655.45 332.517 2650.31 338.646 2645.12 344.738C2637.35 353.855 2629.54 362.935 2621.78 372.057C2621.11 372.845 2620.68 373.834 2620.14 374.729C2621.11 374.669 2622.08 374.579 2623.05 374.555C2628.79 374.411 2634.53 374.309 2640.27 374.144C2648.36 373.91 2656.46 373.58 2664.56 373.391C2672.98 373.194 2681.42 373.169 2689.84 372.969C2698.5 372.764 2707.16 372.394 2715.82 372.18C2726.24 371.922 2736.66 371.778 2747.08 371.537C2754.74 371.359 2762.4 371.069 2770.07 370.891C2781.05 370.637 2792.03 370.46 2803.01 370.212C2809.12 370.073 2815.22 369.814 2821.33 369.686C2828.82 369.528 2836.31 369.501 2843.81 369.324C2851.9 369.133 2860 368.785 2868.1 368.596C2876.53 368.398 2884.96 368.362 2893.38 368.156C2901.48 367.958 2909.57 367.553 2917.67 367.383C2928.16 367.164 2938.65 367.168 2949.14 366.925C2958.23 366.714 2967.32 366.226 2976.41 365.98C2987.45 365.681 2998.49 365.481 3009.54 365.288C3016.03 365.174 3022.53 365.158 3029.03 365.098C3032.22 365.069 3035.41 365.058 3038.59 364.989C3038.9 364.983 3039.2 364.622 3039.5 364.425C3039.3 364.234 3039.12 363.9 3038.91 363.873C3037.07 363.647 3035.23 363.462 3033.38 363.294C3029.14 362.907 3024.88 362.579 3020.64 362.143C3018.14 361.885 3015.66 361.422 3013.16 361.129C3009.35 360.681 3005.53 360.335 3001.72 359.878C2999.09 359.563 2996.48 359.083 2993.85 358.767C2990.05 358.309 2986.22 357.968 2982.41 357.511C2979.78 357.196 2977.17 356.719 2974.55 356.403C2970.74 355.946 2966.91 355.601 2963.1 355.144C2960.47 354.828 2957.87 354.347 2955.24 354.042C2951.62 353.623 2947.99 353.343 2944.38 352.92C2941.75 352.613 2939.14 352.123 2936.51 351.797C2932.5 351.301 2928.49 350.859 2924.48 350.427C2921.82 350.14 2919.08 350.191 2916.5 349.569C2914.22 349.018 2912.02 349.859 2909.93 349.55C2904.98 348.821 2900.22 347.191 2895.93 344.508C2892.4 342.307 2889.03 339.856 2885.46 337.744C2880.94 335.075 2876.27 332.665 2871.7 330.093C2867.84 327.925 2864.26 324.935 2860.14 323.635C2851.81 321.009 2843.28 319.185 2834.31 319.765C2824.91 320.372 2815.45 320.112 2806.02 320.221C2796.71 320.329 2787.4 320.431 2778.09 320.524C2771.53 320.589 2764.97 320.617 2758.4 320.694C2752.72 320.761 2747.04 320.873 2740.97 320.866ZM2604.15 329.168C2604.03 329.237 2603.92 329.368 2603.8 329.366C2596.6 329.263 2589.39 329.123 2582.18 329.055C2580.51 329.039 2578.66 328.753 2577.51 330.465C2576.58 331.857 2575.72 333.304 2574.9 334.764C2574.71 335.093 2574.68 335.636 2574.82 335.969C2574.9 336.152 2575.51 336.141 2575.88 336.146C2576.25 336.151 2576.62 336.025 2576.99 336.027C2588.75 336.074 2600.51 336.159 2612.27 336.175C2618.6 336.183 2624.84 336.803 2630.98 338.398C2633.9 339.155 2636.85 339.771 2639.73 340.645C2641.31 341.124 2642.25 340.649 2643.24 339.489C2645.69 336.604 2648.24 333.803 2650.75 330.962C2650.99 330.685 2651.18 330.36 2651.39 330.057C2650.98 329.885 2650.57 329.574 2650.15 329.567C2648.66 329.542 2647.16 329.664 2645.67 329.65C2638.53 329.581 2631.39 329.473 2624.25 329.404C2617.68 329.341 2611.11 329.311 2604.15 329.168ZM2618.23 297.885C2620.53 299.879 2622.77 301.944 2625.13 303.854C2631.45 308.952 2636.63 315.18 2642.31 320.909C2644.11 322.725 2645.97 324.655 2648.73 325.014C2650.16 325.201 2651.64 325.346 2653.08 325.255C2654.04 325.194 2655.26 324.958 2655.86 324.322C2657.72 322.341 2659.09 319.837 2661.13 318.098C2663.06 316.445 2661.46 316.115 2660.59 315.619C2658.25 314.282 2655.78 313.172 2653.43 311.846C2648.61 309.117 2643.82 306.318 2639.03 303.525C2634.08 300.639 2629.11 297.794 2624.23 294.784C2622.88 293.95 2621.43 292.788 2620.8 291.419C2620.01 289.711 2618.78 289.077 2617.28 288.995C2614.8 288.86 2612.3 289.035 2609.81 289.164C2609.35 289.188 2608.91 289.618 2608.46 289.86C2608.79 290.141 2609.1 290.466 2609.46 290.694C2610.2 291.157 2611.08 291.452 2611.71 292.022C2613.8 293.894 2615.8 295.858 2618.23 297.885ZM3005.35 340.282C3005.29 339.979 3005.13 339.653 3005.18 339.375C3006.03 335.365 3006.92 331.365 3007.76 327.354C3007.89 326.749 3007.84 326.099 3007.8 325.476C3007.79 325.397 3007.16 325.216 3007.07 325.31C3005.94 326.621 3004.85 327.966 3003.76 329.314C3001.34 332.298 2998.65 335.111 2996.63 338.342C2995.41 340.3 2995.2 342.904 2994.58 345.231C2993.95 347.625 2993.3 350.02 2992.82 352.448C2992.73 352.937 2993.31 353.995 2993.73 354.076C2995.93 354.508 2998.17 354.796 3000.41 354.963C3001.46 355.041 3002.28 354.663 3002.55 353.279C3003.35 349.057 3004.34 344.872 3005.35 340.282ZM2953.1 328.804C2952.94 330.015 2952.91 331.267 2952.58 332.431C2951.14 337.476 2950.62 342.804 2948 347.494C2947.46 348.466 2948.25 348.598 2948.92 348.679C2950.88 348.918 2952.85 349.265 2954.82 349.268C2955.54 349.269 2956.54 348.592 2956.94 347.935C2958.59 345.216 2960.19 342.449 2961.53 339.57C2962.22 338.081 2962.72 336.424 2961.35 334.731C2959.55 332.505 2958.06 330.028 2956.39 327.692C2956.08 327.254 2955.6 326.848 2955.11 326.64C2953.86 326.111 2953.03 326.922 2953.1 328.804ZM2954.53 285.217C2954.7 284.502 2954.97 283.794 2955.03 283.07C2955.07 282.633 2954.89 282.029 2954.58 281.767C2954.38 281.588 2953.67 281.733 2953.36 281.969C2951.3 283.581 2949.26 285.216 2947.28 286.935C2946.67 287.467 2945.75 288.505 2945.93 288.934C2947.4 292.634 2949.08 296.253 2950.74 299.876C2950.83 300.064 2951.55 300.179 2951.56 300.151C2952.01 299.086 2952.61 298.032 2952.79 296.911C2953.42 293.156 2953.89 289.377 2954.53 285.217Z" fill="#95E71F"/>
</g>
<g filter="url(#filter5_d)">
<path d="M2808.42 216.25C2807.6 215.708 2806.41 215.183 2806.28 214.463C2805.26 208.979 2801.54 205.282 2798.13 201.287C2793.23 195.549 2787.05 191.75 2780.2 189C2776.32 187.445 2772.29 186.21 2768.24 185.194C2766.29 184.703 2764.12 184.95 2762.06 185.048C2760.41 185.126 2759.17 184.452 2758.96 182.986C2758.77 181.623 2759.81 180.551 2761.32 180.488C2763.94 180.379 2766.6 180.094 2769.17 180.451C2772.27 180.883 2775.41 181.6 2778.32 182.741C2783.86 184.917 2789.12 187.678 2794.04 191.127C2798.1 193.975 2801.39 197.536 2804.55 201.258C2805.76 202.694 2806.68 204.386 2807.73 205.96C2807.91 206.221 2808.09 206.476 2808.27 206.733C2808.51 206.528 2808.86 206.373 2808.98 206.111C2811.09 201.463 2814.6 197.848 2818.22 194.487C2822.8 190.242 2827.63 186.198 2832.75 182.644C2835.73 180.573 2839.5 179.632 2842.91 178.179C2845.27 177.176 2847.62 176.16 2849.97 175.162C2851.46 174.534 2852.54 175.191 2853 176.52C2853.41 177.691 2853.05 178.833 2851.72 179.417C2847.43 181.31 2843.24 183.464 2838.84 185.047C2834.63 186.561 2831.17 189.109 2828.01 192.024C2823.88 195.829 2819.86 199.812 2816.23 204.082C2814.08 206.602 2812.72 209.805 2811.09 212.746C2810.74 213.39 2810.92 214.369 2810.5 214.934C2810.07 215.514 2809.21 215.776 2808.42 216.25Z" fill="#00E1FF"/>
</g>
<g filter="url(#filter6_d)">
<path d="M2749.97 242.599C2754.24 240.49 2758.36 238.414 2762.54 236.453C2763.28 236.105 2764.35 235.954 2765.08 236.223C2765.83 236.496 2766.74 237.347 2766.83 238.044C2766.92 238.703 2766.21 239.819 2765.55 240.168C2761.12 242.513 2756.46 244.463 2752.15 247.012C2746.88 250.133 2743.39 255.002 2740.63 260.398C2740.29 261.075 2740.15 261.926 2739.65 262.437C2739.11 262.991 2738.16 263.663 2737.57 263.524C2736.68 263.316 2735.52 262.608 2735.22 261.829C2732.75 255.26 2727.49 251.725 2721.42 249.277C2717.18 247.566 2712.7 246.459 2708.32 245.084C2707.88 244.945 2707.25 244.958 2707.03 244.661C2706.42 243.821 2705.38 242.673 2705.59 241.98C2706.02 240.609 2707.4 239.814 2708.98 240.292C2713.5 241.655 2718.04 242.992 2722.5 244.53C2727.61 246.294 2731.99 249.269 2735.7 253.214C2737.87 255.518 2737.81 255.498 2739.68 252.696C2742.37 248.658 2745.69 245.237 2749.97 242.599Z" fill="#00E1FF"/>
</g>
<g filter="url(#filter7_d)">
<path d="M2900.48 262.717C2900.28 264.912 2898.84 265.372 2897.21 265.627C2892.69 266.337 2887.91 265.842 2883.69 268.004C2879.98 269.902 2876.3 271.916 2872.83 274.207C2870.43 275.793 2867.22 275.356 2866.55 272.607C2865.47 268.152 2863.27 264.301 2860.89 260.504C2859.27 257.928 2856.89 256.23 2854.25 254.802C2852.99 254.116 2851.73 253.179 2852.35 251.465C2852.94 249.857 2854.3 249.954 2855.75 250.205C2859.87 250.92 2862.39 253.776 2864.67 256.883C2866.6 259.522 2868.37 262.287 2870.21 264.997C2870.25 265.052 2870.28 265.11 2870.31 265.169C2870.93 266.391 2871.55 267.613 2872.17 268.835C2873.43 268.098 2874.77 267.459 2875.94 266.607C2881.7 262.432 2888.4 261.548 2895.2 260.974C2895.69 260.932 2896.22 260.978 2896.68 260.834C2898.48 260.272 2899.77 260.775 2900.48 262.717Z" fill="#00E1FF"/>
</g>
<g filter="url(#filter8_d)">
<path d="M2959.89 395.805C2957.64 398.973 2954.49 398.959 2951.31 398.586C2950.02 398.435 2948.57 398.178 2947.54 397.47C2945.19 395.855 2944.6 394.302 2945.48 392.087C2946.94 388.431 2948.75 385.059 2953.04 384.15C2956.24 383.472 2960.68 385.875 2961.49 388.895C2962.13 391.281 2961.8 393.684 2959.89 395.805Z" fill="#F053C2"/>
</g>
<g filter="url(#filter9_d)">
<path d="M2822.37 396.573C2822.22 394.84 2821.92 393.206 2822.1 391.624C2822.53 387.773 2828.31 384.571 2831.44 385.878C2832.82 386.453 2834.42 386.595 2835.68 387.338C2839.7 389.719 2838.37 395.504 2834.87 397.727C2832.85 399.008 2830.18 399.353 2827.74 399.856C2825.15 400.394 2823.49 398.956 2822.37 396.573Z" fill="#F053C2"/>
</g>
<g filter="url(#filter10_d)">
<path d="M2912.97 384.943C2914.85 385.226 2916.77 385.25 2918.34 386.011C2921.08 387.348 2922.62 390.913 2921.95 393.353C2921.33 395.613 2917.85 398.546 2915.36 398.679C2912.17 398.85 2909.14 397.901 2907.01 395.591C2903.89 392.209 2905.91 387.001 2910.68 385.514C2911.39 385.294 2912.13 385.179 2912.97 384.943Z" fill="#F053C2"/>
</g>
<g filter="url(#filter11_d)">
<path d="M2871.36 385.155C2872.89 385.782 2874.37 386.159 2875.54 386.978C2878.4 388.976 2879.14 392.352 2877.35 395.755C2875.99 398.348 2873.78 399.742 2870.22 398.959C2869.02 398.696 2867.79 398.499 2866.66 398.045C2862.45 396.344 2861.73 391.246 2865.09 388.04C2866.84 386.374 2868.62 385.016 2871.36 385.155Z" fill="#F053C2"/>
</g>
<g filter="url(#filter12_d)">
<path d="M2781.41 397.883C2779.17 396.507 2779.37 394.593 2779.94 392.613C2781.07 388.742 2784.13 386.062 2787.19 385.573C2789.88 385.143 2793.11 386.948 2794.16 389.294C2795.12 391.454 2794.42 395.06 2792.33 396.807C2788.99 399.606 2785.34 399.815 2781.41 397.883Z" fill="#F053C2"/>
</g>
<g filter="url(#filter13_d)">
<path d="M2770.97 328.098C2780.43 328.179 2789.78 328.47 2799.12 328.453C2810.48 328.431 2821.83 328.053 2833.19 328.03C2837.74 328.02 2842.28 328.686 2846.83 328.788C2852.66 328.919 2856.82 332.811 2861.68 335.105C2866.71 337.482 2871.54 340.27 2876.44 342.928C2877 343.233 2877.39 343.855 2877.86 344.329C2877.26 344.513 2876.63 344.917 2876.07 344.847C2869.81 344.074 2863.57 344.682 2857.32 344.956C2852.38 345.173 2847.41 344.739 2842.45 344.742C2834.71 344.746 2826.97 344.929 2819.22 344.935C2813.21 344.939 2807.19 344.616 2801.18 344.756C2794.91 344.902 2788.64 345.401 2782.38 345.797C2777.24 346.121 2772.1 346.838 2766.98 346.727C2765.03 346.684 2763.08 344.883 2761.2 343.762C2757.36 341.47 2753.54 339.138 2749.78 336.723C2748.95 336.192 2748.39 335.246 2747.7 334.491C2748.68 333.766 2749.57 332.86 2750.65 332.352C2752.83 331.324 2755.11 330.501 2757.36 329.615C2761.73 327.898 2766.31 328.202 2770.97 328.098Z" fill="#F053C2"/>
</g>
<g filter="url(#filter14_d)">
<path d="M2660.35 359.155C2658.58 359.349 2657.56 358.43 2657.55 356.945C2657.54 355.338 2658.65 354.47 2660.34 354.484C2665.41 354.527 2670.48 354.56 2675.56 354.581C2681.5 354.605 2687.45 354.58 2693.39 354.635C2701.11 354.705 2708.82 354.864 2716.53 354.925C2723.04 354.977 2729.54 354.945 2736.05 354.948C2737.24 354.949 2738.43 354.913 2739.62 354.942C2741.21 354.981 2742.85 356.287 2742.68 357.558C2742.45 359.217 2741.09 359.864 2739.62 359.882C2735.11 359.935 2730.6 359.843 2726.09 359.83C2718.96 359.809 2711.82 359.873 2704.69 359.78C2695.09 359.656 2685.49 359.362 2675.88 359.25C2671.27 359.196 2666.65 359.405 2662.03 359.456C2661.51 359.462 2660.99 359.213 2660.35 359.155Z" fill="#F053C2"/>
</g>
<g filter="url(#filter15_d)">
<path d="M2669.92 345.809C2673.88 345.87 2677.72 346.096 2681.55 346.12C2689.18 346.17 2696.81 346.096 2704.44 346.096C2711.58 346.097 2718.71 346.125 2725.85 346.148C2727.1 346.152 2728.42 345.965 2729.6 346.272C2731 346.636 2732.24 347.757 2731.72 349.297C2731.45 350.085 2730.05 350.946 2729.14 350.979C2724.7 351.142 2720.25 351.034 2715.81 351.023C2707.61 351.002 2699.41 351.018 2691.21 350.952C2683.5 350.89 2675.79 350.742 2668.08 350.63C2666.89 350.613 2665.58 350.875 2664.54 350.468C2663.72 350.148 2662.8 349.055 2662.69 348.202C2662.53 347.072 2663.3 345.978 2664.74 345.935C2666.43 345.886 2668.11 345.897 2669.92 345.809Z" fill="#F053C2"/>
</g>
<g filter="url(#filter16_d)">
<path d="M2714.32 341.943C2706.65 341.673 2699.18 341.463 2691.7 341.227C2684.09 340.987 2676.49 340.768 2668.89 340.426C2667.43 340.361 2666.47 338.952 2666.71 337.746C2666.88 336.891 2668.31 335.672 2669.18 335.67C2674.34 335.656 2679.5 335.967 2684.65 336.138C2690.56 336.332 2696.46 336.497 2702.37 336.67C2708.9 336.86 2715.44 336.975 2721.96 337.327C2722.7 337.366 2723.85 338.659 2723.96 339.482C2724.15 340.984 2723.14 342.058 2721.47 342.07C2719.15 342.088 2716.84 342.022 2714.32 341.943Z" fill="#F053C2"/>
</g>
</g>
<defs>
<filter id="filter0_d" x="796.249" y="368.904" width="817.469" height="49.1309" filterUnits="userSpaceOnUse" color-interpolation-filters="sRGB">
<feFlood flood-opacity="0" result="BackgroundImageFix"/>
<feColorMatrix in="SourceAlpha" type="matrix" values="0 0 0 0 0 0 0 0 0 0 0 0 0 0 0 0 0 0 127 0"/>
<feOffset/>
<feGaussianBlur stdDeviation="5"/>
<feColorMatrix type="matrix" values="0 0 0 0 1 0 0 0 0 1 0 0 0 0 1 0 0 0 0.8 0"/>
<feBlend mode="normal" in2="BackgroundImageFix" result="effect1_dropShadow"/>
<feBlend mode="normal" in="SourceGraphic" in2="effect1_dropShadow" result="shape"/>
</filter>
<filter id="filter1_d" x="0.299072" y="369.5" width="817.469" height="49.1309" filterUnits="userSpaceOnUse" color-interpolation-filters="sRGB">
<feFlood flood-opacity="0" result="BackgroundImageFix"/>
<feColorMatrix in="SourceAlpha" type="matrix" values="0 0 0 0 0 0 0 0 0 0 0 0 0 0 0 0 0 0 127 0"/>
<feOffset/>
<feGaussianBlur stdDeviation="5"/>
<feColorMatrix type="matrix" values="0 0 0 0 1 0 0 0 0 1 0 0 0 0 1 0 0 0 0.8 0"/>
<feBlend mode="normal" in2="BackgroundImageFix" result="effect1_dropShadow"/>
<feBlend mode="normal" in="SourceGraphic" in2="effect1_dropShadow" result="shape"/>
</filter>
<filter id="filter2_d" x="1590.02" y="367.5" width="817.469" height="49.1309" filterUnits="userSpaceOnUse" color-interpolation-filters="sRGB">
<feFlood flood-opacity="0" result="BackgroundImageFix"/>
<feColorMatrix in="SourceAlpha" type="matrix" values="0 0 0 0 0 0 0 0 0 0 0 0 0 0 0 0 0 0 127 0"/>
<feOffset/>
<feGaussianBlur stdDeviation="5"/>
<feColorMatrix type="matrix" values="0 0 0 0 1 0 0 0 0 1 0 0 0 0 1 0 0 0 0.8 0"/>
<feBlend mode="normal" in2="BackgroundImageFix" result="effect1_dropShadow"/>
<feBlend mode="normal" in="SourceGraphic" in2="effect1_dropShadow" result="shape"/>
</filter>
<filter id="filter3_d" x="2382.23" y="369.605" width="817.469" height="49.1309" filterUnits="userSpaceOnUse" color-interpolation-filters="sRGB">
<feFlood flood-opacity="0" result="BackgroundImageFix"/>
<feColorMatrix in="SourceAlpha" type="matrix" values="0 0 0 0 0 0 0 0 0 0 0 0 0 0 0 0 0 0 127 0"/>
<feOffset/>
<feGaussianBlur stdDeviation="5"/>
<feColorMatrix type="matrix" values="0 0 0 0 1 0 0 0 0 1 0 0 0 0 1 0 0 0 0.8 0"/>
<feBlend mode="normal" in2="BackgroundImageFix" result="effect1_dropShadow"/>
<feBlend mode="normal" in="SourceGraphic" in2="effect1_dropShadow" result="shape"/>
</filter>
<filter id="filter4_d" x="2493.4" y="135.256" width="655.139" height="464.815" filterUnits="userSpaceOnUse" color-interpolation-filters="sRGB">
<feFlood flood-opacity="0" result="BackgroundImageFix"/>
<feColorMatrix in="SourceAlpha" type="matrix" values="0 0 0 0 0 0 0 0 0 0 0 0 0 0 0 0 0 0 127 0"/>
<feOffset/>
<feGaussianBlur stdDeviation="5"/>
<feColorMatrix type="matrix" values="0 0 0 0 1 0 0 0 0 1 0 0 0 0 1 0 0 0 0.75 0"/>
<feBlend mode="normal" in2="BackgroundImageFix" result="effect1_dropShadow"/>
<feBlend mode="normal" in="SourceGraphic" in2="effect1_dropShadow" result="shape"/>
</filter>
<filter id="filter5_d" x="2748.94" y="164.922" width="114.22" height="61.3283" filterUnits="userSpaceOnUse" color-interpolation-filters="sRGB">
<feFlood flood-opacity="0" result="BackgroundImageFix"/>
<feColorMatrix in="SourceAlpha" type="matrix" values="0 0 0 0 0 0 0 0 0 0 0 0 0 0 0 0 0 0 127 0"/>
<feOffset/>
<feGaussianBlur stdDeviation="5"/>
<feColorMatrix type="matrix" values="0 0 0 0 1 0 0 0 0 1 0 0 0 0 1 0 0 0 0.75 0"/>
<feBlend mode="normal" in2="BackgroundImageFix" result="effect1_dropShadow"/>
<feBlend mode="normal" in="SourceGraphic" in2="effect1_dropShadow" result="shape"/>
</filter>
<filter id="filter6_d" x="2695.57" y="226.085" width="81.2748" height="47.4569" filterUnits="userSpaceOnUse" color-interpolation-filters="sRGB">
<feFlood flood-opacity="0" result="BackgroundImageFix"/>
<feColorMatrix in="SourceAlpha" type="matrix" values="0 0 0 0 0 0 0 0 0 0 0 0 0 0 0 0 0 0 127 0"/>
<feOffset/>
<feGaussianBlur stdDeviation="5"/>
<feColorMatrix type="matrix" values="0 0 0 0 1 0 0 0 0 1 0 0 0 0 1 0 0 0 0.75 0"/>
<feBlend mode="normal" in2="BackgroundImageFix" result="effect1_dropShadow"/>
<feBlend mode="normal" in="SourceGraphic" in2="effect1_dropShadow" result="shape"/>
</filter>
<filter id="filter7_d" x="2842.19" y="240.062" width="68.2948" height="45.0607" filterUnits="userSpaceOnUse" color-interpolation-filters="sRGB">
<feFlood flood-opacity="0" result="BackgroundImageFix"/>
<feColorMatrix in="SourceAlpha" type="matrix" values="0 0 0 0 0 0 0 0 0 0 0 0 0 0 0 0 0 0 127 0"/>
<feOffset/>
<feGaussianBlur stdDeviation="5"/>
<feColorMatrix type="matrix" values="0 0 0 0 1 0 0 0 0 1 0 0 0 0 1 0 0 0 0.75 0"/>
<feBlend mode="normal" in2="BackgroundImageFix" result="effect1_dropShadow"/>
<feBlend mode="normal" in="SourceGraphic" in2="effect1_dropShadow" result="shape"/>
</filter>
<filter id="filter8_d" x="2935.09" y="374.034" width="36.6911" height="34.7201" filterUnits="userSpaceOnUse" color-interpolation-filters="sRGB">
<feFlood flood-opacity="0" result="BackgroundImageFix"/>
<feColorMatrix in="SourceAlpha" type="matrix" values="0 0 0 0 0 0 0 0 0 0 0 0 0 0 0 0 0 0 127 0"/>
<feOffset/>
<feGaussianBlur stdDeviation="5"/>
<feColorMatrix type="matrix" values="0 0 0 0 1 0 0 0 0 1 0 0 0 0 1 0 0 0 0.75 0"/>
<feBlend mode="normal" in2="BackgroundImageFix" result="effect1_dropShadow"/>
<feBlend mode="normal" in="SourceGraphic" in2="effect1_dropShadow" result="shape"/>
</filter>
<filter id="filter9_d" x="2810.33" y="373.964" width="39.0074" height="38.3939" filterUnits="userSpaceOnUse" color-interpolation-filters="sRGB">
<feFlood flood-opacity="0" result="BackgroundImageFix"/>
<feColorMatrix in="SourceAlpha" type="matrix" values="0 0 0 0 0 0 0 0 0 0 0 0 0 0 0 0 0 0 127 0"/>
<feOffset/>
<feGaussianBlur stdDeviation="5"/>
<feColorMatrix type="matrix" values="0 0 0 0 1 0 0 0 0 1 0 0 0 0 1 0 0 0 0.75 0"/>
<feBlend mode="normal" in2="BackgroundImageFix" result="effect1_dropShadow"/>
<feBlend mode="normal" in="SourceGraphic" in2="effect1_dropShadow" result="shape"/>
</filter>
<filter id="filter10_d" x="2895.51" y="374.943" width="36.5921" height="33.7558" filterUnits="userSpaceOnUse" color-interpolation-filters="sRGB">
<feFlood flood-opacity="0" result="BackgroundImageFix"/>
<feColorMatrix in="SourceAlpha" type="matrix" values="0 0 0 0 0 0 0 0 0 0 0 0 0 0 0 0 0 0 127 0"/>
<feOffset/>
<feGaussianBlur stdDeviation="5"/>
<feColorMatrix type="matrix" values="0 0 0 0 1 0 0 0 0 1 0 0 0 0 1 0 0 0 0.75 0"/>
<feBlend mode="normal" in2="BackgroundImageFix" result="effect1_dropShadow"/>
<feBlend mode="normal" in="SourceGraphic" in2="effect1_dropShadow" result="shape"/>
</filter>
<filter id="filter11_d" x="2852.98" y="375.146" width="35.3447" height="34.0306" filterUnits="userSpaceOnUse" color-interpolation-filters="sRGB">
<feFlood flood-opacity="0" result="BackgroundImageFix"/>
<feColorMatrix in="SourceAlpha" type="matrix" values="0 0 0 0 0 0 0 0 0 0 0 0 0 0 0 0 0 0 127 0"/>
<feOffset/>
<feGaussianBlur stdDeviation="5"/>
<feColorMatrix type="matrix" values="0 0 0 0 1 0 0 0 0 1 0 0 0 0 1 0 0 0 0.75 0"/>
<feBlend mode="normal" in2="BackgroundImageFix" result="effect1_dropShadow"/>
<feBlend mode="normal" in="SourceGraphic" in2="effect1_dropShadow" result="shape"/>
</filter>
<filter id="filter12_d" x="2768.7" y="373.845" width="37.1751" height="37.1276" filterUnits="userSpaceOnUse" color-interpolation-filters="sRGB">
<feFlood flood-opacity="0" result="BackgroundImageFix"/>
<feColorMatrix in="SourceAlpha" type="matrix" values="0 0 0 0 0 0 0 0 0 0 0 0 0 0 0 0 0 0 127 0"/>
<feOffset/>
<feGaussianBlur stdDeviation="5"/>
<feColorMatrix type="matrix" values="0 0 0 0 1 0 0 0 0 1 0 0 0 0 1 0 0 0 0.75 0"/>
<feBlend mode="normal" in2="BackgroundImageFix" result="effect1_dropShadow"/>
<feBlend mode="normal" in="SourceGraphic" in2="effect1_dropShadow" result="shape"/>
</filter>
<filter id="filter13_d" x="2735.93" y="295.359" width="153.838" height="87.5312" filterUnits="userSpaceOnUse" color-interpolation-filters="sRGB">
<feFlood flood-opacity="0" result="BackgroundImageFix"/>
<feColorMatrix in="SourceAlpha" type="matrix" values="0 0 0 0 0 0 0 0 0 0 0 0 0 0 0 0 0 0 127 0"/>
<feOffset/>
<feGaussianBlur stdDeviation="5"/>
<feColorMatrix type="matrix" values="0 0 0 0 1 0 0 0 0 1 0 0 0 0 1 0 0 0 0.75 0"/>
<feBlend mode="normal" in2="BackgroundImageFix" result="effect1_dropShadow"/>
<feBlend mode="normal" in="SourceGraphic" in2="effect1_dropShadow" result="shape"/>
</filter>
<filter id="filter14_d" x="2647.55" y="344.484" width="105.141" height="25.4138" filterUnits="userSpaceOnUse" color-interpolation-filters="sRGB">
<feFlood flood-opacity="0" result="BackgroundImageFix"/>
<feColorMatrix in="SourceAlpha" type="matrix" values="0 0 0 0 0 0 0 0 0 0 0 0 0 0 0 0 0 0 127 0"/>
<feOffset/>
<feGaussianBlur stdDeviation="5"/>
<feColorMatrix type="matrix" values="0 0 0 0 1 0 0 0 0 1 0 0 0 0 1 0 0 0 0.75 0"/>
<feBlend mode="normal" in2="BackgroundImageFix" result="effect1_dropShadow"/>
<feBlend mode="normal" in="SourceGraphic" in2="effect1_dropShadow" result="shape"/>
</filter>
<filter id="filter15_d" x="2652.11" y="320.527" width="90.2064" height="55.7799" filterUnits="userSpaceOnUse" color-interpolation-filters="sRGB">
<feFlood flood-opacity="0" result="BackgroundImageFix"/>
<feColorMatrix in="SourceAlpha" type="matrix" values="0 0 0 0 0 0 0 0 0 0 0 0 0 0 0 0 0 0 127 0"/>
<feOffset/>
<feGaussianBlur stdDeviation="5"/>
<feColorMatrix type="matrix" values="0 0 0 0 1 0 0 0 0 1 0 0 0 0 1 0 0 0 0.75 0"/>
<feBlend mode="normal" in2="BackgroundImageFix" result="effect1_dropShadow"/>
<feBlend mode="normal" in="SourceGraphic" in2="effect1_dropShadow" result="shape"/>
</filter>
<filter id="filter16_d" x="2656.19" y="314.273" width="78.3387" height="49.2096" filterUnits="userSpaceOnUse" color-interpolation-filters="sRGB">
<feFlood flood-opacity="0" result="BackgroundImageFix"/>
<feColorMatrix in="SourceAlpha" type="matrix" values="0 0 0 0 0 0 0 0 0 0 0 0 0 0 0 0 0 0 127 0"/>
<feOffset/>
<feGaussianBlur stdDeviation="5"/>
<feColorMatrix type="matrix" values="0 0 0 0 1 0 0 0 0 1 0 0 0 0 1 0 0 0 0.75 0"/>
<feBlend mode="normal" in2="BackgroundImageFix" result="effect1_dropShadow"/>
<feBlend mode="normal" in="SourceGraphic" in2="effect1_dropShadow" result="shape"/>
</filter>
<clipPath id="clip0">
<rect width="576" height="576" fill="white" transform="translate(2616.44) rotate(14.1125)"/>
</clipPath>
</defs>
</svg>
