<svg width="1363" height="729" viewBox="0 0 1363 729" fill="none" xmlns="http://www.w3.org/2000/svg">
<g filter="url(#filter0_d)">
<path fill-rule="evenodd" clip-rule="evenodd" d="M866.334 417.715C896.158 380.551 914 333.359 914 282C914 162.154 816.846 65 697 65C577.154 65 480 162.154 480 282C480 346.084 507.779 403.68 551.952 443.403C550.558 444.109 549.211 444.681 547.892 445.12C503.71 404.712 476 346.592 476 282C476 159.945 574.945 61 697 61C819.055 61 918 159.945 918 282C918 334.353 899.796 382.454 869.373 420.319C868.334 419.38 867.321 418.513 866.334 417.715Z" fill="#95E71F"/>
</g>
<g filter="url(#filter1_d)">
<path fill-rule="evenodd" clip-rule="evenodd" d="M838.212 412.865C870.338 378.467 890 332.28 890 281.5C890 175.185 803.815 89 697.5 89C591.185 89 505 175.185 505 281.5C505 340.112 531.195 392.606 572.517 427.913C571.476 428.839 570.465 429.729 569.483 430.582C527.555 394.545 501 341.123 501 281.5C501 172.976 588.976 85 697.5 85C806.024 85 894 172.976 894 281.5C894 330.581 876.005 375.46 846.253 409.898C843.343 410.259 840.699 411.349 838.212 412.865Z" fill="#F053C2"/>
</g>
<g filter="url(#filter2_d)">
<rect x="448" y="241" width="493" height="110" fill="#00E1FF"/>
</g>
<g filter="url(#filter3_d)">
<path d="M330 432.683C339.458 421.33 364.583 405.436 389.422 432.683C420.472 466.743 430.643 443.304 445.365 432.683C460.087 422.063 475.076 409.245 506.661 432.683C538.246 456.122 543.599 458.686 572.775 432.683C601.951 406.681 613.193 415.104 633 432.683" stroke="#00E1FF" stroke-width="3"/>
<path d="M936 432.553C926.542 443.906 901.417 459.8 876.578 432.553C845.528 398.493 835.357 421.932 820.635 432.553C805.913 443.174 790.924 455.992 759.339 432.553C727.754 409.114 722.401 406.55 693.225 432.553C664.049 458.555 652.807 450.132 633 432.553" stroke="#00E1FF" stroke-width="3"/>
</g>
<g filter="url(#filter4_d)">
<path d="M452 476.683C461.458 465.33 486.583 449.436 511.422 476.683C542.472 510.743 552.643 487.304 567.365 476.683C582.087 466.063 597.076 453.245 628.661 476.683C660.246 500.122 665.599 502.686 694.775 476.683C723.951 450.681 735.193 459.104 755 476.683" stroke="#00E1FF" stroke-width="3"/>
<path d="M998.578 476.553C967.528 442.493 957.357 465.932 942.635 476.553C927.913 487.174 912.924 499.992 881.339 476.553C849.754 453.114 844.401 450.55 815.225 476.553C786.05 502.555 774.807 494.132 755 476.553" stroke="#00E1FF" stroke-width="3"/>
</g>
<g clip-path="url(#clip0)">
<path d="M787.67 293.312C787.672 292.363 787.725 291.562 788.187 291.042C788.447 290.749 788.814 290.572 789.275 290.472C789.741 290.37 790.261 290.354 790.792 290.354L817.346 290.356C817.775 290.356 818.127 290.61 818.42 291.117C818.714 291.628 818.894 292.313 818.974 292.949C819.404 296.38 819.49 299.855 819.229 303.303C819.184 303.901 819.103 304.322 818.848 304.561C818.723 304.678 818.55 304.755 818.315 304.801C818.075 304.847 817.807 304.854 817.511 304.854L790.22 304.846C789.743 304.846 789.277 304.828 788.869 304.729C788.466 304.632 788.166 304.468 787.97 304.208C787.679 303.824 787.647 303.271 787.649 302.564L787.67 293.312Z" fill="#F053C2" stroke="white"/>
<path d="M864.562 315.108L864.258 315.377L864.459 315.729C864.801 316.331 865.372 316.638 865.942 316.796C866.507 316.953 867.125 316.979 867.647 316.978L912.535 316.95C913.355 316.95 913.937 317.483 914.334 318.418C914.732 319.355 914.881 320.579 914.857 321.644L914.76 326.013L914.663 330.381C914.659 330.588 914.65 330.763 914.617 330.914C914.586 331.062 914.538 331.152 914.481 331.211C914.42 331.274 914.325 331.325 914.167 331.358C914.004 331.391 913.815 331.397 913.595 331.397L835.711 331.396C835.227 331.396 834.744 331.369 834.336 331.256C833.932 331.143 833.656 330.962 833.502 330.689C833.343 330.407 833.324 330.044 833.32 329.547L833.236 318.215C833.227 317.023 833.262 315.785 833.523 314.678C833.782 313.576 834.254 312.648 835.085 312.023C854.101 297.701 872.611 282.709 890.57 267.081L891.589 266.195L890.238 266.204L856.688 266.444C853.561 266.466 850.251 266.498 847.214 267.646C845.527 268.284 843.635 269.53 843.273 271.536C843.079 272.611 843.59 273.692 844.326 274.366C845.062 275.04 846.174 275.425 847.185 274.808C848.818 273.813 850.858 273.942 852.629 274.852C854.402 275.762 855.822 277.413 856.216 279.327C857.017 283.216 854.332 287.354 850.599 289.013C846.87 290.671 842.431 290.213 838.546 288.671C837.104 288.098 835.733 287.389 834.594 286.407C831.169 283.455 830.241 278.37 830.79 273.713C832.075 262.807 840.721 253.139 851.417 250.648C855.421 249.716 859.584 249.708 863.772 249.707L911.633 249.698C913.016 249.697 914.32 249.711 915.473 250.192C916.621 250.671 917.512 251.707 917.5 252.797L917.373 264.445C917.362 265.441 916.97 266.364 916.357 267.244C915.741 268.129 914.924 268.941 914.104 269.717C897.834 285.111 881.317 300.244 864.562 315.108Z" fill="#F053C2" stroke="white"/>
<path d="M514.691 319.453L514.95 319.312L514.951 319.016L515.003 301.009C515.01 298.679 513.585 296.657 512.344 294.948L497.95 275.122C497.025 273.847 496.004 272.445 494.564 271.535C492.734 270.38 490.445 270.376 488.508 271.143C486.57 271.911 484.906 273.482 484.364 275.577C484.237 276.068 484.299 276.665 484.51 277.116C484.616 277.344 484.783 277.581 485.032 277.731C485.303 277.894 485.625 277.925 485.946 277.8C488.061 276.981 490.45 277.251 492.513 278.294C494.577 279.338 496.272 281.135 497.007 283.302C498.489 287.667 496.312 292.891 492.339 295.335C488.369 297.777 483.013 297.551 478.943 295.177C474.875 292.804 472.076 288.511 470.991 283.879C468.595 273.65 475.219 262.104 485.259 259.009C489.408 257.73 493.845 257.758 498.291 257.803L527.151 258.093C527.726 258.099 528.18 258.117 528.549 258.308C528.888 258.485 529.136 258.796 529.328 259.224C529.521 259.657 529.638 260.168 529.737 260.689C530.088 262.525 530.393 264.305 529.846 265.907C529.584 266.675 529.032 267.386 528.354 267.837C527.68 268.286 526.925 268.45 526.226 268.225C525.376 267.951 524.569 268.297 524.016 268.838C523.465 269.376 523.091 270.169 523.091 270.971C523.092 272.466 524.005 273.749 524.756 274.783C525.239 275.448 525.956 276.16 526.73 276.565C527.12 276.769 527.553 276.911 527.995 276.904C528.452 276.896 528.891 276.73 529.26 276.369C540.426 265.441 553.31 255.933 568.062 250.977C582.813 246.021 599.619 246.014 613.333 253.233C616.097 254.688 618.714 256.42 621.056 258.468C622.394 259.639 623.618 260.903 624.385 262.419C625.515 264.653 625.337 267.359 624.224 269.654C623.111 271.95 621.096 273.764 618.643 274.26C616.189 274.756 613.628 273.866 611.711 272.183C609.793 270.501 608.579 268.076 608.752 265.579C608.94 262.875 606.848 260.516 604.473 259.556C602.097 258.596 599.463 258.737 597.048 259.035C585.918 260.406 575.434 265.123 566.071 271.201C556.712 277.276 548.338 284.717 540.037 292.098C539.022 293.001 538.496 294.203 538.22 295.459C537.946 296.71 537.912 298.053 537.911 299.272L537.893 315.08C537.892 316.056 537.893 317.242 538.458 318.246C538.757 318.777 539.249 319.217 539.806 319.458C540.365 319.7 541.035 319.759 541.644 319.44C542.425 319.03 543.347 319.098 544.213 319.524C545.081 319.951 545.837 320.716 546.237 321.591C547.067 323.413 546.867 325.546 546.617 327.719C546.5 328.738 546.361 329.631 545.818 330.234C545.459 330.632 544.963 330.864 544.362 330.994C543.756 331.125 543.085 331.144 542.411 331.144L507.86 331.127C507.244 331.126 506.626 331.102 506.083 330.968C505.545 330.836 505.126 330.608 504.853 330.235C504.476 329.718 504.438 329.001 504.433 328.147L504.419 325.951L504.405 323.756C504.399 322.81 504.416 321.976 504.791 321.304C505.151 320.66 505.678 320.319 506.355 320.143C507.056 319.96 507.899 319.959 508.852 320.008C509.089 320.02 509.332 320.035 509.58 320.051C510.306 320.096 511.071 320.143 511.804 320.122C512.797 320.094 513.803 319.94 514.691 319.453Z" fill="#F053C2" stroke="white"/>
<path d="M691.314 281.351L691.441 281.917L691.982 281.708C697.228 279.682 702.697 278.071 708.233 278.274C713.767 278.478 719.389 280.737 722.59 285.144C725.606 289.295 726.037 294.301 725.864 299.673C725.815 301.199 725.719 302.721 725.623 304.257C725.548 305.446 725.473 306.644 725.418 307.858C725.295 310.609 725.283 313.367 725.654 316.04C725.922 317.97 726.545 320.255 728.375 321.436C729.712 322.299 731.303 322.276 732.708 321.743C734.111 321.211 735.383 320.154 736.141 318.847C737.619 316.3 737.606 313.217 737.568 310.456L737.446 301.557L737.324 292.658C737.307 291.446 736.991 289.984 736.368 288.895C736.056 288.349 735.647 287.861 735.124 287.564C734.584 287.258 733.956 287.174 733.276 287.391C731.635 287.916 729.999 287.063 728.936 285.535C727.873 284.007 727.505 281.961 728.298 280.355C729.117 278.695 730.658 277.578 732.487 277.014C734.319 276.45 736.406 276.453 738.248 277.007L738.866 277.193L738.891 276.548L739.241 267.661L739.59 258.775C739.609 258.284 739.638 257.811 739.737 257.382C739.836 256.957 739.996 256.609 740.255 256.347C740.777 255.82 741.627 255.711 742.619 255.658C747.115 255.417 751.623 255.396 756.122 255.595C756.952 255.632 757.636 255.71 758.081 256.109C758.35 256.349 758.512 256.689 758.604 257.119C758.697 257.555 758.708 258.042 758.705 258.542L758.646 267.847L758.587 277.152L758.583 277.765L759.184 277.646C762.934 276.905 766.82 276.271 769.977 277.965C771.497 278.781 772.608 280.448 772.96 282.168C773.312 283.885 772.89 285.522 771.536 286.419C770.59 287.046 769.47 287.192 768.22 287.128C767.596 287.096 766.953 287.012 766.296 286.917C766.154 286.897 766.012 286.876 765.868 286.855C765.353 286.778 764.83 286.701 764.319 286.646C762.958 286.499 761.384 286.714 760.127 287.321C758.866 287.931 757.84 288.988 757.821 290.535L757.55 312.61C757.539 313.511 757.551 314.517 757.749 315.458C757.947 316.404 758.34 317.325 759.121 318.016C760.107 318.887 761.359 319.09 762.573 318.943C763.783 318.797 765.004 318.299 766.017 317.702C766.415 317.468 766.794 317.229 767.167 316.993C767.754 316.623 768.327 316.261 768.938 315.941C769.907 315.432 770.865 315.093 771.875 315.106C773.55 315.127 774.927 316.221 775.738 317.801C776.551 319.383 776.745 321.366 776.114 323C774.817 326.354 771.334 328.435 767.746 329.637C759.633 332.356 750.419 331.623 742.838 327.657C741.884 327.158 740.869 327.21 739.926 327.447C739.149 327.642 738.365 327.979 737.658 328.282C737.518 328.343 737.381 328.401 737.248 328.457C733.399 330.08 729.252 330.286 724.952 330.165C723.745 330.13 722.523 330.07 721.293 330.009C718.172 329.854 715 329.697 711.909 329.962C711.273 330.016 710.646 330.085 710.025 330.154C708.959 330.272 707.908 330.388 706.849 330.425C705.198 330.481 703.63 330.333 702.189 329.696C700.807 329.085 699.706 327.685 699.28 326.202C698.854 324.721 699.129 323.305 700.269 322.503C701.959 321.314 702.872 319.538 703.37 317.616C703.867 315.699 703.963 313.591 703.985 311.679L704.113 300.395C704.134 298.56 704.013 296.459 703.437 294.639C702.859 292.815 701.798 291.206 699.898 290.496C698.36 289.921 696.741 290.203 695.364 290.952C693.989 291.701 692.816 292.934 692.134 294.345C690.799 297.111 690.912 300.302 691.036 303.203L691.49 313.791C691.545 315.074 691.69 316.537 692.14 317.814C692.565 319.023 693.284 320.118 694.505 320.7C695.085 322.656 695.596 324.571 695.266 326.435C695.1 327.374 694.637 328.302 693.983 328.989C693.33 329.674 692.513 330.096 691.629 330.097L679.32 330.122L667.012 330.146C665.485 330.15 664.023 329.38 662.99 328.197C661.957 327.014 661.393 325.461 661.602 323.949C661.812 322.436 662.777 321.095 664.093 320.237C665.408 319.379 667.025 319.036 668.493 319.455L669.049 319.613L669.126 319.039C669.504 316.191 669.418 313.282 668.871 310.461L668.624 309.184L667.952 310.298C662.546 319.267 654.413 326.905 644.452 329.89C634.488 332.875 622.684 330.479 615.95 322.656L615.657 322.316L615.287 322.571C611.12 325.446 606.94 328.308 602.192 329.737C597.451 331.165 592.021 330.935 588.146 328.039C587.994 327.926 587.836 327.804 587.674 327.679C587.076 327.22 586.408 326.707 585.727 326.342C584.846 325.87 583.831 325.58 582.773 325.989C576.071 328.583 569.134 331.124 562.186 330.151C558.743 329.668 555.329 327.986 552.846 325.56C550.365 323.136 548.844 320.004 549.093 316.612C549.53 310.669 554.958 306.232 560.594 303.614C565.623 301.278 571.051 299.803 576.57 299.271C578.852 299.052 580.582 297.349 581.394 295.341C582.206 293.334 582.153 290.894 580.713 289.119C579.278 287.352 576.948 286.752 574.804 287.07C572.66 287.387 570.589 288.638 569.679 290.716C567.959 294.651 564.046 297.696 559.833 297.7C557.744 297.701 555.661 296.821 554.101 295.403C552.542 293.987 551.54 292.065 551.548 290.008C551.557 287.56 552.786 285.467 554.658 283.739C556.533 282.008 559.02 280.677 561.446 279.775C570.352 276.464 580.217 275.774 589.498 277.815C592.396 278.452 595.242 279.375 597.476 281.178C602.426 285.173 603.276 292.438 602.895 299.047C602.833 300.114 602.751 301.2 602.668 302.295C602.497 304.554 602.323 306.85 602.321 309.101C602.319 312.461 602.695 315.796 604.046 318.927L604.174 319.224L604.497 319.229C605.9 319.254 607.076 318.515 607.9 317.489C608.722 316.464 609.229 315.116 609.302 313.807C609.373 312.528 609.152 311.288 608.851 310.094C608.705 309.516 608.538 308.941 608.374 308.377L608.357 308.319C608.187 307.733 608.021 307.158 607.878 306.582C605.321 296.249 611.018 284.767 620.285 279.408C629.55 274.05 641.566 274.46 651.188 279.271C655.522 281.438 659.558 284.693 660.892 289.187C661.642 291.714 661.265 294.544 660.043 296.904C658.821 299.263 656.78 301.108 654.245 301.723C651.733 302.334 649.01 301.439 647.027 299.709C645.044 297.98 643.878 295.488 644.355 292.974C644.67 291.315 643.997 289.727 642.884 288.573C641.772 287.422 640.176 286.652 638.536 286.646C635.314 286.635 632.514 288.947 631.053 291.676C629.594 294.403 629.216 297.539 628.979 300.508C628.708 303.888 628.823 307.705 629.807 311.018C630.792 314.336 632.671 317.207 635.964 318.564C639.027 319.826 642.186 319.293 645.102 317.922C648.015 316.554 650.735 314.33 652.979 312.116C657.677 307.483 662.004 302.474 665.905 297.153C667.267 295.294 668.634 293.316 669.423 291.065C670.17 288.935 670.354 286.716 670.4 284.516C670.416 283.75 670.416 282.994 670.416 282.243C670.415 280.806 670.415 279.392 670.529 277.977C671.35 267.776 678.468 258.647 687.631 253.944C696.793 249.242 707.688 248.593 717.852 250.591C721.286 251.266 724.687 252.27 727.3 254.425C729.913 256.58 731.531 260.099 730.652 263.239C729.824 266.197 726.852 268.336 723.718 268.659C720.586 268.982 717.398 267.707 714.908 265.665C714.262 265.135 713.661 264.561 713.045 263.973C712.803 263.742 712.559 263.51 712.309 263.276C711.435 262.46 710.507 261.658 709.431 261.036C704.345 258.09 697.451 260.371 694 264.975C690.544 269.584 690.071 275.835 691.314 281.351ZM581.917 308.834C581.92 308.451 581.779 308.127 581.539 307.882C581.311 307.648 581.014 307.505 580.721 307.42C580.141 307.253 579.448 307.276 578.897 307.412C576.796 307.929 574.618 308.829 573.123 310.542C571.629 312.252 570.972 314.946 572.173 317.018C572.321 317.273 572.547 317.414 572.746 317.494C572.941 317.572 573.145 317.606 573.298 317.627C575.473 317.929 577.701 317.838 579.844 317.36C580.291 317.261 580.929 317.1 581.357 316.61C581.866 316.028 581.872 315.218 581.876 314.692V314.691L581.896 311.763L581.917 308.834Z" fill="#F053C2" stroke="white"/>
<g filter="url(#filter5_d)">
<path d="M567.457 203.276L567.867 206.089L568.468 203.555L572.687 188.672H575.06L579.176 203.555L579.762 206.133L580.216 203.262L583.526 188.672H586.354L581.183 210H578.619L574.225 194.458L573.888 192.832L573.551 194.458L568.995 210H566.432L561.275 188.672H564.088L567.457 203.276ZM610.544 200.142H601.301V207.7H612.038V210H598.488V188.672H611.892V190.986H601.301V197.842H610.544V200.142ZM627.366 207.7H637.474V210H624.539V188.672H627.366V207.7ZM664.403 203.232C664.14 205.488 663.305 207.231 661.898 208.462C660.502 209.683 658.642 210.293 656.317 210.293C653.798 210.293 651.776 209.39 650.253 207.583C648.739 205.776 647.982 203.359 647.982 200.332V198.281C647.982 196.299 648.334 194.556 649.037 193.052C649.75 191.548 650.756 190.396 652.055 189.595C653.354 188.784 654.857 188.379 656.566 188.379C658.832 188.379 660.648 189.014 662.016 190.283C663.383 191.543 664.179 193.291 664.403 195.527H661.576C661.332 193.828 660.8 192.598 659.979 191.836C659.169 191.074 658.031 190.693 656.566 190.693C654.77 190.693 653.358 191.357 652.333 192.686C651.317 194.014 650.81 195.903 650.81 198.354V200.42C650.81 202.734 651.293 204.575 652.26 205.942C653.227 207.31 654.579 207.993 656.317 207.993C657.88 207.993 659.076 207.642 659.906 206.938C660.746 206.226 661.303 204.99 661.576 203.232H664.403ZM693.662 200.024C693.662 202.114 693.311 203.94 692.607 205.503C691.904 207.056 690.908 208.242 689.619 209.062C688.33 209.883 686.826 210.293 685.107 210.293C683.428 210.293 681.938 209.883 680.64 209.062C679.341 208.232 678.33 207.056 677.607 205.532C676.895 203.999 676.528 202.227 676.509 200.215V198.677C676.509 196.626 676.865 194.814 677.578 193.242C678.291 191.67 679.297 190.469 680.596 189.639C681.904 188.799 683.398 188.379 685.078 188.379C686.787 188.379 688.291 188.794 689.59 189.624C690.898 190.444 691.904 191.641 692.607 193.213C693.311 194.775 693.662 196.597 693.662 198.677V200.024ZM690.864 198.647C690.864 196.118 690.356 194.18 689.341 192.832C688.325 191.475 686.904 190.796 685.078 190.796C683.301 190.796 681.899 191.475 680.874 192.832C679.858 194.18 679.336 196.055 679.307 198.457V200.024C679.307 202.476 679.819 204.404 680.845 205.811C681.88 207.207 683.301 207.905 685.107 207.905C686.924 207.905 688.33 207.246 689.326 205.928C690.322 204.6 690.835 202.7 690.864 200.229V198.647ZM710.514 188.672L717.486 206.074L724.459 188.672H728.106V210H725.294V201.694L725.558 192.729L718.556 210H716.402L709.415 192.773L709.693 201.694V210H706.881V188.672H710.514ZM754.128 200.142H744.885V207.7H755.622V210H742.072V188.672H755.476V190.986H744.885V197.842H754.128V200.142ZM798.715 190.986H791.859V210H789.062V190.986H782.221V188.672H798.715V190.986ZM826.875 200.024C826.875 202.114 826.523 203.94 825.82 205.503C825.117 207.056 824.121 208.242 822.832 209.062C821.543 209.883 820.039 210.293 818.32 210.293C816.641 210.293 815.151 209.883 813.853 209.062C812.554 208.232 811.543 207.056 810.82 205.532C810.107 203.999 809.741 202.227 809.722 200.215V198.677C809.722 196.626 810.078 194.814 810.791 193.242C811.504 191.67 812.51 190.469 813.809 189.639C815.117 188.799 816.611 188.379 818.291 188.379C820 188.379 821.504 188.794 822.803 189.624C824.111 190.444 825.117 191.641 825.82 193.213C826.523 194.775 826.875 196.597 826.875 198.677V200.024ZM824.077 198.647C824.077 196.118 823.569 194.18 822.554 192.832C821.538 191.475 820.117 190.796 818.291 190.796C816.514 190.796 815.112 191.475 814.087 192.832C813.071 194.18 812.549 196.055 812.52 198.457V200.024C812.52 202.476 813.032 204.404 814.058 205.811C815.093 207.207 816.514 207.905 818.32 207.905C820.137 207.905 821.543 207.246 822.539 205.928C823.535 204.6 824.048 202.7 824.077 200.229V198.647Z" fill="#95E71F"/>
</g>
</g>
<g filter="url(#filter6_d)">
<line x1="692.5" y1="30" x2="692.5" y2="-170" stroke="#F053C2" stroke-width="3"/>
</g>
<g filter="url(#filter7_d)">
<line x1="791.612" y1="50.4321" x2="856.358" y2="-107.836" stroke="#F053C2" stroke-width="3"/>
</g>
<g filter="url(#filter8_d)">
<line x1="917.134" y1="158.775" x2="1019.19" y2="86.604" stroke="#F053C2" stroke-width="3"/>
</g>
<g filter="url(#filter9_d)">
<line x1="948.569" y1="218.563" x2="1140.13" y2="161.094" stroke="#F053C2" stroke-width="3"/>
</g>
<g filter="url(#filter10_d)">
<line x1="960" y1="296.5" x2="1085" y2="296.5" stroke="#F053C2" stroke-width="3"/>
</g>
<g filter="url(#filter11_d)">
<line x1="936.29" y1="371.528" x2="1068.29" y2="397.528" stroke="#F053C2" stroke-width="3"/>
</g>
<g filter="url(#filter12_d)">
<line x1="864.901" y1="97.9786" x2="1001.09" y2="-48.4886" stroke="#F053C2" stroke-width="3"/>
</g>
<g filter="url(#filter13_d)">
<line x1="791.612" y1="50.4321" x2="838.941" y2="-65.2613" stroke="#F053C2" stroke-width="3"/>
</g>
<g filter="url(#filter14_d)">
<line y1="-1.5" x2="200" y2="-1.5" transform="matrix(-4.37114e-08 -1 -1 4.37114e-08 694 30)" stroke="#F053C2" stroke-width="3"/>
</g>
<g filter="url(#filter15_d)">
<line y1="-1.5" x2="171" y2="-1.5" transform="matrix(-0.378633 -0.925547 -0.925547 0.378633 595 51)" stroke="#F053C2" stroke-width="3"/>
</g>
<g filter="url(#filter16_d)">
<line y1="-1.5" x2="125" y2="-1.5" transform="matrix(-0.816483 -0.57737 -0.57737 0.816483 470 160)" stroke="#F053C2" stroke-width="3"/>
</g>
<g filter="url(#filter17_d)">
<line y1="-1.5" x2="200" y2="-1.5" transform="matrix(-0.957826 -0.287348 -0.287348 0.957826 439 220)" stroke="#F053C2" stroke-width="3"/>
</g>
<g filter="url(#filter18_d)">
<line y1="-1.5" x2="125" y2="-1.5" transform="matrix(-1 0 0 1 428 298)" stroke="#F053C2" stroke-width="3"/>
</g>
<g filter="url(#filter19_d)">
<line y1="-1.5" x2="200" y2="-1.5" transform="matrix(-0.980225 0.197886 0.197886 0.980225 452 373)" stroke="#F053C2" stroke-width="3"/>
</g>
<g filter="url(#filter20_d)">
<line y1="-1.5" x2="200" y2="-1.5" transform="matrix(-0.680944 -0.732336 -0.732336 0.680944 522 99)" stroke="#F053C2" stroke-width="3"/>
</g>
<g filter="url(#filter21_d)">
<line y1="-1.5" x2="125" y2="-1.5" transform="matrix(-0.378633 -0.925547 -0.925547 0.378633 595 51)" stroke="#F053C2" stroke-width="3"/>
</g>
<g clip-path="url(#clip1)" filter="url(#filter22_d)">
<path d="M1179.4 550.512C1177.85 553.562 1176.43 556.505 1174.9 559.385C1172.64 563.621 1168.86 565.127 1164.27 565.294C1160.49 565.43 1156.71 565.796 1152.93 566.047C1149.16 566.298 1145.38 566.5 1141.61 566.782C1138.17 567.039 1134.75 567.408 1131.31 567.666C1127.47 567.954 1123.61 568.133 1119.77 568.432C1116.26 568.704 1112.76 569.119 1109.25 569.387C1105.48 569.674 1101.7 569.857 1097.93 570.097C1095.01 570.282 1092.05 570.256 1089.18 570.751C1086.89 571.146 1086.13 569.554 1085.38 568.288C1081.66 561.984 1078.17 555.537 1074.49 549.208C1069.1 539.939 1063.56 530.756 1058.18 521.483C1054.01 514.306 1050.08 506.992 1045.85 499.854C1044.34 497.308 1044.52 494.829 1045.64 492.542C1049.01 485.677 1052.7 478.969 1056.18 472.159C1060.15 464.411 1063.99 456.602 1067.95 448.85C1070.37 444.107 1072.91 439.429 1075.37 434.705C1076.91 431.743 1078.43 428.768 1079.89 425.767C1081.33 422.817 1084.4 422.522 1086.9 422.097C1091.07 421.388 1095.39 421.573 1099.65 421.375C1104.83 421.136 1110.02 420.93 1115.2 420.634C1119.27 420.402 1123.33 420.017 1127.4 419.769C1132.8 419.441 1138.21 419.201 1143.61 418.881C1146.68 418.699 1149.75 418.435 1152.81 418.206C1157.95 417.823 1163.09 417.279 1168.23 417.179C1169.33 417.157 1170.86 418.51 1171.52 419.626C1178.12 430.774 1184.61 441.99 1191.08 453.218C1195.36 460.649 1199.54 468.14 1203.8 475.585C1205.87 479.212 1208.15 482.731 1210.1 486.419C1211.6 489.243 1209.91 491.715 1208.66 494.156C1205.4 500.494 1202.17 506.843 1198.88 513.166C1196.36 518.024 1193.73 522.829 1191.22 527.692C1188.69 532.591 1186.26 537.543 1183.74 542.448C1182.37 545.116 1180.91 547.736 1179.4 550.512ZM1200.56 499.2C1201.58 497.192 1202.39 495.037 1203.67 493.209C1205.62 490.418 1205.4 488.111 1203.63 485.199C1199.22 477.923 1195.26 470.375 1191.02 462.993C1185.4 453.205 1179.69 443.467 1173.99 433.72C1172.48 431.138 1170.88 428.607 1169.34 426.047C1168.85 425.239 1168.39 424.411 1167.92 423.592C1167.36 424.348 1166.8 425.1 1166.25 425.86C1166.07 426.103 1165.91 426.358 1165.76 426.622C1163.41 430.933 1161.03 435.23 1158.71 439.563C1155.51 445.55 1152.38 451.576 1149.18 457.563C1146.87 461.896 1144.45 466.175 1142.14 470.51C1139.02 476.368 1136.13 482.357 1132.81 488.103C1129.98 493.014 1131.16 492.934 1133.25 496.586C1133.57 497.128 1133.93 497.641 1134.25 498.176C1137.03 502.758 1139.76 507.367 1142.59 511.917C1145.31 516.283 1148.14 520.577 1150.89 524.923C1154.27 530.271 1157.65 535.619 1160.96 541.008C1162.57 543.621 1163.97 546.357 1165.56 548.981C1166.89 551.177 1168.31 553.327 1169.81 555.407C1170.07 555.76 1171.38 555.903 1171.48 555.728C1172.41 554.103 1173.16 552.373 1174.01 550.699C1177.13 544.543 1180.25 538.383 1183.42 532.253C1185.94 527.39 1188.57 522.586 1191.09 517.722C1194.23 511.656 1197.29 505.555 1200.56 499.2ZM1153.08 440.096C1154.16 438.028 1155.2 435.944 1156.31 433.895C1158.1 430.604 1159.92 427.334 1161.73 424.061C1161.98 423.609 1162.3 423.193 1162.59 422.76C1161.98 422.649 1161.36 422.403 1160.77 422.448C1157.33 422.71 1153.91 423.121 1150.47 423.33C1145.29 423.645 1140.1 423.784 1134.92 424.094C1130.7 424.346 1126.49 424.794 1122.28 425.056C1116.95 425.388 1111.62 425.619 1106.29 425.891C1102.95 426.062 1099.61 426.178 1096.27 426.409C1092.69 426.657 1089.11 426.964 1085.55 427.365C1084.94 427.434 1084.22 427.988 1083.87 428.526C1083.02 429.804 1082.34 431.19 1081.65 432.562C1078.82 438.195 1076.04 443.856 1073.18 449.473C1070.84 454.085 1068.37 458.633 1066 463.237C1062.96 469.179 1059.98 475.156 1056.94 481.102C1055.19 484.541 1053.32 487.925 1051.62 491.391C1051.2 492.254 1050.57 493.589 1052.72 493.418C1054.75 493.257 1056.81 493.423 1058.85 493.386C1065.07 493.272 1071.29 493.091 1077.51 493.008C1084.42 492.916 1091.33 492.914 1098.24 492.852C1105.44 492.788 1112.64 492.755 1119.83 492.595C1122.68 492.532 1125.5 492.735 1127.05 489.153C1129.13 484.348 1131.81 479.801 1134.29 475.174C1136.68 470.713 1139.18 466.314 1141.56 461.849C1145.38 454.705 1149.13 447.528 1153.08 440.096ZM1099.18 565.193C1099.74 565.222 1100.3 565.318 1100.85 565.267C1104.51 564.929 1108.16 564.496 1111.82 564.215C1116.59 563.849 1121.37 563.642 1126.14 563.278C1130.73 562.928 1135.3 562.415 1139.88 562.065C1144.65 561.701 1149.43 561.481 1154.2 561.132C1157.86 560.864 1161.5 560.501 1165.15 560.157C1165.56 560.118 1166.23 560.007 1166.29 559.79C1166.4 559.404 1166.25 558.844 1166.02 558.473C1161.59 551.319 1157.13 544.188 1152.69 537.037C1149.18 531.361 1145.72 525.651 1142.18 519.984C1139.46 515.619 1136.66 511.304 1133.92 506.956C1132.21 504.251 1130.62 501.469 1128.8 498.843C1128.27 498.075 1127.14 497.266 1126.27 497.257C1121.05 497.204 1115.81 497.404 1110.58 497.467C1104.94 497.536 1099.3 497.516 1093.66 497.592C1088.35 497.664 1083.05 497.832 1077.74 497.919C1072.02 498.013 1066.31 498.044 1060.59 498.141C1058.03 498.185 1055.48 498.268 1052.93 498.444C1051.74 498.526 1050.9 499.034 1051.74 500.465C1053.72 503.831 1055.65 507.224 1057.62 510.59C1064.32 522.006 1071.07 533.392 1077.72 544.836C1081.4 551.171 1084.86 557.63 1088.57 563.948C1089.11 564.876 1090.44 565.87 1091.43 565.905C1093.86 565.991 1096.3 565.532 1099.18 565.193Z" fill="#95E71F"/>
<path d="M1260.64 610.231C1253.13 604.911 1245.65 599.833 1238.21 594.701C1235.62 592.913 1233.22 590.829 1230.56 589.175C1227.4 587.22 1226.58 584.337 1226.83 581.012C1227.84 567.248 1228.98 553.493 1229.97 539.727C1230.34 534.517 1230.4 529.317 1231.4 524.123C1231.96 521.226 1233.97 520.689 1235.75 519.768C1248.2 513.317 1260.68 506.913 1273.26 500.719C1276.83 498.962 1280.22 496.539 1284.42 496.318C1285.3 496.271 1286.35 496.265 1287.08 496.671C1291.61 499.174 1296.06 501.813 1300.55 504.383C1308.62 509.001 1316.68 513.628 1324.78 518.199C1329.12 520.651 1333.54 522.964 1337.89 525.397C1340.04 526.597 1340.37 528.665 1340.32 530.905C1339.9 549.006 1339.52 567.107 1339.11 585.208C1339.02 589.125 1336.92 591.601 1333.64 593.627C1321 601.455 1308.47 609.457 1295.9 617.405C1292.44 619.596 1289.01 621.833 1285.55 624.036C1283.07 625.618 1281.86 625.397 1278.69 622.987C1276.24 621.129 1273.78 619.283 1271.25 617.535C1267.76 615.122 1264.21 612.807 1260.64 610.231ZM1330.56 588.276C1328.45 587.063 1326.31 585.89 1324.22 584.63C1318.79 581.351 1313.38 578.043 1307.97 574.731C1301.28 570.634 1294.53 566.638 1287.96 562.36C1285.32 560.647 1283.35 560.513 1280.55 562.207C1275.47 565.282 1270.01 567.74 1264.73 570.501C1257.42 574.329 1250.12 578.189 1242.82 582.059C1240.66 583.203 1238.56 584.45 1236.41 585.605C1235.11 586.3 1235.24 586.824 1236.41 587.565C1237.83 588.469 1239.14 589.547 1240.52 590.512C1246.58 594.737 1252.63 598.966 1258.72 603.159C1263.84 606.693 1269 610.175 1274.14 613.689C1276.22 615.107 1278.58 616.263 1280.25 618.063C1281.99 619.94 1283.48 619.404 1285.02 618.44C1293.63 613.073 1302.18 607.6 1310.77 602.205C1317.36 598.065 1324 593.998 1330.59 589.842C1330.86 589.673 1330.76 588.925 1330.56 588.276ZM1288.7 557.252C1292.46 559.508 1296.23 561.754 1299.99 564.024C1304.9 566.992 1309.8 569.972 1314.7 572.96C1320.57 576.534 1326.42 580.123 1332.28 583.697C1332.74 583.981 1333.26 584.191 1333.75 584.435C1333.94 583.765 1334.29 583.097 1334.3 582.423C1334.44 575.682 1334.49 568.938 1334.63 562.197C1334.84 551.959 1335.15 541.723 1335.28 531.485C1335.29 530.596 1334.49 529.42 1333.71 528.855C1332.12 527.693 1330.28 526.863 1328.55 525.883C1322.72 522.572 1316.88 519.274 1311.06 515.936C1304.2 512 1297.32 508.085 1290.54 504.027C1288.89 503.04 1288.4 504.034 1288.35 505.094C1287.96 513.346 1287.7 521.604 1287.39 529.86C1287.11 537.555 1286.88 545.252 1286.47 552.941C1286.37 554.825 1286.62 556.243 1288.7 557.252ZM1233.56 555.552C1232.93 563.892 1232.3 572.231 1231.7 580.573C1231.66 581.068 1231.87 581.58 1231.97 582.085C1232.51 581.941 1233.1 581.892 1233.58 581.629C1234.18 581.298 1234.63 580.693 1235.23 580.377C1240.82 577.458 1246.42 574.576 1252.02 571.683C1260.67 567.216 1269.27 562.657 1277.99 558.338C1280.36 557.166 1281.91 555.921 1281.54 553.098C1281.48 552.627 1281.64 552.131 1281.66 551.645C1281.94 544.653 1282.22 537.661 1282.49 530.669C1282.84 521.788 1283.19 512.907 1283.51 504.025C1283.53 503.377 1283.5 502.424 1283.12 502.149C1282.72 501.868 1281.78 502.085 1281.21 502.367C1273.25 506.347 1265.31 510.392 1257.36 514.385C1250.58 517.785 1243.77 521.109 1237.02 524.564C1236.43 524.866 1235.95 525.868 1235.87 526.592C1235.45 530.609 1235.18 534.641 1234.85 538.667C1234.39 544.149 1233.92 549.63 1233.56 555.552Z" fill="#95E71F"/>
<path d="M1164.64 483.822C1165.79 482.91 1166.76 481.925 1167.93 481.39C1173.1 479.029 1179.41 484.744 1178 489.735C1177.54 491.376 1176.1 493.007 1174.67 494.051C1172.24 495.825 1167.29 495.363 1165.57 493.621C1162.83 490.831 1162.47 487.449 1164.64 483.822Z" fill="#95E71F"/>
<path d="M1134.23 433.821C1136.09 436.169 1136.39 439.324 1135.35 441.344C1133.17 445.54 1130.51 445.812 1128.24 445.465C1125.08 444.98 1122.39 442.57 1122.1 439.795C1121.79 436.799 1122.8 434.105 1125.49 432.511C1127.71 431.197 1130.12 430.905 1132.39 432.649C1132.92 433.057 1133.52 433.376 1134.23 433.821Z" fill="#95E71F"/>
<path d="M1100.28 451.385C1103.79 450.099 1106.72 450.698 1108.67 453.899C1110.04 456.137 1110.44 458.587 1109.23 461.092C1107.99 463.672 1105.72 464.969 1103.07 464.876C1100.58 464.788 1098.67 463.356 1097.62 460.799C1096.07 457.053 1096.73 454.209 1100.28 451.385Z" fill="#95E71F"/>
<path d="M1080.99 471.433C1083.76 475.537 1083.37 479.543 1079.82 481.835C1077.57 483.287 1074.98 483.654 1072.46 482.244C1070.97 481.409 1069.5 477.69 1069.81 475.694C1070.24 472.852 1072.19 470.671 1074.56 469.957C1076.99 469.228 1078.99 469.843 1080.99 471.433Z" fill="#95E71F"/>
<path d="M1132.53 539.329C1134.53 539.071 1136.51 538.595 1138.36 538.9C1141.83 539.472 1143.64 542.107 1143.56 545.781C1143.53 547.458 1143.88 549.314 1143.28 550.774C1141.86 554.269 1139.22 555.128 1135.09 553.968C1130.15 552.582 1127.25 548.131 1128.89 543.821C1129.52 542.158 1131.23 540.904 1132.53 539.329Z" fill="#95E71F"/>
<path d="M1081.56 523.291C1077.69 524.773 1071.05 521.032 1071.33 515.757C1071.42 514.061 1072.71 512.008 1074.08 510.897C1076.33 509.069 1080.99 509.959 1083.24 512.091C1085.28 514.038 1085.91 517.957 1084.35 520.558C1083.73 521.593 1082.56 522.3 1081.56 523.291Z" fill="#95E71F"/>
<path d="M1095.22 560.423C1091.51 558.85 1090.23 554.312 1091.21 551.446C1092.09 548.88 1094.69 547.003 1097.51 547.162C1100.11 547.308 1102.32 549.139 1102.82 551.697C1103.1 553.108 1103.54 554.627 1103.28 555.978C1102.57 559.675 1099.66 561.678 1095.22 560.423Z" fill="#95E71F"/>
<path d="M1100.93 527.254C1102.75 524.53 1104.41 524.004 1107.67 525.419C1111.35 527.012 1114.04 530.15 1112.94 533.942C1112.07 536.934 1107.45 538.933 1104.75 537.397C1101.04 535.289 1099.13 534.265 1100.93 527.254Z" fill="#95E71F"/>
<path d="M1123.72 513.005C1123.15 514.366 1122.76 515.753 1121.87 516.599C1119.46 518.869 1117.46 519.122 1114.78 516.94C1111.47 514.24 1110.22 511.728 1112.91 507.757C1114.27 505.764 1116.41 505.539 1118.52 505.795C1120.91 506.085 1123 507.044 1123.45 509.803C1123.61 510.783 1123.6 511.79 1123.72 513.005Z" fill="#95E71F"/>
<path d="M1255.72 592.969C1253.55 591.18 1251.74 589.09 1252.65 586.384C1253.52 583.786 1255.48 581.796 1258.58 581.577C1260.72 581.425 1262.58 582.078 1263.9 583.751C1265.29 585.521 1265.39 587.427 1263.91 589.281C1263.14 590.244 1262.48 591.304 1261.65 592.21C1259.66 594.381 1258.34 594.54 1255.72 592.969Z" fill="#95E71F"/>
<path d="M1278.15 591.508C1276.85 585.759 1281.25 581.57 1286.67 583.123C1289.03 583.799 1290.37 586.668 1289.39 588.944C1288.09 591.959 1284.49 594.389 1281.32 593.936C1280.19 593.777 1279.23 592.497 1278.15 591.508Z" fill="#95E71F"/>
<path d="M1313.54 588.635C1314.35 592.232 1313.19 593.798 1309.28 594.676C1305.69 595.481 1303.76 594.361 1303 591.084C1302.52 589.039 1302.46 587.157 1304.28 585.621C1306.48 583.757 1309.77 583.937 1311.68 586.14C1312.31 586.873 1312.89 587.655 1313.54 588.635Z" fill="#95E71F"/>
<path d="M1304.32 552.238C1300.24 553.272 1296.9 551.18 1295.92 547.35C1295.2 544.508 1296.42 543.445 1299.57 541.441C1300.97 540.545 1303.59 541.53 1304.86 543.351C1306.97 546.38 1307.47 549.269 1304.32 552.238Z" fill="#95E71F"/>
<path d="M1326.04 537.308C1325.85 540.553 1322.03 541.535 1319.64 541.032C1317.15 540.507 1315.98 538.525 1316.47 536.034C1317.21 532.251 1319 530.762 1322.23 531.231C1324.56 531.568 1326.41 534.453 1326.04 537.308Z" fill="#95E71F"/>
<path d="M1244.2 553.044C1246.76 551.984 1248.78 552.832 1250.21 554.819C1251.64 556.817 1251.08 558.939 1249.8 560.84C1249.21 561.715 1248.46 562.503 1247.68 563.22C1246.39 564.409 1243.33 564.82 1242.21 564.048C1240.91 563.147 1240.07 559.66 1241.02 557.677C1241.8 556.056 1243.07 554.669 1244.2 553.044Z" fill="#95E71F"/>
<path d="M1270.62 525.62C1269.62 526.267 1268.75 526.857 1267.8 527.273C1266.35 527.908 1264.19 526.791 1263.7 525.099C1262.85 522.188 1263.48 519.462 1265.44 517.233C1267.4 515 1270.15 515.031 1272.03 517.012C1274.26 519.369 1274.18 522.393 1271.81 524.54C1271.45 524.867 1271.07 525.171 1270.62 525.62Z" fill="#95E71F"/>
<path d="M1266.3 541.377C1267.99 539.655 1269.67 539.482 1271.39 541.02C1274.3 543.623 1274.49 544.678 1273.53 546.738C1272.45 549.031 1271.56 551.218 1268.58 551.65C1265.79 552.054 1263.26 549.739 1264.03 547.053C1264.57 545.152 1265.48 543.355 1266.3 541.377Z" fill="#95E71F"/>
<path d="M1248.6 527.911C1251.08 530.689 1251.01 534.904 1248.51 536.698C1246.98 537.8 1243.37 537.29 1242.06 535.815C1240.35 533.895 1240.95 530.852 1242.2 529.444C1244.35 527.013 1246.09 526.61 1248.6 527.911Z" fill="#95E71F"/>
</g>
<g clip-path="url(#clip2)">
<g filter="url(#filter23_d)">
<path d="M72.6022 526.219C70.6817 525.004 68.8907 523.763 66.9809 522.745C62.5723 520.395 58.1065 518.152 53.6631 515.867C50.1335 514.053 46.5714 512.297 43.0988 510.379C42.4069 509.997 41.6145 508.965 41.6653 508.294C41.7208 507.558 42.5649 506.534 43.2996 506.257C46.6156 505.008 49.9644 503.77 53.4012 502.943C55.7364 502.381 57.953 503.642 60.0578 504.632C62.1691 505.625 64.1175 507.072 66.3129 507.758C71.9491 509.519 77.6744 511 83.3804 512.532C87.1502 513.544 90.9437 514.47 94.7377 515.389C95.4427 515.56 96.2094 515.46 96.9322 515.578C97.815 515.724 98.673 516.064 99.5575 516.143C100.453 516.222 101.407 516.237 102.268 516.017C107.406 514.7 112.522 513.297 117.65 511.941C122.646 510.619 127.65 509.333 132.643 508.005C138.268 506.51 143.881 504.975 149.505 503.478C154.861 502.053 160.226 500.665 165.582 499.241C170.072 498.047 174.552 496.816 179.041 495.62C183.624 494.398 188.215 493.206 192.8 491.988C197.699 490.687 202.602 489.396 207.49 488.052C210.695 487.17 213.857 486.13 217.073 485.299C219.096 484.777 221.17 484.356 223.246 484.166C226.828 483.84 230.431 483.74 234.023 483.524C238.184 483.274 242.078 484.515 245.99 485.646C249.767 486.738 253.549 487.816 257.303 488.984C259.615 489.703 261.846 490.694 264.172 491.357C267.069 492.182 270 492.977 272.97 493.426C274.484 493.655 276.119 493.116 277.694 492.892C279.687 492.609 281.673 492.273 283.667 491.994C286.671 491.574 289.676 491.159 292.686 490.79C294.713 490.542 296.75 490.388 298.781 490.172C299.779 490.066 300.615 490.081 300.356 488.459C300.13 487.05 300.779 485.522 300.844 484.038C300.925 482.176 300.854 480.303 300.75 478.44C300.692 477.395 300.48 476.351 300.256 475.325C299.97 474.017 299.323 473.081 297.763 473.243C297.265 473.294 296.752 473.297 296.254 473.241C295.263 473.131 294.573 471.95 294.818 470.981C295.35 468.88 295.84 466.768 296.336 464.658C296.767 462.82 297.215 460.985 297.582 459.134C297.679 458.648 297.692 457.959 297.422 457.615C295.592 455.279 293.604 453.065 291.82 450.696C290.93 449.513 290.27 448.124 289.7 446.749C289.48 446.218 289.678 445.423 289.887 444.818C291.239 440.898 292.674 437.006 294.021 433.084C294.568 431.492 295.007 429.858 295.414 428.223C295.631 427.353 295.195 427.001 294.27 426.985C292.635 426.959 291.814 426.059 291.807 424.445C291.795 421.616 291.714 418.802 292.683 416.047C293.703 413.149 295.707 411.529 298.624 411.009C300.793 410.622 303.591 413.047 303.572 415.255C303.56 416.667 303.896 417.827 304.738 419.027C305.694 420.388 305.205 422.842 303.662 423.632C301.524 424.726 301.09 427.548 302.413 430.188C304.114 433.579 306.607 436.291 310.143 437.879C311.273 438.387 312.176 438.361 313.049 437.117C314.607 434.898 316.407 432.847 318.151 430.762C318.509 430.334 319.029 430.006 319.532 429.741C320.575 429.191 321.589 429.217 322.322 430.268C323.074 431.348 322.285 432.04 321.596 432.73C320.356 433.97 319.055 435.158 317.894 436.469C317.078 437.391 316.453 438.483 315.737 439.494C314.03 441.904 310.985 442.574 308.431 441.051C307.212 440.323 306.055 439.49 304.864 438.713C304.71 438.613 304.523 438.565 304.351 438.493C304.32 438.865 304.184 439.266 304.274 439.605C304.611 440.869 305.051 442.106 305.399 443.367C306.21 446.308 306.998 449.255 307.779 452.204C308.719 455.751 310.553 458.846 312.584 461.851C313.751 463.576 314.973 465.28 315.951 467.111C316.285 467.735 316.2 468.842 315.865 469.506C315.328 470.569 315.286 471.384 315.883 472.428C317.97 476.075 317.777 479.922 316.754 483.839C316.477 484.902 316.382 486.023 316.306 487.125C316.262 487.763 316.327 488.067 317.329 487.862C319.926 487.33 322.6 487.194 325.236 486.844C327.996 486.477 330.741 485.994 333.504 485.67C334.493 485.555 334.45 484.994 334.418 484.332C334.325 482.46 334.25 480.585 334.11 478.716C333.943 476.48 333.59 474.249 333.568 472.014C333.557 470.933 334.078 469.834 334.427 468.766C336.226 463.266 338.082 457.785 339.837 452.272C340.295 450.834 340.787 449.288 340.706 447.823C340.48 443.749 339.978 439.689 339.531 435.63C339.49 435.256 339.062 434.925 338.814 434.575C338.535 434.846 338.178 435.072 337.99 435.396C336.79 437.464 335.671 439.58 334.437 441.626C333.518 443.152 331.868 443.142 331.14 441.536C330.605 440.356 330.614 438.937 330.132 437.723C329.239 435.469 328.519 433.036 325.452 432.645C324.265 432.494 323.828 431.244 324.212 430.262C324.545 429.411 325.405 429.028 326.607 429.257C329.521 429.812 331.404 431.37 332.358 434.147C332.522 434.627 332.816 435.072 333.106 435.496C333.251 435.709 333.521 435.838 333.735 436.005C333.863 435.806 334 435.613 334.117 435.407C334.953 433.941 335.797 432.479 336.612 431C336.835 430.596 337.131 430.133 337.111 429.711C337.043 428.307 336.792 426.912 336.716 425.509C336.641 424.139 335.686 423.729 334.636 423.385C333.457 423 332.5 422.502 332.558 420.986C332.569 420.689 331.988 420.2 331.6 420.094C330.994 419.929 330.257 420.176 329.686 419.959C328.575 419.536 328.707 417.675 329.682 416.722C330.216 416.201 330.602 415.392 330.755 414.651C331 413.463 331.044 412.225 331.083 411.006C331.128 409.602 332.065 409.113 333.184 408.749C334.97 408.167 338.477 409.284 338.885 410.848C339.358 412.658 339.812 414.687 339.444 416.448C338.978 418.677 339.624 420.253 341.042 421.634C342.243 422.805 343.737 423.668 345.009 424.774C347.778 427.182 348.704 430.533 349.537 433.922C349.966 435.667 350.166 437.45 351.713 438.79C352.834 439.761 352.542 441.246 351.57 442.399C351.141 442.908 350.78 443.667 350.781 444.311C350.787 446.989 350.997 449.667 351.031 452.346C351.081 456.292 350.965 460.24 351.066 464.184C351.163 467.931 351.49 471.672 351.632 475.419C351.719 477.7 351.653 479.986 351.646 482.27C351.643 483.206 351.678 483.701 352.985 483.331C354.685 482.851 356.517 482.849 358.29 482.618C361.297 482.225 364.301 481.799 367.31 481.417C369.137 481.185 370.974 481.033 372.8 480.801C375.809 480.419 378.811 479.978 381.821 479.606C383.798 479.362 385.793 479.26 387.762 478.972C389.247 478.756 390.626 478.609 391.998 479.512C392.381 479.764 393.197 479.448 393.786 479.286C399.253 477.777 404.72 476.267 410.175 474.712C416.704 472.85 423.21 470.907 429.756 469.108C430.469 468.912 431.64 469.179 432.134 469.685C432.845 470.412 433.377 471.486 432.658 472.668C431.094 475.238 429.627 477.867 428.031 480.417C426.298 483.187 424.571 485.972 422.649 488.609C420.093 492.117 417.46 495.582 414.658 498.895C411.656 502.443 408.391 505.768 405.293 509.237C402.547 512.311 400.013 515.589 397.117 518.513C394.979 520.672 392.409 522.404 390.036 524.332C389.617 524.673 389.199 525.019 388.818 525.401C384.405 529.828 380.087 534.333 374.735 537.719C370.435 540.438 366.322 543.452 362.13 546.341C359.504 548.152 356.959 550.095 354.238 551.749C352.217 552.977 349.899 553.708 347.844 554.887C345.06 556.484 342.289 558.146 339.717 560.056C336.688 562.305 333.184 563.052 329.674 563.935C323.978 565.369 318.304 566.888 312.614 568.347C305.736 570.11 298.848 571.832 291.972 573.6C285.556 575.25 279.15 576.938 272.739 578.606C267.146 580.061 261.55 581.506 255.959 582.967C249.551 584.641 243.15 586.341 236.739 588.003C231.869 589.267 226.987 590.483 222.114 591.732C216.423 593.19 210.736 594.667 205.045 596.126C198.169 597.89 191.283 599.616 184.415 601.41C177.647 603.177 170.906 605.046 164.135 606.799C158.804 608.179 153.438 609.426 148.101 610.781C144.507 611.693 140.94 612.713 137.351 613.643C132.026 615.022 126.686 616.348 121.361 617.728C114.996 619.377 108.643 621.075 102.277 622.725C96.5887 624.2 90.8896 625.634 85.1972 627.094C79.5066 628.554 73.8199 630.029 68.1291 631.489C61.2528 633.252 54.3695 634.988 47.4978 636.77C40.7691 638.514 34.0731 640.39 27.3187 642.027C24.1458 642.796 21.0784 644.159 17.7096 644.032C17.4517 644.023 17.1891 644.222 16.9239 644.309C14.9796 644.949 13.8233 644.12 13.7462 642.002C13.7114 641.046 13.6573 640.079 13.7547 639.132C14.1801 634.993 12.2195 632.197 8.86069 630.107C6.45057 628.607 4.09018 627.028 1.70591 625.487C0.262181 624.553 -0.326035 623.156 0.176806 621.49C0.457235 620.561 0.895999 619.67 1.33951 618.801C3.6743 614.226 6.02283 609.658 8.38667 605.098C11.2245 599.623 14.078 594.157 16.9342 588.691C17.8439 586.951 18.8094 585.239 19.7005 583.489C20.2834 582.345 21.1481 581.92 22.4305 581.703C24.9308 581.28 27.3925 580.599 29.8455 579.933C36.0451 578.25 42.2306 576.517 48.4222 574.805C53.5295 573.393 58.6098 571.87 63.7569 570.623C66.2155 570.027 67.2107 568.375 68.1685 566.351C70.6609 561.083 73.2666 555.868 75.8424 550.64C76.853 548.588 77.92 546.565 78.9108 544.504C78.9999 544.319 78.764 543.746 78.5989 543.709C77.802 543.53 76.9758 543.374 76.1636 543.391C74.29 543.43 72.4039 543.459 70.5492 543.697C66.6967 544.192 62.8077 544.586 59.0308 545.447C52.6661 546.898 46.3841 548.708 40.053 550.311C36.9882 551.087 33.8877 551.721 30.809 552.443C28.663 552.946 26.4891 551.74 26.7881 550.14C26.9945 549.035 27.3609 547.962 27.6417 546.871C28.0519 545.276 28.4954 543.689 28.8404 542.08C29.2365 540.234 30.5843 539.536 32.1992 539.145C37.5566 537.846 42.9179 536.563 48.2791 535.28C54.283 533.843 60.2821 532.385 66.2961 530.991C69.2031 530.318 72.1415 529.781 75.0591 529.152C75.3953 529.079 75.689 528.81 76.0024 528.632C75.7402 528.396 75.5007 528.127 75.2113 527.932C74.3776 527.37 73.5237 526.838 72.6022 526.219ZM130.104 555.914C129.358 556.066 128.6 556.173 127.869 556.375C119.507 558.681 111.14 560.972 102.792 563.328C94.0016 565.809 85.2483 568.422 76.446 570.858C67.3975 573.362 58.2915 575.658 49.2435 578.164C40.8492 580.489 32.5116 583.018 24.1131 585.327C22.9643 585.643 22.3289 586.171 21.8459 587.103C18.8388 592.91 15.8301 598.715 12.836 604.528C10.6982 608.678 8.58086 612.84 6.45844 616.998C6.0888 617.722 5.73921 618.457 5.38037 619.186C6.09621 619.001 6.81281 618.818 7.52776 618.63C13.249 617.119 18.9699 615.608 24.6909 614.096C30.4119 612.585 36.1315 611.068 41.8544 609.564C46.4894 608.347 51.1253 607.132 55.7667 605.939C60.276 604.78 64.7989 603.674 69.3045 602.501C74.4843 601.152 79.6484 599.744 84.825 598.383C91.0046 596.758 97.1884 595.149 103.374 593.546C107.833 592.39 112.304 591.275 116.76 590.107C121.528 588.856 126.278 587.54 131.047 586.296C137.052 584.731 143.073 583.228 149.079 581.666C155.078 580.105 161.065 578.499 167.06 576.922C172.83 575.404 178.6 573.889 184.375 572.39C188.834 571.231 193.305 570.119 197.761 568.95C203.301 567.496 208.825 565.982 214.367 564.535C220.007 563.062 225.668 561.667 231.306 560.185C236.388 558.849 241.444 557.413 246.526 556.073C251.844 554.672 257.183 553.348 262.505 551.962C269.187 550.221 275.859 548.444 282.539 546.699C288.267 545.202 294.005 543.738 299.733 542.238C304.775 540.919 309.806 539.553 314.849 538.237C320.988 536.636 327.139 535.078 333.279 533.476C338.322 532.159 343.35 530.788 348.393 529.473C354.942 527.764 361.498 526.082 368.053 524.399C374.838 522.657 381.586 520.738 388.433 519.283C391.243 518.687 393.358 517.492 395.17 515.427C396.347 514.086 397.591 512.803 398.795 511.485C401.933 508.052 405.107 504.649 408.184 501.163C410.014 499.089 411.715 496.899 413.429 494.726C415.099 492.609 416.76 490.481 418.339 488.296C420.208 485.711 422.006 483.074 423.794 480.432C425.147 478.433 426.449 476.399 427.729 474.352C427.823 474.202 427.496 473.581 427.463 473.589C426.83 473.742 426.218 473.98 425.588 474.154C422.106 475.114 418.615 476.044 415.137 477.017C409.586 478.569 404.051 480.179 398.493 481.705C392.382 483.382 386.241 484.951 380.134 486.641C373.858 488.377 367.617 490.238 361.343 491.981C353.794 494.079 346.223 496.094 338.67 498.175C334.198 499.408 329.747 500.718 325.278 501.959C319.764 503.491 314.238 504.979 308.721 506.5C304.744 507.596 300.775 508.721 296.799 509.821C291.375 511.321 285.945 512.803 280.522 514.307C275.78 515.622 271.047 516.975 266.302 518.281C260.376 519.911 254.441 521.511 248.509 523.121C243.302 524.534 238.085 525.915 232.886 527.361C228.69 528.528 224.525 529.802 220.33 530.972C214.23 532.673 208.112 534.308 202.01 536C196.862 537.428 191.733 538.926 186.583 540.342C179.886 542.184 173.168 543.947 166.474 545.797C158.568 547.981 150.683 550.242 142.779 552.431C138.616 553.584 134.43 554.655 130.104 555.914ZM221.23 588.103C222.056 587.902 222.883 587.708 223.706 587.498C230.584 585.741 237.463 583.984 244.339 582.221C250.03 580.761 255.718 579.288 261.409 577.828C266.692 576.474 271.983 575.148 277.261 573.776C283.625 572.122 289.976 570.416 296.341 568.765C301.257 567.49 306.19 566.277 311.11 565.016C317.211 563.454 323.332 561.963 329.394 560.261C332.766 559.314 336.089 558.303 338.994 556.015C341.508 554.035 344.534 552.69 347.374 551.14C349.833 549.799 352.503 548.791 354.81 547.234C359.801 543.866 364.61 540.228 369.512 536.727C372.304 534.733 375.229 532.911 377.918 530.789C380.32 528.894 382.488 526.701 384.737 524.616C384.942 524.427 384.991 524.07 385.112 523.791C384.638 523.819 384.138 523.76 383.693 523.889C381.898 524.408 380.138 525.054 378.331 525.526C372.281 527.106 366.211 528.61 360.159 530.185C355.389 531.425 350.64 532.746 345.872 533.997C339.282 535.728 332.686 537.432 326.089 539.138C321.629 540.292 317.159 541.406 312.704 542.579C307.574 543.928 302.464 545.35 297.332 546.689C291.281 548.266 285.208 549.759 279.159 551.344C274.075 552.675 269.02 554.116 263.938 555.453C257.801 557.067 251.646 558.61 245.505 560.207C239.641 561.732 233.788 563.298 227.926 564.828C220.696 566.715 213.46 568.576 206.231 570.463C199.96 572.101 193.696 573.768 187.425 575.407C181.696 576.903 175.96 578.372 170.231 579.866C164.367 581.395 158.509 582.944 152.646 584.475C147.327 585.865 142.007 587.249 136.684 588.624C131.086 590.07 125.479 591.483 119.885 592.944C114.297 594.404 108.725 595.923 103.137 597.383C97.5435 598.844 91.9345 600.248 86.3405 601.709C80.7526 603.169 75.1764 604.673 69.5925 606.148C63.7344 607.695 57.8751 609.238 52.0128 610.77C46.2841 612.266 40.5527 613.752 34.8194 615.23C29.2202 616.673 23.6189 618.109 18.0149 619.534C14.0027 620.555 9.98188 621.541 5.97387 622.578C5.62953 622.667 5.35267 623.017 5.04444 623.246C5.32914 623.42 5.6065 623.608 5.90021 623.765C6.39379 624.029 6.9418 624.214 7.38969 624.538C9.37136 625.974 11.4211 627.339 13.2637 628.939C15.2435 630.658 16.9044 632.675 17.0678 635.505C17.1527 636.976 17.2592 638.445 17.3703 639.914C17.4259 640.649 17.4086 641.533 18.5146 640.621C18.6825 640.482 18.9469 640.453 19.172 640.393C21.7127 639.716 24.2502 639.026 26.7967 638.371C32.4432 636.919 38.0933 635.481 43.744 634.046C49.0319 632.703 54.3308 631.402 59.6099 630.025C66.3337 628.272 73.0367 626.439 79.7596 624.681C85.8544 623.088 91.9643 621.553 98.0668 619.989C103.759 618.53 109.448 617.059 115.142 615.61C121.205 614.068 127.281 612.579 133.335 611.004C139.286 609.456 145.208 607.798 151.158 606.246C158.028 604.455 164.915 602.732 171.792 600.968C177.483 599.509 183.168 598.028 188.859 596.568C194.142 595.213 199.433 593.888 204.714 592.525C210.173 591.117 215.625 589.679 221.23 588.103ZM149.599 507.102C144.492 508.513 139.394 509.956 134.276 511.325C127.968 513.012 121.642 514.631 115.326 516.291C108.604 518.057 101.874 519.797 95.1791 521.662C94.3753 521.886 93.6479 522.732 93.1083 523.456C92.5941 524.146 92.4029 525.068 92.0163 525.863C89.3846 531.271 86.7586 536.683 84.0928 542.075C80.1027 550.145 76.0729 558.196 72.0881 566.269C71.7442 566.966 71.61 567.766 71.3785 568.518C72.0762 568.297 72.7679 568.053 73.4728 567.857C77.6292 566.701 81.7939 565.574 85.9457 564.402C91.8064 562.748 97.6477 561.024 103.517 559.401C109.625 557.713 115.767 556.149 121.874 554.459C128.149 552.722 134.392 550.866 140.666 549.123C148.214 547.025 155.785 545.01 163.337 542.924C168.893 541.39 174.426 539.774 179.982 538.239C187.94 536.042 195.914 533.9 203.873 531.706C208.3 530.486 212.703 529.178 217.131 527.965C222.564 526.477 228.023 525.083 233.452 523.581C239.322 521.957 245.16 520.22 251.03 518.597C257.137 516.909 263.276 515.338 269.381 513.643C275.248 512.014 281.073 510.236 286.946 508.628C294.554 506.545 302.206 504.624 309.809 502.524C316.398 500.704 322.931 498.684 329.513 496.838C337.507 494.596 345.521 492.426 353.537 490.261C358.254 488.988 362.989 487.784 367.717 486.55C370.035 485.944 372.357 485.352 374.667 484.718C374.889 484.657 375.04 484.339 375.223 484.141C375.046 484.037 374.855 483.826 374.693 483.846C373.312 484.018 371.934 484.221 370.559 484.436C367.392 484.933 364.231 485.474 361.058 485.933C359.188 486.204 357.295 486.32 355.42 486.564C352.56 486.936 349.71 487.384 346.849 487.75C344.875 488.002 342.885 488.13 340.91 488.382C338.049 488.746 335.199 489.198 332.338 489.563C330.364 489.815 328.374 489.946 326.4 490.198C323.538 490.562 320.688 491.012 317.826 491.377C315.852 491.629 313.862 491.756 311.89 492.015C309.178 492.372 306.48 492.834 303.768 493.188C301.793 493.446 299.801 493.567 297.825 493.812C294.814 494.184 291.809 494.597 288.805 495.017C286.811 495.296 284.825 495.835 282.832 495.854C281.063 495.871 279.618 496.886 278.036 497.045C274.293 497.42 270.524 497.105 266.901 495.936C263.929 494.977 261.022 493.808 258.029 492.923C254.247 491.806 250.403 490.904 246.597 489.868C243.387 488.994 240.228 487.47 236.985 487.278C230.428 486.891 223.881 487.123 217.443 489.191C210.701 491.357 203.759 492.901 196.903 494.709C190.136 496.494 183.368 498.275 176.598 500.049C171.826 501.299 167.046 502.522 162.276 503.781C158.147 504.871 154.026 505.994 149.599 507.102ZM51.3696 538.233C51.2984 538.305 51.2378 538.421 51.1543 538.441C45.8815 539.686 40.6023 540.905 35.3357 542.176C34.1153 542.471 32.7092 542.603 32.1873 544.061C31.7629 545.247 31.4042 546.458 31.0719 547.673C30.997 547.947 31.0682 548.351 31.2362 548.567C31.3286 548.685 31.77 548.566 32.0416 548.501C32.3106 548.438 32.5566 548.278 32.8253 548.212C41.409 546.091 49.9993 543.996 58.577 541.852C63.1932 540.698 67.858 540.006 72.6238 540.044C74.8883 540.061 77.1569 539.968 79.4163 540.078C80.6543 540.138 81.2552 539.619 81.7617 538.592C83.0209 536.04 84.3668 533.53 85.6706 531C85.7975 530.754 85.8743 530.482 85.9744 530.222C85.6427 530.172 85.2871 530.02 84.9836 530.091C83.8901 530.347 82.8221 530.71 81.7301 530.974C76.5121 532.232 71.287 533.462 66.069 534.72C61.2669 535.879 56.4707 537.061 51.3696 538.233ZM55.9032 512.845C57.9435 513.878 59.9551 514.973 62.0296 515.931C67.5685 518.49 72.4859 522.082 77.6788 525.216C79.3259 526.211 81.0314 527.278 83.1072 527.034C84.1913 526.906 85.2905 526.742 86.3243 526.412C87.0134 526.192 87.8629 525.795 88.182 525.222C89.1762 523.436 89.7138 521.36 90.881 519.719C91.9907 518.158 90.7583 518.213 90.0331 518.01C88.0827 517.464 86.0797 517.108 84.1266 516.571C80.1073 515.466 76.1039 514.302 72.0994 513.144C67.9629 511.948 63.8149 510.786 59.7115 509.484C58.5746 509.123 57.3011 508.542 56.5885 507.66C55.6995 506.56 54.6875 506.323 53.5817 506.538C51.747 506.894 49.9542 507.48 48.1628 508.031C47.8325 508.133 47.592 508.526 47.31 508.785C47.6028 508.929 47.8837 509.111 48.191 509.21C48.8147 509.412 49.5073 509.467 50.0748 509.766C51.9402 510.748 53.7623 511.812 55.9032 512.845ZM345.906 472.798C345.805 472.588 345.624 472.381 345.616 472.167C345.497 469.089 345.413 466.01 345.29 462.932C345.271 462.467 345.12 462.002 344.974 461.555C344.955 461.498 344.457 461.483 344.415 461.567C343.829 462.731 343.278 463.912 342.73 465.095C341.516 467.712 340.07 470.256 339.19 472.982C338.657 474.634 338.983 476.571 338.959 478.38C338.935 480.242 338.9 482.107 339 483.964C339.02 484.338 339.641 485.001 339.957 484.985C341.641 484.897 343.326 484.696 344.989 484.407C345.769 484.272 346.303 483.845 346.24 482.787C346.05 479.563 346.006 476.33 345.906 472.798ZM305.707 474.007C305.808 474.92 306.02 475.838 305.99 476.747C305.863 480.69 306.465 484.669 305.413 488.568C305.195 489.376 305.797 489.328 306.298 489.264C307.775 489.078 309.275 488.97 310.711 488.611C311.238 488.479 311.844 487.802 312.014 487.251C312.715 484.966 313.374 482.656 313.822 480.312C314.054 479.099 314.114 477.8 312.804 476.816C311.083 475.524 309.545 473.991 307.9 472.594C307.591 472.332 307.169 472.123 306.773 472.061C305.769 471.904 305.31 472.648 305.707 474.007ZM298.756 441.969C298.756 441.415 298.822 440.85 298.731 440.311C298.676 439.986 298.439 439.578 298.167 439.443C297.982 439.351 297.49 439.586 297.314 439.814C296.106 441.367 294.913 442.934 293.791 444.549C293.444 445.048 292.964 445.974 293.167 446.255C294.919 448.683 296.807 451.013 298.683 453.35C298.78 453.471 299.328 453.422 299.331 453.4C299.466 452.541 299.706 451.663 299.636 450.812C299.403 447.96 299.058 445.117 298.756 441.969Z" fill="#95E71F"/>
</g>
<g filter="url(#filter24_d)">
<path d="M179.596 418.469C178.898 418.224 177.936 418.06 177.707 417.559C175.958 413.748 172.574 411.733 169.352 409.446C164.726 406.162 159.529 404.524 154.027 403.775C150.917 403.352 147.753 403.19 144.613 403.192C143.099 403.192 141.563 403.77 140.076 404.22C138.893 404.578 137.863 404.314 137.444 403.282C137.055 402.324 137.615 401.352 138.701 401.03C140.591 400.471 142.484 399.774 144.422 399.564C146.761 399.31 149.181 399.257 151.51 399.556C155.949 400.127 160.29 401.176 164.507 402.789C167.989 404.121 171.041 406.114 174.024 408.249C175.175 409.073 176.151 410.139 177.208 411.093C177.383 411.251 177.564 411.404 177.742 411.559C177.882 411.365 178.109 411.187 178.148 410.974C178.832 407.2 180.728 403.921 182.753 400.806C185.31 396.873 188.09 393.039 191.172 389.509C192.968 387.453 195.542 386.076 197.765 384.391C199.298 383.228 200.825 382.057 202.361 380.897C203.328 380.167 204.238 380.448 204.818 381.332C205.33 382.111 205.275 383.01 204.417 383.678C201.636 385.845 198.973 388.184 196.054 390.145C193.263 392.02 191.208 394.512 189.436 397.217C187.122 400.748 184.926 404.387 183.057 408.167C181.954 410.397 181.553 412.981 180.904 415.424C180.761 415.96 181.073 416.64 180.872 417.128C180.666 417.63 180.087 417.978 179.596 418.469Z" fill="#00E1FF"/>
</g>
<g filter="url(#filter25_d)">
<path d="M141.816 448.391C144.538 446.072 147.165 443.803 149.852 441.607C150.329 441.218 151.081 440.911 151.663 440.973C152.255 441.037 153.079 441.489 153.273 441.98C153.457 442.445 153.143 443.389 152.726 443.764C149.924 446.286 146.885 448.562 144.213 451.21C140.941 454.451 139.288 458.641 138.268 463.08C138.14 463.637 138.196 464.282 137.926 464.747C137.634 465.249 137.064 465.913 136.606 465.921C135.923 465.932 134.944 465.629 134.587 465.115C131.58 460.779 127.097 459.166 122.226 458.493C118.821 458.022 115.348 458.038 111.905 457.837C111.559 457.817 111.1 457.942 110.888 457.766C110.287 457.265 109.32 456.619 109.348 456.074C109.405 454.997 110.268 454.164 111.51 454.222C115.055 454.388 118.605 454.532 122.139 454.835C126.191 455.184 129.931 456.55 133.357 458.746C135.358 460.029 135.309 460.026 136.159 457.64C137.382 454.203 139.18 451.099 141.816 448.391Z" fill="#00E1FF"/>
</g>
<g filter="url(#filter26_d)">
<path d="M255.233 435.471C255.489 437.108 254.522 437.707 253.38 438.192C250.211 439.539 246.641 440.053 243.957 442.404C241.601 444.468 239.29 446.609 237.178 448.916C235.716 450.513 233.295 450.783 232.307 448.901C230.705 445.85 228.391 443.447 225.958 441.115C224.309 439.534 222.259 438.732 220.077 438.174C219.029 437.906 217.941 437.453 218.081 436.089C218.213 434.81 219.225 434.631 220.325 434.548C223.464 434.314 225.819 435.936 228.05 437.783C229.946 439.352 231.74 441.044 233.579 442.682C233.617 442.715 233.653 442.751 233.686 442.789C234.363 443.565 235.039 444.343 235.716 445.12C236.499 444.352 237.353 443.642 238.054 442.805C241.487 438.706 246.209 436.833 251.061 435.168C251.414 435.047 251.803 434.985 252.113 434.795C253.321 434.057 254.354 434.187 255.233 435.471Z" fill="#00E1FF"/>
</g>
<g filter="url(#filter27_d)">
<path d="M322.935 521.61C321.876 524.332 319.578 524.899 317.19 525.21C316.22 525.337 315.121 525.414 314.239 525.087C312.228 524.341 311.516 523.316 311.753 521.539C312.145 518.607 312.844 515.818 315.805 514.368C318.013 513.288 321.694 514.225 322.836 516.279C323.738 517.901 323.943 519.713 322.935 521.61Z" fill="#F053C2"/>
</g>
<g filter="url(#filter28_d)">
<path d="M222.817 547.376C222.389 546.141 221.877 545.003 221.715 543.818C221.32 540.931 224.949 537.537 227.473 537.916C228.582 538.083 229.773 537.893 230.826 538.204C234.2 539.202 234.285 543.664 232.14 545.927C230.905 547.23 229.019 547.972 227.339 548.785C225.544 549.652 224.073 548.907 222.817 547.376Z" fill="#F053C2"/>
</g>
<g filter="url(#filter29_d)">
<path d="M286.742 522.29C288.165 522.151 289.569 521.817 290.847 522.086C293.094 522.557 294.868 524.875 294.827 526.776C294.788 528.538 292.788 531.314 290.997 531.868C288.701 532.577 286.324 532.44 284.345 531.146C281.449 529.253 281.97 525.085 285.176 523.126C285.65 522.836 286.168 522.617 286.742 522.29Z" fill="#F053C2"/>
</g>
<g filter="url(#filter30_d)">
<path d="M256.442 530.073C257.675 530.248 258.823 530.252 259.827 530.634C262.277 531.567 263.432 533.894 262.755 536.701C262.238 538.841 260.88 540.263 258.142 540.345C257.222 540.372 256.285 540.455 255.381 540.33C252.001 539.862 250.541 536.277 252.401 533.325C253.368 531.79 254.42 530.473 256.442 530.073Z" fill="#F053C2"/>
</g>
<g filter="url(#filter31_d)">
<path d="M193.197 555.839C191.312 555.246 191.106 553.814 191.162 552.265C191.272 549.237 193.011 546.723 195.153 545.805C197.035 544.998 199.726 545.721 200.917 547.24C202.013 548.639 202.162 551.396 200.963 553.052C199.042 555.704 196.419 556.526 193.197 555.839Z" fill="#F053C2"/>
</g>
<g filter="url(#filter32_d)">
<path d="M172.796 506.876C179.71 505.2 186.574 503.7 193.381 501.975C201.658 499.877 209.869 497.52 218.145 495.421C221.456 494.581 224.89 494.234 228.224 493.475C232.5 492.501 236.25 494.576 240.209 495.358C244.311 496.169 248.348 497.316 252.403 498.356C252.869 498.476 253.267 498.857 253.697 499.117C253.294 499.361 252.912 499.77 252.486 499.823C247.78 500.407 243.347 501.993 238.837 503.339C235.274 504.403 231.574 504.997 227.961 505.907C222.316 507.33 216.704 508.882 211.059 510.306C206.674 511.412 202.226 512.28 197.869 513.484C193.326 514.739 188.852 516.251 184.36 517.687C180.672 518.866 177.055 520.331 173.297 521.189C171.869 521.515 170.117 520.559 168.542 520.087C165.323 519.119 162.112 518.119 158.926 517.049C158.224 516.813 157.641 516.226 157.004 515.802C157.583 515.093 158.067 514.269 158.76 513.702C160.164 512.552 161.676 511.534 163.154 510.475C166.018 508.425 169.414 507.806 172.796 506.876Z" fill="#F053C2"/>
</g>
<g filter="url(#filter33_d)">
<path d="M97.8395 549.794C96.585 550.259 95.6739 549.776 95.3928 548.696C95.0884 547.527 95.7392 546.69 96.9746 546.391C100.681 545.492 104.385 544.587 108.087 543.672C112.427 542.6 116.758 541.492 121.103 540.441C126.738 539.079 132.388 537.781 138.022 536.413C142.776 535.258 147.515 534.042 152.26 532.851C153.126 532.634 153.987 532.39 154.858 532.193C156.023 531.93 157.461 532.581 157.567 533.54C157.707 534.791 156.835 535.511 155.765 535.794C152.488 536.659 149.183 537.418 145.893 538.235C140.688 539.528 135.498 540.882 130.28 542.123C123.257 543.792 116.204 545.337 109.183 547.015C105.808 547.822 102.478 548.821 99.1207 549.705C98.7438 549.804 98.3182 549.718 97.8395 549.794Z" fill="#F053C2"/>
</g>
<g filter="url(#filter34_d)">
<path d="M102.373 538.309C105.27 537.628 108.108 537.09 110.91 536.404C116.481 535.042 122.031 533.589 127.594 532.191C132.795 530.884 138.002 529.597 143.208 528.306C144.123 528.079 145.046 527.702 145.963 527.708C147.055 527.717 148.161 528.307 148.064 529.526C148.015 530.148 147.153 531.033 146.491 531.225C143.286 532.157 140.024 532.893 136.782 533.7C130.801 535.187 124.827 536.702 118.838 538.156C113.204 539.524 107.555 540.83 101.913 542.162C101.04 542.368 100.137 542.798 99.3019 542.693C98.6451 542.61 97.7749 541.981 97.535 541.38C97.217 540.584 97.5725 539.647 98.6179 539.351C99.8381 539.006 101.071 538.705 102.373 538.309Z" fill="#F053C2"/>
</g>
<g filter="url(#filter35_d)">
<path d="M134.033 527.352C128.392 528.561 122.903 529.779 117.41 530.977C111.821 532.196 106.235 533.43 100.631 534.575C99.5552 534.794 98.6012 533.942 98.553 533.019C98.5189 532.365 99.3401 531.214 99.9748 531.053C103.731 530.098 107.548 529.379 111.339 528.558C115.679 527.618 120.015 526.656 124.352 525.699C129.149 524.641 133.935 523.527 138.755 522.587C139.3 522.481 140.379 523.212 140.608 523.792C141.025 524.852 140.484 525.82 139.27 526.135C137.583 526.572 135.88 526.949 134.033 527.352Z" fill="#F053C2"/>
</g>
</g>
<defs>
<filter id="filter0_d" x="466" y="51" width="462" height="404.12" filterUnits="userSpaceOnUse" color-interpolation-filters="sRGB">
<feFlood flood-opacity="0" result="BackgroundImageFix"/>
<feColorMatrix in="SourceAlpha" type="matrix" values="0 0 0 0 0 0 0 0 0 0 0 0 0 0 0 0 0 0 127 0"/>
<feOffset/>
<feGaussianBlur stdDeviation="5"/>
<feColorMatrix type="matrix" values="0 0 0 0 1 0 0 0 0 1 0 0 0 0 1 0 0 0 0.75 0"/>
<feBlend mode="normal" in2="BackgroundImageFix" result="effect1_dropShadow"/>
<feBlend mode="normal" in="SourceGraphic" in2="effect1_dropShadow" result="shape"/>
</filter>
<filter id="filter1_d" x="491" y="75" width="413" height="365.582" filterUnits="userSpaceOnUse" color-interpolation-filters="sRGB">
<feFlood flood-opacity="0" result="BackgroundImageFix"/>
<feColorMatrix in="SourceAlpha" type="matrix" values="0 0 0 0 0 0 0 0 0 0 0 0 0 0 0 0 0 0 127 0"/>
<feOffset/>
<feGaussianBlur stdDeviation="5"/>
<feColorMatrix type="matrix" values="0 0 0 0 1 0 0 0 0 1 0 0 0 0 1 0 0 0 0.75 0"/>
<feBlend mode="normal" in2="BackgroundImageFix" result="effect1_dropShadow"/>
<feBlend mode="normal" in="SourceGraphic" in2="effect1_dropShadow" result="shape"/>
</filter>
<filter id="filter2_d" x="438" y="231" width="513" height="130" filterUnits="userSpaceOnUse" color-interpolation-filters="sRGB">
<feFlood flood-opacity="0" result="BackgroundImageFix"/>
<feColorMatrix in="SourceAlpha" type="matrix" values="0 0 0 0 0 0 0 0 0 0 0 0 0 0 0 0 0 0 127 0"/>
<feOffset/>
<feGaussianBlur stdDeviation="5"/>
<feColorMatrix type="matrix" values="0 0 0 0 1 0 0 0 0 1 0 0 0 0 1 0 0 0 0.75 0"/>
<feBlend mode="normal" in2="BackgroundImageFix" result="effect1_dropShadow"/>
<feBlend mode="normal" in="SourceGraphic" in2="effect1_dropShadow" result="shape"/>
</filter>
<filter id="filter3_d" x="318.848" y="402.5" width="628.305" height="60.2361" filterUnits="userSpaceOnUse" color-interpolation-filters="sRGB">
<feFlood flood-opacity="0" result="BackgroundImageFix"/>
<feColorMatrix in="SourceAlpha" type="matrix" values="0 0 0 0 0 0 0 0 0 0 0 0 0 0 0 0 0 0 127 0"/>
<feOffset/>
<feGaussianBlur stdDeviation="5"/>
<feColorMatrix type="matrix" values="0 0 0 0 1 0 0 0 0 1 0 0 0 0 1 0 0 0 0.8 0"/>
<feBlend mode="normal" in2="BackgroundImageFix" result="effect1_dropShadow"/>
<feBlend mode="normal" in="SourceGraphic" in2="effect1_dropShadow" result="shape"/>
</filter>
<filter id="filter4_d" x="440.848" y="446.5" width="568.839" height="60.2361" filterUnits="userSpaceOnUse" color-interpolation-filters="sRGB">
<feFlood flood-opacity="0" result="BackgroundImageFix"/>
<feColorMatrix in="SourceAlpha" type="matrix" values="0 0 0 0 0 0 0 0 0 0 0 0 0 0 0 0 0 0 127 0"/>
<feOffset/>
<feGaussianBlur stdDeviation="5"/>
<feColorMatrix type="matrix" values="0 0 0 0 1 0 0 0 0 1 0 0 0 0 1 0 0 0 0.8 0"/>
<feBlend mode="normal" in2="BackgroundImageFix" result="effect1_dropShadow"/>
<feBlend mode="normal" in="SourceGraphic" in2="effect1_dropShadow" result="shape"/>
</filter>
<filter id="filter5_d" x="556.275" y="183.379" width="275.6" height="31.9141" filterUnits="userSpaceOnUse" color-interpolation-filters="sRGB">
<feFlood flood-opacity="0" result="BackgroundImageFix"/>
<feColorMatrix in="SourceAlpha" type="matrix" values="0 0 0 0 0 0 0 0 0 0 0 0 0 0 0 0 0 0 127 0"/>
<feOffset/>
<feGaussianBlur stdDeviation="2.5"/>
<feColorMatrix type="matrix" values="0 0 0 0 1 0 0 0 0 1 0 0 0 0 1 0 0 0 0.75 0"/>
<feBlend mode="normal" in2="BackgroundImageFix" result="effect1_dropShadow"/>
<feBlend mode="normal" in="SourceGraphic" in2="effect1_dropShadow" result="shape"/>
</filter>
<filter id="filter6_d" x="681" y="-180" width="23" height="220" filterUnits="userSpaceOnUse" color-interpolation-filters="sRGB">
<feFlood flood-opacity="0" result="BackgroundImageFix"/>
<feColorMatrix in="SourceAlpha" type="matrix" values="0 0 0 0 0 0 0 0 0 0 0 0 0 0 0 0 0 0 127 0"/>
<feOffset/>
<feGaussianBlur stdDeviation="5"/>
<feColorMatrix type="matrix" values="0 0 0 0 1 0 0 0 0 1 0 0 0 0 1 0 0 0 0.75 0"/>
<feBlend mode="normal" in2="BackgroundImageFix" result="effect1_dropShadow"/>
<feBlend mode="normal" in="SourceGraphic" in2="effect1_dropShadow" result="shape"/>
</filter>
<filter id="filter7_d" x="780.223" y="-118.404" width="87.5229" height="179.404" filterUnits="userSpaceOnUse" color-interpolation-filters="sRGB">
<feFlood flood-opacity="0" result="BackgroundImageFix"/>
<feColorMatrix in="SourceAlpha" type="matrix" values="0 0 0 0 0 0 0 0 0 0 0 0 0 0 0 0 0 0 127 0"/>
<feOffset/>
<feGaussianBlur stdDeviation="5"/>
<feColorMatrix type="matrix" values="0 0 0 0 1 0 0 0 0 1 0 0 0 0 1 0 0 0 0.75 0"/>
<feBlend mode="normal" in2="BackgroundImageFix" result="effect1_dropShadow"/>
<feBlend mode="normal" in="SourceGraphic" in2="effect1_dropShadow" result="shape"/>
</filter>
<filter id="filter8_d" x="906.268" y="75.3793" width="123.792" height="94.6207" filterUnits="userSpaceOnUse" color-interpolation-filters="sRGB">
<feFlood flood-opacity="0" result="BackgroundImageFix"/>
<feColorMatrix in="SourceAlpha" type="matrix" values="0 0 0 0 0 0 0 0 0 0 0 0 0 0 0 0 0 0 127 0"/>
<feOffset/>
<feGaussianBlur stdDeviation="5"/>
<feColorMatrix type="matrix" values="0 0 0 0 1 0 0 0 0 1 0 0 0 0 1 0 0 0 0.75 0"/>
<feBlend mode="normal" in2="BackgroundImageFix" result="effect1_dropShadow"/>
<feBlend mode="normal" in="SourceGraphic" in2="effect1_dropShadow" result="shape"/>
</filter>
<filter id="filter9_d" x="938.138" y="149.657" width="212.427" height="80.3431" filterUnits="userSpaceOnUse" color-interpolation-filters="sRGB">
<feFlood flood-opacity="0" result="BackgroundImageFix"/>
<feColorMatrix in="SourceAlpha" type="matrix" values="0 0 0 0 0 0 0 0 0 0 0 0 0 0 0 0 0 0 127 0"/>
<feOffset/>
<feGaussianBlur stdDeviation="5"/>
<feColorMatrix type="matrix" values="0 0 0 0 1 0 0 0 0 1 0 0 0 0 1 0 0 0 0.75 0"/>
<feBlend mode="normal" in2="BackgroundImageFix" result="effect1_dropShadow"/>
<feBlend mode="normal" in="SourceGraphic" in2="effect1_dropShadow" result="shape"/>
</filter>
<filter id="filter10_d" x="950" y="285" width="145" height="23" filterUnits="userSpaceOnUse" color-interpolation-filters="sRGB">
<feFlood flood-opacity="0" result="BackgroundImageFix"/>
<feColorMatrix in="SourceAlpha" type="matrix" values="0 0 0 0 0 0 0 0 0 0 0 0 0 0 0 0 0 0 127 0"/>
<feOffset/>
<feGaussianBlur stdDeviation="5"/>
<feColorMatrix type="matrix" values="0 0 0 0 1 0 0 0 0 1 0 0 0 0 1 0 0 0 0.75 0"/>
<feBlend mode="normal" in2="BackgroundImageFix" result="effect1_dropShadow"/>
<feBlend mode="normal" in="SourceGraphic" in2="effect1_dropShadow" result="shape"/>
</filter>
<filter id="filter11_d" x="926" y="360.057" width="152.58" height="48.9434" filterUnits="userSpaceOnUse" color-interpolation-filters="sRGB">
<feFlood flood-opacity="0" result="BackgroundImageFix"/>
<feColorMatrix in="SourceAlpha" type="matrix" values="0 0 0 0 0 0 0 0 0 0 0 0 0 0 0 0 0 0 127 0"/>
<feOffset/>
<feGaussianBlur stdDeviation="5"/>
<feColorMatrix type="matrix" values="0 0 0 0 1 0 0 0 0 1 0 0 0 0 1 0 0 0 0.75 0"/>
<feBlend mode="normal" in2="BackgroundImageFix" result="effect1_dropShadow"/>
<feBlend mode="normal" in="SourceGraphic" in2="effect1_dropShadow" result="shape"/>
</filter>
<filter id="filter12_d" x="853.803" y="-59.51" width="158.386" height="168.51" filterUnits="userSpaceOnUse" color-interpolation-filters="sRGB">
<feFlood flood-opacity="0" result="BackgroundImageFix"/>
<feColorMatrix in="SourceAlpha" type="matrix" values="0 0 0 0 0 0 0 0 0 0 0 0 0 0 0 0 0 0 127 0"/>
<feOffset/>
<feGaussianBlur stdDeviation="5"/>
<feColorMatrix type="matrix" values="0 0 0 0 1 0 0 0 0 1 0 0 0 0 1 0 0 0 0.75 0"/>
<feBlend mode="normal" in2="BackgroundImageFix" result="effect1_dropShadow"/>
<feBlend mode="normal" in="SourceGraphic" in2="effect1_dropShadow" result="shape"/>
</filter>
<filter id="filter13_d" x="780.223" y="-75.8293" width="70.1057" height="136.829" filterUnits="userSpaceOnUse" color-interpolation-filters="sRGB">
<feFlood flood-opacity="0" result="BackgroundImageFix"/>
<feColorMatrix in="SourceAlpha" type="matrix" values="0 0 0 0 0 0 0 0 0 0 0 0 0 0 0 0 0 0 127 0"/>
<feOffset/>
<feGaussianBlur stdDeviation="5"/>
<feColorMatrix type="matrix" values="0 0 0 0 1 0 0 0 0 1 0 0 0 0 1 0 0 0 0.75 0"/>
<feBlend mode="normal" in2="BackgroundImageFix" result="effect1_dropShadow"/>
<feBlend mode="normal" in="SourceGraphic" in2="effect1_dropShadow" result="shape"/>
</filter>
<filter id="filter14_d" x="684" y="-180" width="23" height="220" filterUnits="userSpaceOnUse" color-interpolation-filters="sRGB">
<feFlood flood-opacity="0" result="BackgroundImageFix"/>
<feColorMatrix in="SourceAlpha" type="matrix" values="0 0 0 0 0 0 0 0 0 0 0 0 0 0 0 0 0 0 127 0"/>
<feOffset/>
<feGaussianBlur stdDeviation="5"/>
<feColorMatrix type="matrix" values="0 0 0 0 1 0 0 0 0 1 0 0 0 0 1 0 0 0 0.75 0"/>
<feBlend mode="normal" in2="BackgroundImageFix" result="effect1_dropShadow"/>
<feBlend mode="normal" in="SourceGraphic" in2="effect1_dropShadow" result="shape"/>
</filter>
<filter id="filter15_d" x="520.254" y="-118.404" width="87.5229" height="179.404" filterUnits="userSpaceOnUse" color-interpolation-filters="sRGB">
<feFlood flood-opacity="0" result="BackgroundImageFix"/>
<feColorMatrix in="SourceAlpha" type="matrix" values="0 0 0 0 0 0 0 0 0 0 0 0 0 0 0 0 0 0 127 0"/>
<feOffset/>
<feGaussianBlur stdDeviation="5"/>
<feColorMatrix type="matrix" values="0 0 0 0 1 0 0 0 0 1 0 0 0 0 1 0 0 0 0.75 0"/>
<feBlend mode="normal" in2="BackgroundImageFix" result="effect1_dropShadow"/>
<feBlend mode="normal" in="SourceGraphic" in2="effect1_dropShadow" result="shape"/>
</filter>
<filter id="filter16_d" x="357.94" y="75.3793" width="123.792" height="94.6207" filterUnits="userSpaceOnUse" color-interpolation-filters="sRGB">
<feFlood flood-opacity="0" result="BackgroundImageFix"/>
<feColorMatrix in="SourceAlpha" type="matrix" values="0 0 0 0 0 0 0 0 0 0 0 0 0 0 0 0 0 0 127 0"/>
<feOffset/>
<feGaussianBlur stdDeviation="5"/>
<feColorMatrix type="matrix" values="0 0 0 0 1 0 0 0 0 1 0 0 0 0 1 0 0 0 0.75 0"/>
<feBlend mode="normal" in2="BackgroundImageFix" result="effect1_dropShadow"/>
<feBlend mode="normal" in="SourceGraphic" in2="effect1_dropShadow" result="shape"/>
</filter>
<filter id="filter17_d" x="237.435" y="149.657" width="212.427" height="80.3431" filterUnits="userSpaceOnUse" color-interpolation-filters="sRGB">
<feFlood flood-opacity="0" result="BackgroundImageFix"/>
<feColorMatrix in="SourceAlpha" type="matrix" values="0 0 0 0 0 0 0 0 0 0 0 0 0 0 0 0 0 0 127 0"/>
<feOffset/>
<feGaussianBlur stdDeviation="5"/>
<feColorMatrix type="matrix" values="0 0 0 0 1 0 0 0 0 1 0 0 0 0 1 0 0 0 0.75 0"/>
<feBlend mode="normal" in2="BackgroundImageFix" result="effect1_dropShadow"/>
<feBlend mode="normal" in="SourceGraphic" in2="effect1_dropShadow" result="shape"/>
</filter>
<filter id="filter18_d" x="293" y="285" width="145" height="23" filterUnits="userSpaceOnUse" color-interpolation-filters="sRGB">
<feFlood flood-opacity="0" result="BackgroundImageFix"/>
<feColorMatrix in="SourceAlpha" type="matrix" values="0 0 0 0 0 0 0 0 0 0 0 0 0 0 0 0 0 0 127 0"/>
<feOffset/>
<feGaussianBlur stdDeviation="5"/>
<feColorMatrix type="matrix" values="0 0 0 0 1 0 0 0 0 1 0 0 0 0 1 0 0 0 0.75 0"/>
<feBlend mode="normal" in2="BackgroundImageFix" result="effect1_dropShadow"/>
<feBlend mode="normal" in="SourceGraphic" in2="effect1_dropShadow" result="shape"/>
</filter>
<filter id="filter19_d" x="245.361" y="360.059" width="216.639" height="62.5178" filterUnits="userSpaceOnUse" color-interpolation-filters="sRGB">
<feFlood flood-opacity="0" result="BackgroundImageFix"/>
<feColorMatrix in="SourceAlpha" type="matrix" values="0 0 0 0 0 0 0 0 0 0 0 0 0 0 0 0 0 0 127 0"/>
<feOffset/>
<feGaussianBlur stdDeviation="5"/>
<feColorMatrix type="matrix" values="0 0 0 0 1 0 0 0 0 1 0 0 0 0 1 0 0 0 0.75 0"/>
<feBlend mode="normal" in2="BackgroundImageFix" result="effect1_dropShadow"/>
<feBlend mode="normal" in="SourceGraphic" in2="effect1_dropShadow" result="shape"/>
</filter>
<filter id="filter20_d" x="375.811" y="-59.51" width="158.386" height="168.51" filterUnits="userSpaceOnUse" color-interpolation-filters="sRGB">
<feFlood flood-opacity="0" result="BackgroundImageFix"/>
<feColorMatrix in="SourceAlpha" type="matrix" values="0 0 0 0 0 0 0 0 0 0 0 0 0 0 0 0 0 0 127 0"/>
<feOffset/>
<feGaussianBlur stdDeviation="5"/>
<feColorMatrix type="matrix" values="0 0 0 0 1 0 0 0 0 1 0 0 0 0 1 0 0 0 0.75 0"/>
<feBlend mode="normal" in2="BackgroundImageFix" result="effect1_dropShadow"/>
<feBlend mode="normal" in="SourceGraphic" in2="effect1_dropShadow" result="shape"/>
</filter>
<filter id="filter21_d" x="537.671" y="-75.8293" width="70.1058" height="136.829" filterUnits="userSpaceOnUse" color-interpolation-filters="sRGB">
<feFlood flood-opacity="0" result="BackgroundImageFix"/>
<feColorMatrix in="SourceAlpha" type="matrix" values="0 0 0 0 0 0 0 0 0 0 0 0 0 0 0 0 0 0 127 0"/>
<feOffset/>
<feGaussianBlur stdDeviation="5"/>
<feColorMatrix type="matrix" values="0 0 0 0 1 0 0 0 0 1 0 0 0 0 1 0 0 0 0.75 0"/>
<feBlend mode="normal" in2="BackgroundImageFix" result="effect1_dropShadow"/>
<feBlend mode="normal" in="SourceGraphic" in2="effect1_dropShadow" result="shape"/>
</filter>
<filter id="filter22_d" x="1016.38" y="343.376" width="356.076" height="356.076" filterUnits="userSpaceOnUse" color-interpolation-filters="sRGB">
<feFlood flood-opacity="0" result="BackgroundImageFix"/>
<feColorMatrix in="SourceAlpha" type="matrix" values="0 0 0 0 0 0 0 0 0 0 0 0 0 0 0 0 0 0 127 0"/>
<feOffset/>
<feGaussianBlur stdDeviation="5"/>
<feColorMatrix type="matrix" values="0 0 0 0 1 0 0 0 0 1 0 0 0 0 1 0 0 0 0.75 0"/>
<feBlend mode="normal" in2="BackgroundImageFix" result="effect1_dropShadow"/>
<feBlend mode="normal" in="SourceGraphic" in2="effect1_dropShadow" result="shape"/>
</filter>
<filter id="filter23_d" x="-10" y="398.592" width="453" height="255.928" filterUnits="userSpaceOnUse" color-interpolation-filters="sRGB">
<feFlood flood-opacity="0" result="BackgroundImageFix"/>
<feColorMatrix in="SourceAlpha" type="matrix" values="0 0 0 0 0 0 0 0 0 0 0 0 0 0 0 0 0 0 127 0"/>
<feOffset/>
<feGaussianBlur stdDeviation="5"/>
<feColorMatrix type="matrix" values="0 0 0 0 1 0 0 0 0 1 0 0 0 0 1 0 0 0 0.75 0"/>
<feBlend mode="normal" in2="BackgroundImageFix" result="effect1_dropShadow"/>
<feBlend mode="normal" in="SourceGraphic" in2="effect1_dropShadow" result="shape"/>
</filter>
<filter id="filter24_d" x="127.321" y="370.48" width="87.8252" height="57.9893" filterUnits="userSpaceOnUse" color-interpolation-filters="sRGB">
<feFlood flood-opacity="0" result="BackgroundImageFix"/>
<feColorMatrix in="SourceAlpha" type="matrix" values="0 0 0 0 0 0 0 0 0 0 0 0 0 0 0 0 0 0 127 0"/>
<feOffset/>
<feGaussianBlur stdDeviation="5"/>
<feColorMatrix type="matrix" values="0 0 0 0 1 0 0 0 0 1 0 0 0 0 1 0 0 0 0.75 0"/>
<feBlend mode="normal" in2="BackgroundImageFix" result="effect1_dropShadow"/>
<feBlend mode="normal" in="SourceGraphic" in2="effect1_dropShadow" result="shape"/>
</filter>
<filter id="filter25_d" x="99.3477" y="430.965" width="63.9793" height="44.9555" filterUnits="userSpaceOnUse" color-interpolation-filters="sRGB">
<feFlood flood-opacity="0" result="BackgroundImageFix"/>
<feColorMatrix in="SourceAlpha" type="matrix" values="0 0 0 0 0 0 0 0 0 0 0 0 0 0 0 0 0 0 127 0"/>
<feOffset/>
<feGaussianBlur stdDeviation="5"/>
<feColorMatrix type="matrix" values="0 0 0 0 1 0 0 0 0 1 0 0 0 0 1 0 0 0 0.75 0"/>
<feBlend mode="normal" in2="BackgroundImageFix" result="effect1_dropShadow"/>
<feBlend mode="normal" in="SourceGraphic" in2="effect1_dropShadow" result="shape"/>
</filter>
<filter id="filter26_d" x="208.069" y="424.344" width="57.2051" height="35.8707" filterUnits="userSpaceOnUse" color-interpolation-filters="sRGB">
<feFlood flood-opacity="0" result="BackgroundImageFix"/>
<feColorMatrix in="SourceAlpha" type="matrix" values="0 0 0 0 0 0 0 0 0 0 0 0 0 0 0 0 0 0 127 0"/>
<feOffset/>
<feGaussianBlur stdDeviation="5"/>
<feColorMatrix type="matrix" values="0 0 0 0 1 0 0 0 0 1 0 0 0 0 1 0 0 0 0.75 0"/>
<feBlend mode="normal" in2="BackgroundImageFix" result="effect1_dropShadow"/>
<feBlend mode="normal" in="SourceGraphic" in2="effect1_dropShadow" result="shape"/>
</filter>
<filter id="filter27_d" x="301.71" y="503.915" width="31.8968" height="31.4038" filterUnits="userSpaceOnUse" color-interpolation-filters="sRGB">
<feFlood flood-opacity="0" result="BackgroundImageFix"/>
<feColorMatrix in="SourceAlpha" type="matrix" values="0 0 0 0 0 0 0 0 0 0 0 0 0 0 0 0 0 0 127 0"/>
<feOffset/>
<feGaussianBlur stdDeviation="5"/>
<feColorMatrix type="matrix" values="0 0 0 0 1 0 0 0 0 1 0 0 0 0 1 0 0 0 0.75 0"/>
<feBlend mode="normal" in2="BackgroundImageFix" result="effect1_dropShadow"/>
<feBlend mode="normal" in="SourceGraphic" in2="effect1_dropShadow" result="shape"/>
</filter>
<filter id="filter28_d" x="211.686" y="527.887" width="31.9009" height="31.2656" filterUnits="userSpaceOnUse" color-interpolation-filters="sRGB">
<feFlood flood-opacity="0" result="BackgroundImageFix"/>
<feColorMatrix in="SourceAlpha" type="matrix" values="0 0 0 0 0 0 0 0 0 0 0 0 0 0 0 0 0 0 127 0"/>
<feOffset/>
<feGaussianBlur stdDeviation="5"/>
<feColorMatrix type="matrix" values="0 0 0 0 1 0 0 0 0 1 0 0 0 0 1 0 0 0 0.75 0"/>
<feBlend mode="normal" in2="BackgroundImageFix" result="effect1_dropShadow"/>
<feBlend mode="normal" in="SourceGraphic" in2="effect1_dropShadow" result="shape"/>
</filter>
<filter id="filter29_d" x="272.444" y="511.984" width="32.3829" height="30.3086" filterUnits="userSpaceOnUse" color-interpolation-filters="sRGB">
<feFlood flood-opacity="0" result="BackgroundImageFix"/>
<feColorMatrix in="SourceAlpha" type="matrix" values="0 0 0 0 0 0 0 0 0 0 0 0 0 0 0 0 0 0 127 0"/>
<feOffset/>
<feGaussianBlur stdDeviation="5"/>
<feColorMatrix type="matrix" values="0 0 0 0 1 0 0 0 0 1 0 0 0 0 1 0 0 0 0.75 0"/>
<feBlend mode="normal" in2="BackgroundImageFix" result="effect1_dropShadow"/>
<feBlend mode="normal" in="SourceGraphic" in2="effect1_dropShadow" result="shape"/>
</filter>
<filter id="filter30_d" x="241.585" y="520.073" width="31.3606" height="30.3244" filterUnits="userSpaceOnUse" color-interpolation-filters="sRGB">
<feFlood flood-opacity="0" result="BackgroundImageFix"/>
<feColorMatrix in="SourceAlpha" type="matrix" values="0 0 0 0 0 0 0 0 0 0 0 0 0 0 0 0 0 0 127 0"/>
<feOffset/>
<feGaussianBlur stdDeviation="5"/>
<feColorMatrix type="matrix" values="0 0 0 0 1 0 0 0 0 1 0 0 0 0 1 0 0 0 0.75 0"/>
<feBlend mode="normal" in2="BackgroundImageFix" result="effect1_dropShadow"/>
<feBlend mode="normal" in="SourceGraphic" in2="effect1_dropShadow" result="shape"/>
</filter>
<filter id="filter31_d" x="181.154" y="535.471" width="30.6482" height="30.599" filterUnits="userSpaceOnUse" color-interpolation-filters="sRGB">
<feFlood flood-opacity="0" result="BackgroundImageFix"/>
<feColorMatrix in="SourceAlpha" type="matrix" values="0 0 0 0 0 0 0 0 0 0 0 0 0 0 0 0 0 0 127 0"/>
<feOffset/>
<feGaussianBlur stdDeviation="5"/>
<feColorMatrix type="matrix" values="0 0 0 0 1 0 0 0 0 1 0 0 0 0 1 0 0 0 0.75 0"/>
<feBlend mode="normal" in2="BackgroundImageFix" result="effect1_dropShadow"/>
<feBlend mode="normal" in="SourceGraphic" in2="effect1_dropShadow" result="shape"/>
</filter>
<filter id="filter32_d" x="147.004" y="483.22" width="116.693" height="48.0355" filterUnits="userSpaceOnUse" color-interpolation-filters="sRGB">
<feFlood flood-opacity="0" result="BackgroundImageFix"/>
<feColorMatrix in="SourceAlpha" type="matrix" values="0 0 0 0 0 0 0 0 0 0 0 0 0 0 0 0 0 0 127 0"/>
<feOffset/>
<feGaussianBlur stdDeviation="5"/>
<feColorMatrix type="matrix" values="0 0 0 0 1 0 0 0 0 1 0 0 0 0 1 0 0 0 0.75 0"/>
<feBlend mode="normal" in2="BackgroundImageFix" result="effect1_dropShadow"/>
<feBlend mode="normal" in="SourceGraphic" in2="effect1_dropShadow" result="shape"/>
</filter>
<filter id="filter33_d" x="85.3185" y="522.134" width="82.2636" height="37.8363" filterUnits="userSpaceOnUse" color-interpolation-filters="sRGB">
<feFlood flood-opacity="0" result="BackgroundImageFix"/>
<feColorMatrix in="SourceAlpha" type="matrix" values="0 0 0 0 0 0 0 0 0 0 0 0 0 0 0 0 0 0 127 0"/>
<feOffset/>
<feGaussianBlur stdDeviation="5"/>
<feColorMatrix type="matrix" values="0 0 0 0 1 0 0 0 0 1 0 0 0 0 1 0 0 0 0.75 0"/>
<feBlend mode="normal" in2="BackgroundImageFix" result="effect1_dropShadow"/>
<feBlend mode="normal" in="SourceGraphic" in2="effect1_dropShadow" result="shape"/>
</filter>
<filter id="filter34_d" x="87.4226" y="517.708" width="70.6478" height="35.0006" filterUnits="userSpaceOnUse" color-interpolation-filters="sRGB">
<feFlood flood-opacity="0" result="BackgroundImageFix"/>
<feColorMatrix in="SourceAlpha" type="matrix" values="0 0 0 0 0 0 0 0 0 0 0 0 0 0 0 0 0 0 127 0"/>
<feOffset/>
<feGaussianBlur stdDeviation="5"/>
<feColorMatrix type="matrix" values="0 0 0 0 1 0 0 0 0 1 0 0 0 0 1 0 0 0 0.75 0"/>
<feBlend mode="normal" in2="BackgroundImageFix" result="effect1_dropShadow"/>
<feBlend mode="normal" in="SourceGraphic" in2="effect1_dropShadow" result="shape"/>
</filter>
<filter id="filter35_d" x="88.552" y="512.577" width="62.1949" height="32.0329" filterUnits="userSpaceOnUse" color-interpolation-filters="sRGB">
<feFlood flood-opacity="0" result="BackgroundImageFix"/>
<feColorMatrix in="SourceAlpha" type="matrix" values="0 0 0 0 0 0 0 0 0 0 0 0 0 0 0 0 0 0 127 0"/>
<feOffset/>
<feGaussianBlur stdDeviation="5"/>
<feColorMatrix type="matrix" values="0 0 0 0 1 0 0 0 0 1 0 0 0 0 1 0 0 0 0.75 0"/>
<feBlend mode="normal" in2="BackgroundImageFix" result="effect1_dropShadow"/>
<feBlend mode="normal" in="SourceGraphic" in2="effect1_dropShadow" result="shape"/>
</filter>
<clipPath id="clip0">
<rect width="448" height="448" fill="white" transform="translate(470 73)"/>
</clipPath>
<clipPath id="clip1">
<rect width="281.246" height="281.246" fill="white" transform="translate(1026.38 415.053) rotate(-12.6677)"/>
</clipPath>
<clipPath id="clip2">
<rect width="433" height="433" fill="white" transform="translate(0 296)"/>
</clipPath>
</defs>
</svg>
