<svg width="319" height="453" viewBox="0 0 319 453" fill="none" xmlns="http://www.w3.org/2000/svg">
<g clip-path="url(#clip0)" filter="url(#filter0_d)">
<path d="M8.28485 251.334C10.5654 253.549 13.9133 254.199 17.0738 254.542C25.8439 255.495 34.7851 254.849 43.3274 252.646C47.9863 251.445 53.0184 249.342 54.8889 244.909C53.5706 245.37 52.282 245.912 50.9804 246.418C38.8693 251.13 25.5715 252.756 12.6819 251.1C11.2044 250.911 9.6294 250.693 8.28485 251.334V251.334Z" fill="#F053C2"/>
<path d="M49.4367 273.934C56.2585 274.926 63.0643 272.409 69.3997 269.691C77.7498 266.11 86.1682 261.909 92.0519 254.986C92.4602 254.505 92.8771 253.948 92.8383 253.319C92.7995 252.689 92.0183 252.127 91.5259 252.521C78.9676 262.568 63.9604 269.532 48.1798 272.634C47.7949 273.244 48.7231 273.83 49.4367 273.934V273.934Z" fill="#F053C2"/>
<path d="M44.3051 270.562C46.3663 270.914 48.314 269.545 49.8018 268.076C54.8751 263.065 57.7481 255.9 57.5425 248.772C57.5221 248.063 57.4365 247.276 56.9053 246.805C56.3741 246.334 55.2866 246.569 55.28 247.279C55.206 255.291 51.6908 263.214 45.7999 268.646C45.1966 269.202 44.5416 269.776 44.3051 270.562V270.562Z" fill="#F053C2"/>
<path d="M167.674 29.5833C165.417 30.0596 164.159 33.0813 165.41 35.019C166.661 36.9566 169.933 37.0523 171.296 35.1911C172.144 34.0324 172.193 32.3474 171.414 31.1412C170.635 29.935 169.079 29.2868 167.674 29.5833V29.5833Z" fill="#F053C2"/>
<path d="M17.3041 248.661C22.2137 246.408 26.9643 243.809 31.5091 240.889C35.145 238.553 38.9903 235.432 39.2622 231.119C39.3162 230.263 38.8523 229.105 38.0171 229.3C24.8178 232.386 10.8515 232.132 -2.22694 228.569C3.13519 226.594 8.09153 223.524 12.2488 219.604C16.2917 215.791 19.5766 211.197 23.8698 207.668C33.8961 199.428 48.2365 198.149 60.8618 201.155C73.487 204.161 84.8488 210.906 96.0424 217.474C107.236 224.042 118.731 230.62 131.443 233.233C135.529 234.073 139.874 234.472 143.795 233.048C144.418 232.822 145.08 232.497 145.334 231.885C145.587 231.273 145.091 230.387 144.447 230.545C139.618 231.729 134.519 230.897 129.732 229.556C117.63 226.168 106.682 219.65 95.8597 213.261C85.0379 206.871 74.0037 200.464 61.8323 197.335C49.6608 194.205 36.0009 194.717 25.4343 201.521C16.5627 207.233 10.643 216.78 1.62774 222.263C-2.23745 224.613 -6.57379 226.15 -10.3007 228.714C4.66106 235.006 21.669 236.316 37.4177 232.389C29.4506 239.251 20.4174 244.874 10.7422 248.992C12.5276 250.468 15.1991 249.627 17.3041 248.661V248.661Z" fill="#F053C2"/>
<path d="M0.64594 165.432C-10.8364 170.992 -20.3811 179.926 -28.5649 189.713C-53.4732 219.501 -66.979 258.594 -65.7708 297.405C-59.2665 290.809 -52.7622 284.213 -46.2579 277.618C-49.4925 286.259 -50.1898 295.833 -48.2416 304.852C-14.9747 280.62 33.659 279.988 67.544 303.348C66.2906 312.63 69.7056 322.424 76.4582 328.915C72.1624 343.796 69.1357 359.043 67.4218 374.437C66.9736 378.462 66.752 382.973 69.3425 386.086C71.5357 388.721 75.1433 389.601 78.4939 390.329C89.7355 392.774 100.977 395.219 112.218 397.664C109.459 420.154 106.7 442.644 103.941 465.135C103.272 470.584 102.669 476.425 105.217 481.288C107.764 486.15 114.81 488.991 118.917 485.348C114.572 483.315 110.227 481.281 105.883 479.247C110.959 452.747 114.534 425.959 116.585 399.055C126.046 399.969 135.767 400.957 144.224 405.296C152.682 409.635 159.696 418.166 159.353 427.665C161.387 417.692 154.826 407.557 146.16 402.22C137.494 396.884 127.108 395.299 117.038 393.825C118.621 373.411 119.472 352.94 119.587 332.465C127.326 329.387 132.37 320.64 131.158 312.401C164.219 305.649 193.904 283.873 210.273 254.366C226.642 224.859 229.403 188.146 217.631 156.523C206.028 125.356 180.923 97.6142 182.273 64.3852C182.511 58.5267 184.995 51.3238 190.836 50.814C193.045 50.6212 195.199 51.5149 197.159 52.5517C206.539 57.514 213.798 66.3417 216.854 76.5038C215.754 66.4837 209.687 57.1314 200.986 52.0424C195.782 48.9987 188.71 47.6364 184.003 51.4044C180.176 54.4681 179.203 59.8511 179.042 64.7506C177.833 101.466 206.033 132.053 216.897 167.145C226.299 197.513 221.926 231.862 205.214 258.906C188.503 285.95 159.739 305.227 128.372 310.403C128.759 315.955 128.9 322.229 125.043 326.242C121.186 330.255 112.215 328.133 112.933 322.613C114.214 312.771 104.23 303.189 94.4482 304.874C92.7926 313.831 88.2796 322.238 81.7287 328.567C90.0444 325.223 96.2563 317.138 97.3452 308.242C102.488 306.74 106.735 312.481 108.446 317.559C110.158 322.636 111.971 328.815 117.133 330.25C115.378 350.975 113.623 371.7 111.868 392.425C100.776 389.72 89.6831 387.015 78.5904 384.31C76.4355 383.784 74.0758 383.12 72.8624 381.263C71.6697 379.438 71.9751 377.054 72.3251 374.902C74.9027 359.057 77.4803 343.211 80.0579 327.366C69.5707 324.096 74.8402 305.728 66.0386 299.155C33.2069 274.637 -16.4621 276.032 -47.8655 302.355C-46.5014 293.71 -45.1372 285.065 -43.7731 276.42C-51.8064 279.754 -58.6777 285.818 -62.9854 293.374C-60.6253 260.472 -49.2609 228.26 -30.4523 201.16C-21.1927 187.819 -9.72931 175.381 5.07832 168.713C27.9167 158.429 55.0329 163.569 77.6179 174.398C100.203 185.227 119.844 201.264 141.418 213.989C152.259 220.384 165.077 226.093 177.077 222.295C187.625 218.957 194.837 208.787 197.786 198.123C203.737 176.597 195.072 153.646 183.21 134.723C171.347 115.801 156.131 98.8746 146.813 78.5782C141.875 67.8251 138.663 55.966 139.882 44.1967C141.102 32.4273 147.285 20.79 157.6 14.9934C167.916 9.19681 182.36 10.5687 190.031 19.578C197.309 28.1264 206.336 35.1318 213.035 44.1416C219.734 53.1514 223.9 65.2692 219.629 75.6522C224.331 66.8305 224.358 55.6804 219.7 46.8358C213.768 35.5736 201.524 29.0047 194.327 18.5065C183.981 3.4166 158.742 5.39169 146.809 19.261C134.876 33.1304 134.392 53.9409 140.161 71.3034C147.431 93.1817 162.958 111.124 175.808 130.266C188.658 149.407 199.371 172.197 195.015 194.837C193.613 202.126 190.439 209.399 184.589 213.969C177.675 219.371 167.999 220.146 159.495 217.986C150.99 215.826 143.398 211.085 136.09 206.229C115.447 192.513 95.569 177.197 72.7289 167.574C49.8887 157.952 22.9524 154.63 0.64594 165.432Z" fill="#F053C2"/>
</g>
<defs>
<filter id="filter0_d" x="-168" y="0" width="495" height="495" filterUnits="userSpaceOnUse" color-interpolation-filters="sRGB">
<feFlood flood-opacity="0" result="BackgroundImageFix"/>
<feColorMatrix in="SourceAlpha" type="matrix" values="0 0 0 0 0 0 0 0 0 0 0 0 0 0 0 0 0 0 127 0"/>
<feOffset/>
<feGaussianBlur stdDeviation="4"/>
<feColorMatrix type="matrix" values="0 0 0 0 1 0 0 0 0 1 0 0 0 0 1 0 0 0 0.75 0"/>
<feBlend mode="normal" in2="BackgroundImageFix" result="effect1_dropShadow"/>
<feBlend mode="normal" in="SourceGraphic" in2="effect1_dropShadow" result="shape"/>
</filter>
<clipPath id="clip0">
<rect width="479" height="479" fill="white" transform="matrix(-1 0 0 1 319 8)"/>
</clipPath>
</defs>
</svg>
