<svg width="218" height="146" viewBox="0 0 218 146" fill="none" xmlns="http://www.w3.org/2000/svg">
<g filter="url(#filter0_d)">
<path fill-rule="evenodd" clip-rule="evenodd" d="M168.332 112.288C177.139 101.396 182.414 87.5304 182.414 72.4327C182.414 37.3998 154.014 9 118.981 9C83.9481 9 55.5483 37.3998 55.5483 72.4327C55.5483 91.4465 63.914 108.506 77.1654 120.132C75.7913 121.147 74.6044 121.831 73.4843 122.205C60.0034 109.875 51.5483 92.1414 51.5483 72.4327C51.5483 35.1906 81.739 5 118.981 5C156.223 5 186.414 35.1906 186.414 72.4327C186.414 88.4069 180.859 103.084 171.576 114.637C170.39 113.565 169.316 112.801 168.332 112.288Z" fill="#95E71F"/>
</g>
<g filter="url(#filter1_d)">
<path fill-rule="evenodd" clip-rule="evenodd" d="M146.957 120.841C163.768 111.188 175.091 93.0563 175.091 72.2801C175.091 41.3759 150.038 16.323 119.134 16.323C88.2293 16.323 63.1764 41.3759 63.1764 72.2801C63.1764 89.4855 70.9416 104.877 83.1585 115.142C82.4983 115.655 81.8059 116.235 81.0767 116.884C80.7313 117.192 80.3968 117.487 80.0724 117.769C67.279 106.773 59.1764 90.4728 59.1764 72.2801C59.1764 39.1667 86.0201 12.323 119.134 12.323C152.247 12.323 179.091 39.1667 179.091 72.2801C179.091 87.2561 173.6 100.95 164.522 111.458C162.387 111.722 160.722 113.274 159.06 114.822C158.29 115.54 157.52 116.257 156.705 116.845C156.526 116.974 156.348 117.104 156.168 117.234C153.528 119.153 150.791 121.142 146.957 120.841Z" fill="#F053C2"/>
</g>
<g filter="url(#filter2_d)">
<rect x="43.0048" y="59.9225" width="150.427" height="33.5638" fill="#00E1FF"/>
</g>
<g filter="url(#filter3_d)">
<path d="M7 118.41C9.88575 114.946 17.5521 110.096 25.1312 118.41C34.6052 128.802 37.7088 121.651 42.2007 118.41C46.6927 115.169 51.2664 111.258 60.9037 118.41C70.541 125.562 72.1745 126.344 81.0767 118.41C89.979 110.476 93.4092 113.046 99.453 118.41" stroke="#00E1FF" stroke-width="3"/>
<path d="M191.906 118.37C189.02 121.834 181.354 126.684 173.775 118.37C164.301 107.978 161.197 115.13 156.705 118.37C152.213 121.611 147.64 125.522 138.002 118.37C128.365 111.218 126.732 110.436 117.829 118.37C108.927 126.304 105.497 123.734 99.453 118.37" stroke="#00E1FF" stroke-width="3"/>
</g>
<g filter="url(#filter4_d)">
<path d="M44.2253 131.836C47.111 128.371 54.7773 123.522 62.3565 131.836C71.8305 142.228 74.934 135.076 79.426 131.836C83.918 128.595 88.4916 124.684 98.129 131.836C107.766 138.987 109.4 139.77 118.302 131.836C127.204 123.902 130.635 126.472 136.678 131.836" stroke="#00E1FF" stroke-width="3"/>
<path d="M211 131.796C201.526 121.403 198.422 128.555 193.931 131.796C189.439 135.036 184.865 138.948 175.228 131.796C165.59 124.644 163.957 123.862 155.055 131.796C146.152 139.73 142.722 137.16 136.678 131.796" stroke="#00E1FF" stroke-width="3"/>
</g>
<g clip-path="url(#clip0)">
<path d="M146.994 75.8848C146.995 75.7449 146.998 75.6403 147.015 75.553C147.03 75.4699 147.052 75.4365 147.064 75.4223C147.078 75.4064 147.113 75.3782 147.211 75.3569C147.313 75.3345 147.439 75.3291 147.599 75.3291L155.687 75.3295C155.695 75.3381 155.709 75.3554 155.728 75.3882C155.786 75.4888 155.832 75.6476 155.854 75.8166C155.982 76.8406 156.008 77.8774 155.93 78.9065C155.927 78.9464 155.924 78.9792 155.92 79.0084C155.917 79.0257 155.915 79.0399 155.912 79.0516C155.899 79.0534 155.882 79.055 155.862 79.0562C155.83 79.0579 155.795 79.0584 155.752 79.0584L147.425 79.056C147.282 79.056 147.175 79.0498 147.094 79.0301C147.056 79.0211 147.035 79.0114 147.024 79.0053C147.019 79.0024 147.016 79.0004 147.016 78.9998C147.016 78.9997 147.015 78.9996 147.015 78.9995C147.014 78.9967 147.006 78.9811 146.999 78.9389C146.989 78.8823 146.987 78.8128 146.988 78.708L146.994 75.8848ZM155.677 75.3222C155.677 75.3216 155.679 75.3225 155.684 75.3267C155.679 75.3249 155.677 75.3228 155.677 75.3222Z" fill="#F053C2" stroke="white"/>
<path d="M169.878 82.2747L169.574 82.5438L169.775 82.8962C169.941 83.1878 170.212 83.3222 170.437 83.3846C170.657 83.4456 170.884 83.4529 171.05 83.4528L184.746 83.4442C184.798 83.4442 184.881 83.458 184.975 83.6803C185.071 83.9051 185.114 84.225 185.107 84.5213L185.078 85.8542L185.049 87.1575L173.188 87.1573L161.305 87.157C161.164 87.157 161.056 87.1484 160.979 87.127C160.956 87.1206 160.941 87.1147 160.933 87.1106C160.932 87.106 160.931 87.1 160.93 87.0924C160.925 87.0567 160.924 87.013 160.923 86.9379L160.897 83.48C160.895 83.1195 160.907 82.7776 160.976 82.4831C161.044 82.1934 161.157 81.996 161.323 81.8709C167.132 77.4961 172.786 72.9162 178.272 68.1427L179.291 67.2558L177.94 67.2655L167.703 67.3385L167.695 67.3386C166.754 67.3453 165.684 67.3529 164.692 67.7279C164.15 67.9329 163.416 68.3765 163.271 69.1781C163.185 69.6501 163.409 70.0937 163.699 70.3594C163.99 70.6258 164.498 70.8327 164.987 70.5348C165.356 70.3098 165.846 70.3229 166.309 70.5605C166.773 70.7988 167.126 71.2234 167.222 71.6869C167.425 72.6765 166.735 73.7981 165.707 74.255C164.683 74.7099 163.432 74.5949 162.299 74.145C161.877 73.9779 161.498 73.7788 161.191 73.5142C160.273 72.7228 159.987 71.315 160.149 69.9447C160.524 66.7625 163.055 63.9316 166.176 63.2048C167.353 62.9308 168.583 62.927 169.867 62.9267L184.471 62.9237C184.905 62.9236 185.232 62.9323 185.509 63.0478C185.781 63.1614 185.915 63.3766 185.914 63.5182L185.875 67.0723C185.873 67.2834 185.79 67.4976 185.627 67.7317C185.462 67.9697 185.236 68.1961 184.986 68.4322C180.025 73.1267 174.987 77.7417 169.878 82.2747ZM160.923 87.1042C160.923 87.1041 160.924 87.1047 160.925 87.1062C160.923 87.1049 160.923 87.1042 160.923 87.1042Z" fill="#F053C2" stroke="white"/>
<path d="M63.5211 84.1652L63.7798 84.0234L63.7807 83.7283L63.7965 78.2337C63.799 77.3916 63.2857 76.6845 62.919 76.1794L58.5271 70.1297L58.5151 70.1132C58.2413 69.736 57.8959 69.2602 57.3982 68.9458C56.727 68.5219 55.9083 68.5309 55.2368 68.797C54.5653 69.0631 53.9627 69.6172 53.764 70.3858C53.7045 70.6161 53.7326 70.8808 53.8301 71.0895C53.88 71.1963 53.9697 71.3343 54.1251 71.4278C54.3021 71.5343 54.513 71.551 54.7086 71.4751C55.2457 71.267 55.8714 71.3294 56.4301 71.612C56.9895 71.8949 57.4376 72.3773 57.6291 72.9415C58.0232 74.1025 57.4422 75.5347 56.3516 76.2056C55.2639 76.8747 53.768 76.8219 52.6214 76.1531C51.4762 75.4851 50.6716 74.2639 50.3584 72.9267C49.6689 69.9833 51.5869 66.64 54.4757 65.7494C55.6815 65.3777 56.9807 65.3831 58.3463 65.3968L67.1523 65.4854C67.2397 65.4862 67.2978 65.4877 67.3483 65.4942C67.3958 65.5003 67.4157 65.5087 67.4224 65.5122L67.6526 65.0683L67.4224 65.5122C67.4323 65.5173 67.4633 65.5367 67.5026 65.6248C67.544 65.7174 67.5737 65.8388 67.6036 65.9953C67.7138 66.5714 67.7818 67.0223 67.6494 67.4101C67.5945 67.5709 67.4745 67.7261 67.3306 67.8218C67.1889 67.916 67.0681 67.9272 66.9803 67.8989C66.5618 67.7638 66.1866 67.943 65.9563 68.1679C65.7282 68.3908 65.5694 68.72 65.5695 69.0676C65.5698 69.6447 65.915 70.1197 66.1332 70.42L66.1439 70.4347C66.3123 70.6666 66.5689 70.9265 66.8663 71.0822C67.0171 71.1611 67.2074 71.2284 67.4189 71.225C67.6449 71.2214 67.8645 71.1367 68.0424 70.9626C71.4283 67.6487 75.3159 64.7854 79.7493 63.296C84.1825 61.8066 89.2085 61.8137 93.2903 63.9626C94.1133 64.3959 94.8887 64.9094 95.5799 65.514L95.9091 65.1377L95.5799 65.514C95.978 65.8622 96.3109 66.2125 96.5144 66.6149L96.9606 66.3892L96.5144 66.6149C96.8006 67.1808 96.765 67.8905 96.4627 68.514C96.1603 69.1375 95.6251 69.6049 95.0034 69.7305C94.3818 69.8561 93.707 69.6333 93.1863 69.1762C92.6655 68.7191 92.357 68.079 92.401 67.4463C92.4721 66.4229 91.6924 65.5911 90.8788 65.2623L90.6914 65.7259L90.8788 65.2623C90.0655 64.9336 89.1841 64.9889 88.4405 65.0805C84.9761 65.5072 81.7269 66.9735 78.8421 68.846C75.9606 70.7164 73.3863 73.0051 70.8568 75.2542C70.4737 75.5948 70.2874 76.0388 70.194 76.4648C70.1016 76.8862 70.0919 77.3289 70.0915 77.7024L70.0861 82.5257C70.0861 82.5333 70.0861 82.541 70.0861 82.5488C70.0856 82.8322 70.0849 83.2746 70.3031 83.6625C70.4321 83.8916 70.6404 84.0774 70.879 84.1808C71.12 84.2852 71.4381 84.322 71.7393 84.1641C71.8544 84.1037 72.0156 84.099 72.2085 84.1939C72.4038 84.29 72.5758 84.4653 72.6632 84.6571C72.8702 85.1111 72.8283 85.6632 72.7503 86.3431C72.7123 86.6737 72.673 86.829 72.5932 86.9176C72.5492 86.9665 72.4744 87.012 72.3338 87.0424C72.1886 87.0739 72.0165 87.0803 71.8123 87.0802L66.5411 87.0776L61.2699 87.0749C61.0852 87.0748 60.9326 87.0667 60.8103 87.0367C60.693 87.0079 60.6512 86.9704 60.6328 86.9452C60.5943 86.8926 60.5731 86.7916 60.5713 86.5109L60.5628 85.1711C60.5608 84.8666 60.5739 84.7069 60.6365 84.5947C60.6918 84.4958 60.7649 84.4419 60.8979 84.4072C61.0553 84.3662 61.2651 84.362 61.5548 84.3768C61.6186 84.38 61.6875 84.3843 61.7597 84.3888C61.9844 84.4029 62.2419 84.4189 62.483 84.412C62.8105 84.4026 63.1809 84.3518 63.5211 84.1652Z" fill="#F053C2" stroke="white"/>
<path d="M116.907 72.311L117.034 72.8764L117.575 72.6676C119.163 72.0541 120.779 71.5835 122.396 71.643C124.011 71.7025 125.612 72.3616 126.508 73.596C127.356 74.7637 127.493 76.1892 127.441 77.8138C127.426 78.2807 127.398 78.7307 127.369 79.1907C127.346 79.5524 127.323 79.9202 127.305 80.3071C127.267 81.1536 127.262 82.0199 127.38 82.867C127.463 83.4632 127.667 84.3064 128.366 84.7575C128.89 85.0958 129.497 85.0749 130 84.8842C130.5 84.6944 130.952 84.32 131.225 83.8501C131.731 82.9765 131.718 81.936 131.707 81.1106L131.632 75.6798C131.627 75.265 131.52 74.7583 131.295 74.364C131.181 74.1653 131.017 73.9603 130.785 73.8284C130.536 73.6868 130.244 73.6507 129.944 73.7467C129.64 73.8438 129.283 73.7047 129.011 73.3129C128.738 72.9206 128.671 72.4318 128.842 72.0845C129.041 71.6826 129.422 71.3941 129.911 71.2433C130.403 71.0919 130.969 71.0923 131.467 71.2418L132.085 71.4277L132.11 70.7826L132.111 70.7721L132.111 70.7615L132.112 70.7509L132.112 70.7403L132.112 70.7297L132.113 70.7191L132.113 70.7085L132.114 70.6979L132.114 70.6873L132.114 70.6767L132.115 70.6661L132.115 70.6555L132.116 70.645L132.116 70.6344L132.117 70.6238L132.117 70.6132L132.117 70.6026L132.118 70.592L132.118 70.5814L132.119 70.5708L132.119 70.5602L132.119 70.5496L132.12 70.539L132.12 70.5284L132.121 70.5179L132.121 70.5073L132.121 70.4967L132.122 70.4861L132.122 70.4755L132.123 70.4649L132.123 70.4543L132.124 70.4437L132.124 70.4331L132.124 70.4225L132.125 70.4119L132.125 70.4013L132.126 70.3908L132.126 70.3802L132.126 70.3696L132.127 70.359L132.127 70.3484L132.128 70.3378L132.128 70.3272L132.129 70.3166L132.129 70.306L132.129 70.2954L132.13 70.2848L132.13 70.2742L132.131 70.2637L132.131 70.2531L132.131 70.2425L132.132 70.2319L132.132 70.2213L132.133 70.2107L132.133 70.2001L132.134 70.1895L132.134 70.1789L132.134 70.1683L132.135 70.1577L132.135 70.1472L132.136 70.1366L132.136 70.126L132.136 70.1154L132.137 70.1048L132.137 70.0942L132.138 70.0836L132.138 70.073L132.139 70.0624L132.139 70.0518L132.139 70.0412L132.14 70.0306L132.14 70.0201L132.141 70.0095L132.141 69.9989L132.141 69.9883L132.142 69.9777L132.142 69.9671L132.143 69.9565L132.143 69.9459L132.144 69.9353L132.144 69.9247L132.144 69.9141L132.145 69.9035L132.145 69.893L132.146 69.8824L132.146 69.8718L132.146 69.8612L132.147 69.8506L132.147 69.84L132.148 69.8294L132.148 69.8188L132.149 69.8082L132.149 69.7976L132.149 69.787L132.15 69.7764L132.15 69.7659L132.151 69.7553L132.151 69.7447L132.151 69.7341L132.152 69.7235L132.152 69.7129L132.153 69.7023L132.153 69.6917L132.154 69.6811L132.154 69.6705L132.154 69.6599L132.155 69.6493L132.155 69.6388L132.156 69.6282L132.156 69.6176L132.156 69.607L132.157 69.5964L132.157 69.5858L132.158 69.5752L132.158 69.5646L132.159 69.554L132.159 69.5434L132.159 69.5328L132.16 69.5222L132.16 69.5117L132.161 69.5011L132.161 69.4905L132.161 69.4799L132.162 69.4693L132.162 69.4587L132.163 69.4481L132.163 69.4375L132.164 69.4269L132.164 69.4163L132.164 69.4057L132.165 69.3951L132.165 69.3846L132.166 69.374L132.166 69.3634L132.166 69.3528L132.167 69.3422L132.167 69.3316L132.168 69.321L132.168 69.3104L132.169 69.2998L132.169 69.2892L132.169 69.2786L132.17 69.268L132.17 69.2575L132.171 69.2469L132.171 69.2363L132.171 69.2257L132.172 69.2151L132.172 69.2045L132.173 69.1939L132.173 69.1833L132.174 69.1727L132.174 69.1621L132.174 69.1515L132.175 69.1409L132.175 69.1304L132.176 69.1198L132.176 69.1092L132.176 69.0986L132.177 69.088L132.177 69.0774L132.178 69.0668L132.178 69.0562L132.179 69.0456L132.179 69.035L132.179 69.0244L132.18 69.0138L132.18 69.0033L132.181 68.9927L132.181 68.9821L132.181 68.9715L132.182 68.9609L132.182 68.9503L132.183 68.9397L132.183 68.9291L132.184 68.9185L132.184 68.9079L132.184 68.8973L132.185 68.8867L132.185 68.8762L132.186 68.8656L132.186 68.855L132.186 68.8444L132.187 68.8338L132.187 68.8232L132.188 68.8126L132.188 68.802L132.189 68.7914L132.189 68.7808L132.189 68.7702L132.19 68.7596L132.19 68.7491L132.191 68.7385L132.191 68.7279L132.191 68.7173L132.192 68.7067L132.192 68.6961L132.193 68.6855L132.193 68.6749L132.194 68.6643L132.194 68.6537L132.194 68.6431L132.195 68.6325L132.195 68.622L132.196 68.6114L132.196 68.6008L132.196 68.5902L132.197 68.5796L132.197 68.569L132.198 68.5584L132.198 68.5478L132.199 68.5372L132.199 68.5266L132.199 68.516L132.2 68.5054L132.2 68.4949L132.201 68.4843L132.201 68.4737L132.201 68.4631L132.202 68.4525L132.202 68.4419L132.203 68.4313L132.203 68.4207L132.204 68.4101L132.204 68.3995L132.204 68.3889L132.205 68.3783L132.205 68.3678L132.206 68.3572L132.206 68.3466L132.206 68.336L132.207 68.3254L132.207 68.3148L132.208 68.3042L132.208 68.2936L132.209 68.283L132.209 68.2724L132.209 68.2618L132.21 68.2512L132.21 68.2407L132.211 68.2301L132.211 68.2195L132.211 68.2089L132.212 68.1983L132.212 68.1877L132.213 68.1771L132.213 68.1665L132.214 68.1559L132.214 68.1453L132.214 68.1347L132.215 68.1242L132.215 68.1136L132.216 68.103L132.216 68.0924L132.216 68.0818L132.217 68.0712L132.217 68.0606L132.218 68.05L132.218 68.0394L132.219 68.0288L132.219 68.0182L132.219 68.0076L132.22 67.9971L132.22 67.9865L132.221 67.9759L132.221 67.9653L132.221 67.9547L132.222 67.9441L132.222 67.9335L132.223 67.9229L132.223 67.9123L132.224 67.9017L132.224 67.8911L132.224 67.8805L132.225 67.87L132.225 67.8594L132.226 67.8488L132.226 67.8382L132.226 67.8276L132.227 67.817L132.227 67.8064L132.228 67.7958L132.228 67.7852L132.228 67.7746L132.229 67.764L132.229 67.7534L132.23 67.7429L132.23 67.7323L132.231 67.7217L132.231 67.7111L132.231 67.7005L132.232 67.6899L132.232 67.6793L132.233 67.6687L132.233 67.6581L132.233 67.6475L132.234 67.6369L132.234 67.6263L132.235 67.6158L132.235 67.6052L132.236 67.5946L132.236 67.584L132.236 67.5734L132.237 67.5628L132.237 67.5522L132.238 67.5416L132.238 67.531L132.238 67.5204L132.239 67.5098L132.239 67.4992L132.24 67.4887L132.24 67.4781L132.241 67.4675L132.241 67.4569L132.241 67.4463L132.242 67.4357L132.242 67.4251L132.243 67.4145L132.243 67.4039L132.243 67.3933L132.244 67.3827L132.244 67.3721L132.245 67.3616L132.245 67.351L132.246 67.3404L132.246 67.3298L132.246 67.3192L132.247 67.3086L132.247 67.298L132.248 67.2874L132.248 67.2768L132.248 67.2662L132.249 67.2556L132.249 67.245L132.25 67.2345L132.25 67.2239L132.251 67.2133L132.251 67.2027L132.251 67.1921L132.252 67.1815L132.252 67.1709L132.253 67.1603L132.253 67.1497L132.253 67.1391L132.254 67.1285L132.254 67.1179L132.255 67.1074L132.255 67.0968L132.256 67.0862L132.256 67.0756L132.256 67.065L132.257 67.0544L132.257 67.0438L132.258 67.0332L132.258 67.0226L132.258 67.012L132.259 67.0014L132.259 66.9908L132.26 66.9803L132.26 66.9697L132.261 66.9591L132.261 66.9485L132.261 66.9379L132.262 66.9273L132.262 66.9167L132.263 66.9061L132.263 66.8955L132.263 66.8849L132.264 66.8743L132.264 66.8637L132.265 66.8532L132.265 66.8426L132.266 66.832L132.266 66.8214L132.266 66.8108L132.267 66.8002L132.267 66.7896L132.268 66.779L132.268 66.7684L132.268 66.7578L132.269 66.7472L132.269 66.7366L132.27 66.7261L132.27 66.7155L132.271 66.7049L132.271 66.6943L132.271 66.6837L132.272 66.6731L132.272 66.6625L132.273 66.6519L132.273 66.6413L132.273 66.6307L132.274 66.6201L132.274 66.6095L132.275 66.599L132.275 66.5884L132.276 66.5778L132.276 66.5672L132.276 66.5566L132.277 66.546L132.277 66.5354L132.278 66.5248L132.278 66.5142L132.278 66.5036L132.279 66.493L132.279 66.4824L132.28 66.4719L132.28 66.4613L132.281 66.4507L132.281 66.4401L132.281 66.4295L132.282 66.4189L132.282 66.4083L132.283 66.3977L132.283 66.3871L132.283 66.3765L132.284 66.3659L132.284 66.3553L132.285 66.3448L132.285 66.3342L132.286 66.3236L132.286 66.313L132.286 66.3024L132.287 66.2918L132.287 66.2812L132.288 66.2706L132.288 66.26L132.288 66.2494L132.289 66.2388L132.289 66.2283L132.29 66.2177L132.29 66.2071L132.291 66.1965L132.291 66.1859L132.291 66.1753L132.292 66.1647L132.292 66.1541L132.293 66.1435L132.293 66.1329L132.293 66.1223L132.294 66.1117L132.294 66.1012L132.295 66.0906L132.295 66.08L132.296 66.0694L132.296 66.0588L132.296 66.0482L132.297 66.0376L132.297 66.027L132.298 66.0164L132.298 66.0058L132.298 65.9952L132.299 65.9846L132.299 65.9741L132.3 65.9635L132.3 65.9529L132.301 65.9423L132.301 65.9317L132.301 65.9211L132.302 65.9105L132.302 65.8999L132.303 65.8893L132.303 65.8787L132.303 65.8681L132.304 65.8575L132.304 65.847L132.305 65.8364L132.305 65.8258L132.306 65.8152L132.306 65.8046L132.306 65.794L132.307 65.7834L132.307 65.7728L132.308 65.7622L132.308 65.7516L132.308 65.741L132.309 65.7304L132.309 65.7199L132.31 65.7093L132.31 65.6987L132.311 65.6881L132.311 65.6775L132.311 65.6669L132.312 65.6563L132.312 65.6457L132.313 65.6351L132.313 65.6245L132.313 65.6139L132.314 65.6033L132.314 65.5928L132.315 65.5822L132.315 65.5716L132.316 65.561L132.316 65.5504L132.316 65.5398L132.317 65.5292L132.317 65.5186L132.318 65.508L132.318 65.4974L132.318 65.4868L132.319 65.4762L132.319 65.4657L132.32 65.4551L132.32 65.4445L132.321 65.4339L132.321 65.4233L132.321 65.4127L132.322 65.4021L132.322 65.3915L132.323 65.3809L132.323 65.3703L132.323 65.3597C132.329 65.2098 132.338 65.095 132.36 64.9993C132.381 64.9078 132.407 64.8686 132.426 64.8498L132.071 64.4979L132.426 64.8498C132.444 64.8313 132.482 64.805 132.571 64.7829C132.663 64.7598 132.774 64.7496 132.919 64.7419C134.28 64.6691 135.644 64.6628 137.005 64.723C137.127 64.7284 137.215 64.7354 137.287 64.7517C137.355 64.7671 137.379 64.7847 137.387 64.7914C137.395 64.799 137.419 64.8249 137.438 64.9132C137.458 65.0061 137.462 65.1218 137.461 65.2729L137.425 70.9513L137.421 71.5638L138.022 71.445C139.188 71.2144 140.247 71.0586 141.084 71.5077C141.443 71.7005 141.728 72.1137 141.818 72.5534C141.908 72.9907 141.788 73.3216 141.532 73.4913C141.333 73.6233 141.079 73.6681 140.73 73.6502C140.556 73.6413 140.374 73.6179 140.175 73.5891C140.134 73.5832 140.092 73.577 140.049 73.5707C139.891 73.5474 139.722 73.5224 139.559 73.5048C139.088 73.4541 138.541 73.5261 138.091 73.7435C137.638 73.9627 137.2 74.3812 137.192 75.0325L137.15 78.4003L137.109 81.7681C137.105 82.0448 137.108 82.3853 137.177 82.713C137.247 83.0453 137.392 83.4051 137.706 83.6822C138.104 84.0343 138.597 84.1024 139.031 84.0499C139.461 83.9978 139.879 83.8243 140.216 83.6256C140.359 83.5417 140.481 83.4646 140.595 83.392C140.762 83.2862 140.914 83.1901 141.092 83.0966C141.364 82.954 141.597 82.8786 141.823 82.8815C142.168 82.8859 142.489 83.1106 142.697 83.5153C142.906 83.9221 142.949 84.4235 142.797 84.8173C142.459 85.6915 141.525 86.2808 140.457 86.6385C138.071 87.4379 135.358 87.2222 133.128 86.0558C132.731 85.8481 132.324 85.8799 131.994 85.9626C131.727 86.0296 131.457 86.146 131.242 86.2385C131.202 86.2559 131.163 86.2726 131.127 86.2878C130.024 86.7528 128.82 86.8184 127.52 86.7816C127.168 86.7716 126.804 86.7536 126.435 86.7353C125.474 86.6878 124.469 86.638 123.5 86.7208C123.287 86.739 123.088 86.7611 122.896 86.7824C122.583 86.8174 122.287 86.8503 121.974 86.8609C121.496 86.8773 121.077 86.8327 120.705 86.6682C120.391 86.5295 120.117 86.1931 120.01 85.8237C119.905 85.4567 119.994 85.2049 120.179 85.0753C120.785 84.6485 121.097 84.0206 121.261 83.3872C121.424 82.7587 121.453 82.0793 121.46 81.4924L121.499 78.0492C121.505 77.4776 121.469 76.7924 121.276 76.1843C121.082 75.5713 120.704 74.9674 119.987 74.6994C119.401 74.4807 118.802 74.5947 118.316 74.8591C117.832 75.1223 117.423 75.5526 117.184 76.0483C116.732 76.9836 116.777 78.0469 116.814 78.917L116.883 80.5324L116.953 82.1478C116.97 82.5481 117.016 83.0364 117.17 83.4757C117.303 83.8518 117.531 84.2354 117.927 84.477C118.084 85.0217 118.188 85.4886 118.11 85.9303C118.071 86.1512 117.96 86.3715 117.809 86.5305C117.659 86.6878 117.495 86.7606 117.341 86.7609L113.586 86.7684L109.83 86.7759C109.482 86.7766 109.127 86.5992 108.865 86.3001C108.604 86.0009 108.477 85.6248 108.524 85.2799C108.572 84.9349 108.797 84.6077 109.13 84.3908C109.463 84.1738 109.853 84.0998 110.188 84.1951L110.744 84.3535L110.82 83.7801C110.941 82.8737 110.913 81.9483 110.739 81.0507L110.492 79.7733L109.82 80.8876C108.201 83.5734 105.782 85.8331 102.847 86.7122C99.9111 87.5919 96.4619 86.8741 94.514 84.6112L94.2209 84.2708L93.8511 84.5259C92.572 85.4083 91.3403 86.2479 89.9526 86.6657C88.5708 87.0818 87.0397 86.9978 85.9748 86.2019C85.9362 86.1731 85.8936 86.1403 85.8478 86.105C85.6644 85.9638 85.429 85.7827 85.1931 85.6562C84.8838 85.4904 84.461 85.3533 84.0021 85.5308C81.9441 86.3272 79.911 87.0631 77.894 86.7805C76.9173 86.6437 75.9437 86.164 75.2389 85.4754C74.5359 84.7886 74.1306 83.9277 74.1975 83.019C74.3159 81.4074 75.8089 80.1312 77.5066 79.3427C79.0053 78.6466 80.6231 78.2069 82.268 78.0484C83.128 77.9656 83.7471 77.3301 84.0288 76.6337C84.3104 75.9374 84.308 75.0507 83.7686 74.386C83.2347 73.7279 82.3876 73.5259 81.645 73.6359C80.9026 73.7458 80.1504 74.1837 79.814 74.9529C79.3325 76.0536 78.2484 76.8746 77.1275 76.8755C76.5853 76.876 76.0311 76.6456 75.6126 76.2652C75.195 75.8856 74.9453 75.3884 74.9473 74.8774C74.9496 74.2571 75.2586 73.704 75.7845 73.2185C76.3131 72.7306 77.0281 72.3446 77.7412 72.0795C80.3961 71.0923 83.3383 70.8866 86.1047 71.4949C86.9743 71.6861 87.7779 71.9536 88.3955 72.4521C89.7609 73.5541 90.0362 75.6051 89.9202 77.614C89.9022 77.9265 89.8777 78.2507 89.8527 78.5811C89.8 79.2778 89.7453 80.002 89.7448 80.7017C89.7439 81.7506 89.861 82.8213 90.2995 83.8377L90.4272 84.1338L90.7497 84.1396C91.3132 84.1497 91.7662 83.8512 92.0652 83.4786C92.3624 83.1083 92.5428 82.6272 92.5689 82.1572C92.5935 81.7157 92.5169 81.2983 92.4213 80.9196C92.3752 80.7373 92.3228 80.5569 92.2733 80.3862L92.2675 80.3665C92.2154 80.1869 92.1666 80.0177 92.125 79.8499C91.3869 76.8668 93.0349 73.5111 95.7474 71.9425C98.457 70.3756 101.998 70.4861 104.847 71.9107C106.139 72.5564 107.265 73.4913 107.63 74.7244C107.831 75.3996 107.732 76.1706 107.396 76.8204C107.06 77.4692 106.511 77.9534 105.853 78.1131C105.218 78.2674 104.5 78.0443 103.961 77.5744C103.423 77.105 103.142 76.461 103.259 75.846C103.381 75.2029 103.117 74.609 102.719 74.197C102.322 73.7864 101.749 73.5051 101.143 73.5029C99.9906 73.4987 99.0367 74.3164 98.5526 75.2211C98.07 76.1231 97.9522 77.1458 97.8797 78.0522C97.7953 79.106 97.8285 80.318 98.1457 81.3857C98.4641 82.4577 99.0896 83.4427 100.225 83.9104C101.28 84.3452 102.35 84.151 103.293 83.7079C104.233 83.2666 105.095 82.5577 105.793 81.8693C107.24 80.4426 108.572 78.9002 109.773 77.2616C110.189 76.6939 110.635 76.0537 110.895 75.3136C111.141 74.611 111.198 73.8899 111.212 73.2075C111.217 72.9575 111.217 72.719 111.217 72.4868C111.217 72.0586 111.217 71.6517 111.25 71.2331C111.489 68.2618 113.571 65.5718 116.281 64.1811C118.989 62.7911 122.23 62.5909 125.277 63.1898C126.312 63.3934 127.278 63.6867 128.005 64.2869C128.732 64.8867 129.134 65.8285 128.914 66.6144C128.707 67.3541 127.94 67.9294 127.098 68.0163C126.258 68.1029 125.374 67.7608 124.666 67.1797C124.479 67.0268 124.31 66.8652 124.126 66.6896C124.05 66.6174 123.972 66.5429 123.889 66.4655C123.618 66.2122 123.311 65.9455 122.948 65.7352C121.208 64.7273 118.919 65.5198 117.788 67.0294C116.652 68.5443 116.514 70.5672 116.907 72.311ZM84.2138 80.623C84.2153 80.4126 84.1354 80.2263 83.9997 80.0872C83.8748 79.9592 83.7236 79.8916 83.5979 79.8553C83.3512 79.784 83.0767 79.796 82.8617 79.849C82.1927 80.0139 81.4463 80.3116 80.9212 80.9129C80.3975 81.5126 80.1308 82.4951 80.5925 83.2918C80.6894 83.4589 80.8341 83.5431 80.9387 83.5851C81.0392 83.6254 81.1363 83.6403 81.1887 83.6476C81.8933 83.7454 82.6149 83.7159 83.3093 83.561L83.3135 83.5601C83.4456 83.5306 83.7455 83.4638 83.957 83.2217C84.1993 82.9444 84.2005 82.5809 84.201 82.4295C84.201 82.4226 84.201 82.4161 84.2011 82.41L84.2138 80.623Z" fill="#F053C2" stroke="white"/>
<g filter="url(#filter5_d)">
<path d="M76.319 49.0921L76.4557 50.0296L76.6559 49.1848L78.0622 44.2239H78.8532L80.2253 49.1848L80.4206 50.0442L80.572 49.0872L81.6755 44.2239H82.6179L80.8942 51.3333H80.0397L78.5749 46.1526L78.4626 45.6106L78.3503 46.1526L76.8317 51.3333H75.9772L74.2585 44.2239H75.196L76.319 49.0921ZM90.6813 48.0471H87.6003V50.5667H91.1794V51.3333H86.6628V44.2239H91.1305V44.9954H87.6003V47.2805H90.6813V48.0471ZM96.2887 50.5667H99.6579V51.3333H95.3464V44.2239H96.2887V50.5667ZM108.634 49.0774C108.547 49.8294 108.268 50.4104 107.799 50.8206C107.334 51.2275 106.714 51.4309 105.939 51.4309C105.099 51.4309 104.425 51.1298 103.918 50.5276C103.413 49.9254 103.161 49.1197 103.161 48.1106V47.427C103.161 46.7662 103.278 46.1852 103.512 45.6839C103.75 45.1826 104.085 44.7985 104.518 44.5315C104.951 44.2613 105.452 44.1263 106.022 44.1263C106.777 44.1263 107.383 44.3378 107.839 44.761C108.294 45.1809 108.56 45.7636 108.634 46.5091H107.692C107.611 45.9427 107.433 45.5325 107.16 45.2786C106.89 45.0247 106.51 44.8977 106.022 44.8977C105.423 44.8977 104.953 45.1191 104.611 45.5618C104.272 46.0045 104.103 46.6344 104.103 47.4514V48.1399C104.103 48.9114 104.264 49.525 104.587 49.9807C104.909 50.4365 105.36 50.6643 105.939 50.6643C106.46 50.6643 106.859 50.5471 107.135 50.3128C107.415 50.0751 107.601 49.6634 107.692 49.0774H108.634ZM118.387 48.0081C118.387 48.7047 118.27 49.3134 118.036 49.8343C117.801 50.3518 117.469 50.7473 117.04 51.0208C116.61 51.2942 116.109 51.4309 115.536 51.4309C114.976 51.4309 114.48 51.2942 114.047 51.0208C113.614 50.7441 113.277 50.3518 113.036 49.844C112.798 49.333 112.676 48.7421 112.67 48.0716V47.5589C112.67 46.8753 112.788 46.2714 113.026 45.7473C113.264 45.2233 113.599 44.8229 114.032 44.5462C114.468 44.2662 114.966 44.1263 115.526 44.1263C116.096 44.1263 116.597 44.2646 117.03 44.5413C117.466 44.8147 117.801 45.2135 118.036 45.7376C118.27 46.2584 118.387 46.8655 118.387 47.5589V48.0081ZM117.455 47.5491C117.455 46.706 117.285 46.0598 116.947 45.6106C116.608 45.1582 116.135 44.9319 115.526 44.9319C114.934 44.9319 114.466 45.1582 114.125 45.6106C113.786 46.0598 113.612 46.6848 113.602 47.4856V48.0081C113.602 48.8251 113.773 49.468 114.115 49.9368C114.46 50.4023 114.934 50.635 115.536 50.635C116.141 50.635 116.61 50.4153 116.942 49.9759C117.274 49.5332 117.445 48.9 117.455 48.0764V47.5491ZM124.005 44.2239L126.329 50.0247L128.653 44.2239H129.869V51.3333H128.931V48.5647L129.019 45.5764L126.685 51.3333H125.967L123.638 45.5911L123.731 48.5647V51.3333H122.794V44.2239H124.005ZM138.543 48.0471H135.462V50.5667H139.041V51.3333H134.524V44.2239H138.992V44.9954H135.462V47.2805H138.543V48.0471ZM153.405 44.9954H151.12V51.3333H150.187V44.9954H147.907V44.2239H153.405V44.9954ZM162.792 48.0081C162.792 48.7047 162.674 49.3134 162.44 49.8343C162.206 50.3518 161.874 50.7473 161.444 51.0208C161.014 51.2942 160.513 51.4309 159.94 51.4309C159.38 51.4309 158.884 51.2942 158.451 51.0208C158.018 50.7441 157.681 50.3518 157.44 49.844C157.202 49.333 157.08 48.7421 157.074 48.0716V47.5589C157.074 46.8753 157.193 46.2714 157.43 45.7473C157.668 45.2233 158.003 44.8229 158.436 44.5462C158.872 44.2662 159.37 44.1263 159.93 44.1263C160.5 44.1263 161.001 44.2646 161.434 44.5413C161.87 44.8147 162.206 45.2135 162.44 45.7376C162.674 46.2584 162.792 46.8655 162.792 47.5589V48.0081ZM161.859 47.5491C161.859 46.706 161.69 46.0598 161.351 45.6106C161.013 45.1582 160.539 44.9319 159.93 44.9319C159.338 44.9319 158.871 45.1582 158.529 45.6106C158.19 46.0598 158.016 46.6848 158.007 47.4856V48.0081C158.007 48.8251 158.177 49.468 158.519 49.9368C158.864 50.4023 159.338 50.635 159.94 50.635C160.546 50.635 161.014 50.4153 161.346 49.9759C161.678 49.5332 161.849 48.9 161.859 48.0764V47.5491Z" fill="#95E71F"/>
</g>
</g>
<defs>
<filter id="filter0_d" x="46.5483" y="0" width="144.865" height="127.205" filterUnits="userSpaceOnUse" color-interpolation-filters="sRGB">
<feFlood flood-opacity="0" result="BackgroundImageFix"/>
<feColorMatrix in="SourceAlpha" type="matrix" values="0 0 0 0 0 0 0 0 0 0 0 0 0 0 0 0 0 0 127 0"/>
<feOffset/>
<feGaussianBlur stdDeviation="2.5"/>
<feColorMatrix type="matrix" values="0 0 0 0 1 0 0 0 0 1 0 0 0 0 1 0 0 0 0.75 0"/>
<feBlend mode="normal" in2="BackgroundImageFix" result="effect1_dropShadow"/>
<feBlend mode="normal" in="SourceGraphic" in2="effect1_dropShadow" result="shape"/>
</filter>
<filter id="filter1_d" x="54.1764" y="7.323" width="129.914" height="118.548" filterUnits="userSpaceOnUse" color-interpolation-filters="sRGB">
<feFlood flood-opacity="0" result="BackgroundImageFix"/>
<feColorMatrix in="SourceAlpha" type="matrix" values="0 0 0 0 0 0 0 0 0 0 0 0 0 0 0 0 0 0 127 0"/>
<feOffset/>
<feGaussianBlur stdDeviation="2.5"/>
<feColorMatrix type="matrix" values="0 0 0 0 1 0 0 0 0 1 0 0 0 0 1 0 0 0 0.75 0"/>
<feBlend mode="normal" in2="BackgroundImageFix" result="effect1_dropShadow"/>
<feBlend mode="normal" in="SourceGraphic" in2="effect1_dropShadow" result="shape"/>
</filter>
<filter id="filter2_d" x="41.0048" y="57.9225" width="154.427" height="37.5638" filterUnits="userSpaceOnUse" color-interpolation-filters="sRGB">
<feFlood flood-opacity="0" result="BackgroundImageFix"/>
<feColorMatrix in="SourceAlpha" type="matrix" values="0 0 0 0 0 0 0 0 0 0 0 0 0 0 0 0 0 0 127 0"/>
<feOffset/>
<feGaussianBlur stdDeviation="1"/>
<feColorMatrix type="matrix" values="0 0 0 0 1 0 0 0 0 1 0 0 0 0 1 0 0 0 0.75 0"/>
<feBlend mode="normal" in2="BackgroundImageFix" result="effect1_dropShadow"/>
<feBlend mode="normal" in="SourceGraphic" in2="effect1_dropShadow" result="shape"/>
</filter>
<filter id="filter3_d" x="0.847504" y="106.209" width="197.211" height="24.3618" filterUnits="userSpaceOnUse" color-interpolation-filters="sRGB">
<feFlood flood-opacity="0" result="BackgroundImageFix"/>
<feColorMatrix in="SourceAlpha" type="matrix" values="0 0 0 0 0 0 0 0 0 0 0 0 0 0 0 0 0 0 127 0"/>
<feOffset/>
<feGaussianBlur stdDeviation="2.5"/>
<feColorMatrix type="matrix" values="0 0 0 0 1 0 0 0 0 1 0 0 0 0 1 0 0 0 0.8 0"/>
<feBlend mode="normal" in2="BackgroundImageFix" result="effect1_dropShadow"/>
<feBlend mode="normal" in="SourceGraphic" in2="effect1_dropShadow" result="shape"/>
</filter>
<filter id="filter4_d" x="38.0728" y="119.635" width="179.036" height="24.3616" filterUnits="userSpaceOnUse" color-interpolation-filters="sRGB">
<feFlood flood-opacity="0" result="BackgroundImageFix"/>
<feColorMatrix in="SourceAlpha" type="matrix" values="0 0 0 0 0 0 0 0 0 0 0 0 0 0 0 0 0 0 127 0"/>
<feOffset/>
<feGaussianBlur stdDeviation="2.5"/>
<feColorMatrix type="matrix" values="0 0 0 0 1 0 0 0 0 1 0 0 0 0 1 0 0 0 0.8 0"/>
<feBlend mode="normal" in2="BackgroundImageFix" result="effect1_dropShadow"/>
<feBlend mode="normal" in="SourceGraphic" in2="effect1_dropShadow" result="shape"/>
</filter>
<filter id="filter5_d" x="72.2585" y="42.1263" width="92.5332" height="11.3047" filterUnits="userSpaceOnUse" color-interpolation-filters="sRGB">
<feFlood flood-opacity="0" result="BackgroundImageFix"/>
<feColorMatrix in="SourceAlpha" type="matrix" values="0 0 0 0 0 0 0 0 0 0 0 0 0 0 0 0 0 0 127 0"/>
<feOffset/>
<feGaussianBlur stdDeviation="1"/>
<feColorMatrix type="matrix" values="0 0 0 0 1 0 0 0 0 1 0 0 0 0 1 0 0 0 0.75 0"/>
<feBlend mode="normal" in2="BackgroundImageFix" result="effect1_dropShadow"/>
<feBlend mode="normal" in="SourceGraphic" in2="effect1_dropShadow" result="shape"/>
</filter>
<clipPath id="clip0">
<rect width="136.696" height="136.696" fill="white" transform="translate(49.7176 8.66141)"/>
</clipPath>
</defs>
</svg>
