<svg width="164" height="164" viewBox="0 0 164 164" fill="none" xmlns="http://www.w3.org/2000/svg">
<circle cx="82" cy="82" r="82" fill="black"/>
<path fill-rule="evenodd" clip-rule="evenodd" d="M104.056 111.214C108.563 106.188 111.304 99.5456 111.304 92.263C111.304 76.5789 98.59 63.8645 82.906 63.8645C67.222 63.8645 54.5075 76.5789 54.5075 92.263C54.5075 100.898 58.3619 108.634 64.4442 113.842C63.0131 115.102 61.9816 115.865 61.047 116.177C54.5699 110.253 50.5075 101.732 50.5075 92.263C50.5075 74.3698 65.0128 59.8645 82.906 59.8645C100.799 59.8645 115.304 74.3698 115.304 92.263C115.304 99.9379 112.636 106.99 108.176 112.541C106.37 110.908 105.104 110.765 104.056 111.214Z" fill="#95E71F"/>
<path fill-rule="evenodd" clip-rule="evenodd" d="M93.6021 114.613C101.988 110.634 107.786 102.089 107.786 92.1896C107.786 78.4892 96.6797 67.3828 82.9793 67.3828C69.2789 67.3828 58.1725 78.4892 58.1725 92.1896C58.1725 100.057 61.8348 107.069 67.5476 111.614C66.7272 111.989 65.7985 112.636 64.6946 113.62C64.5287 113.768 64.368 113.91 64.2122 114.045C58.0655 108.762 54.1725 100.93 54.1725 92.1896C54.1725 76.28 67.0697 63.3828 82.9793 63.3828C98.8888 63.3828 111.786 76.28 111.786 92.1896C111.786 99.3849 109.148 105.964 104.786 111.013C103.761 111.14 102.961 111.885 102.162 112.629C101.792 112.974 101.422 113.318 101.031 113.601C100.945 113.663 100.859 113.725 100.773 113.788C98.9521 115.111 97.0364 116.504 93.6021 114.613Z" fill="#F053C2"/>
<line x1="80.9662" y1="55.3198" x2="80.9662" y2="25.9999" stroke="#F053C2" stroke-width="3"/>
<line x1="95.5912" y1="57.8307" x2="105.083" y2="34.6287" stroke="#F053C2" stroke-width="3"/>
<line x1="114.438" y1="73.153" x2="129.4" y2="62.5727" stroke="#F053C2" stroke-width="3"/>
<line x1="119.418" y1="81.7371" x2="147.501" y2="73.3121" stroke="#F053C2" stroke-width="3"/>
<line x1="121.462" y1="93.1084" x2="139.787" y2="93.1084" stroke="#F053C2" stroke-width="3"/>
<line x1="118.269" y1="104.139" x2="144.621" y2="110.006" stroke="#F053C2" stroke-width="3"/>
<line x1="106.583" y1="64.4136" x2="126.548" y2="42.9416" stroke="#F053C2" stroke-width="3"/>
<line x1="95.5912" y1="57.8307" x2="102.53" y2="40.8702" stroke="#F053C2" stroke-width="3"/>
<line y1="-1.5" x2="29.3199" y2="-1.5" transform="matrix(-4.37114e-08 -1 -1 4.37114e-08 82.4662 55.3198)" stroke="#F053C2" stroke-width="3"/>
<line y1="-1.5" x2="25.0685" y2="-1.5" transform="matrix(-0.378633 -0.925547 -0.925547 0.378633 67.9529 58.3987)" stroke="#F053C2" stroke-width="3"/>
<line y1="-1.5" x2="18.3249" y2="-1.5" transform="matrix(-0.816483 -0.57737 -0.57737 0.816483 49.6279 74.3777)" stroke="#F053C2" stroke-width="3"/>
<line y1="-1.5" x2="29.3199" y2="-1.5" transform="matrix(-0.957826 -0.287348 -0.287348 0.957826 45.0833 83.1738)" stroke="#F053C2" stroke-width="3"/>
<line y1="-1.5" x2="18.3249" y2="-1.5" transform="matrix(-1 0 0 1 43.4707 94.6084)" stroke="#F053C2" stroke-width="3"/>
<line y1="-1.5" x2="29.3199" y2="-1.5" transform="matrix(-0.980225 0.197886 0.197886 0.980225 46.9891 105.604)" stroke="#F053C2" stroke-width="3"/>
<line y1="-1.5" x2="29.3199" y2="-1.5" transform="matrix(-0.680944 -0.732336 -0.732336 0.680944 57.2511 65.4351)" stroke="#F053C2" stroke-width="3"/>
<line y1="-1.5" x2="18.3249" y2="-1.5" transform="matrix(-0.378633 -0.925547 -0.925547 0.378633 67.9529 58.3987)" stroke="#F053C2" stroke-width="3"/>
</svg>
