<svg width="164" height="164" viewBox="0 0 164 164" fill="none" xmlns="http://www.w3.org/2000/svg">
<circle cx="82" cy="82" r="82" fill="black"/>
<path d="M114.02 115.366C113.066 117.24 112.197 119.048 111.255 120.817C109.869 123.418 107.546 124.344 104.725 124.446C102.402 124.53 100.084 124.755 97.7626 124.909C95.4444 125.063 93.124 125.187 90.8073 125.36C88.6967 125.518 86.5912 125.745 84.4805 125.903C82.1197 126.08 79.7538 126.19 77.3935 126.373C75.2363 126.541 73.0859 126.795 70.9285 126.96C68.6135 127.136 66.2936 127.249 63.9763 127.396C62.1814 127.51 60.363 127.494 58.6004 127.798C57.1948 128.041 56.7274 127.063 56.2679 126.285C53.9808 122.413 51.8424 118.453 49.581 114.566C46.2695 108.873 42.8682 103.232 39.5617 97.5359C37.0026 93.1276 34.5877 88.635 31.9887 84.251C31.0612 82.6866 31.1683 81.1643 31.8582 79.7593C33.9287 75.5429 36.1945 71.4228 38.3344 67.2397C40.769 62.4804 43.1317 57.6842 45.5612 52.9222C47.0473 50.0091 48.6104 47.1355 50.1195 44.234C51.0658 42.4148 51.9973 40.5873 52.8961 38.7443C53.7799 36.932 55.6649 36.7508 57.1998 36.49C59.7624 36.0547 62.418 36.1678 65.0342 36.0467C68.2184 35.8993 71.4038 35.773 74.5861 35.5914C77.0857 35.4487 79.58 35.2124 82.0792 35.0602C85.3967 34.8583 88.7175 34.7109 92.0353 34.5144C93.9215 34.4027 95.8047 34.2408 97.6891 34.1C100.845 33.8644 103.999 33.5304 107.158 33.469C107.834 33.4559 108.771 34.2867 109.176 34.9719C113.233 41.8194 117.22 48.7088 121.194 55.6053C123.824 60.1699 126.391 64.7711 129.006 69.3442C130.28 71.5719 131.675 73.7335 132.876 75.9988C133.796 77.7331 132.762 79.2515 131.991 80.7509C129.99 84.6436 128.003 88.5438 125.984 92.4277C124.434 95.4112 122.822 98.363 121.278 101.35C119.722 104.359 118.231 107.4 116.684 110.414C115.843 112.052 114.945 113.661 114.02 115.366ZM127.017 83.849C127.643 82.6155 128.141 81.2922 128.926 80.1694C130.124 78.4548 129.986 77.0379 128.902 75.2491C126.193 70.7797 123.761 66.1435 121.156 61.6097C117.702 55.5977 114.195 49.6158 110.697 43.6292C109.77 42.0429 108.788 40.4888 107.837 38.9164C107.536 38.4195 107.255 37.9113 106.964 37.4083C106.622 37.8723 106.278 38.3345 105.939 38.8014C105.831 38.9506 105.731 39.1074 105.643 39.2691C104.196 41.9171 102.733 44.5566 101.311 47.2179C99.3458 50.8955 97.4248 54.5968 95.4595 58.2744C94.0373 60.9357 92.5534 63.564 91.1339 66.2266C89.2156 69.825 87.4383 73.5032 85.4021 77.0327C83.6615 80.0495 84.3879 80 85.6746 82.2433C85.8656 82.5764 86.0874 82.8915 86.2867 83.2201C87.993 86.0343 89.672 88.8656 91.4099 91.6603C93.0777 94.3422 94.8174 96.9795 96.5052 99.6492C98.5816 102.934 100.658 106.219 102.693 109.529C103.679 111.134 104.541 112.815 105.517 114.426C106.335 115.775 107.206 117.095 108.131 118.373C108.288 118.59 109.094 118.678 109.155 118.571C109.727 117.572 110.185 116.51 110.707 115.481C112.627 111.7 114.541 107.917 116.491 104.151C118.037 101.164 119.654 98.2137 121.199 95.226C123.125 91.5001 125.01 87.7526 127.017 83.849ZM97.8534 47.5453C98.514 46.275 99.1572 44.9953 99.8391 43.7365C100.934 41.7153 102.052 39.7064 103.168 37.6962C103.322 37.4186 103.516 37.1631 103.691 36.8974C103.319 36.8289 102.941 36.6776 102.576 36.7055C100.465 36.8666 98.3596 37.119 96.2465 37.2474C93.0652 37.4408 89.8774 37.5261 86.6959 37.7164C84.1053 37.8714 81.522 38.1467 78.9317 38.3077C75.6601 38.511 72.3847 38.6533 69.1109 38.8205C67.0597 38.9252 65.0063 38.9965 62.9579 39.1385C60.7594 39.2909 58.5622 39.4792 56.3728 39.726C55.9994 39.7681 55.5567 40.1086 55.3392 40.4386C54.8217 41.2239 54.3986 42.0748 53.9749 42.9181C52.2369 46.3778 50.5336 49.8551 48.7773 53.3053C47.3355 56.1377 45.818 58.9315 44.3676 61.7596C42.4961 65.4089 40.6674 69.0802 38.8018 72.7326C37.7227 74.8452 36.5751 76.9234 35.5311 79.0528C35.2714 79.5825 34.8886 80.4026 36.21 80.2976C37.4563 80.1987 38.7172 80.3008 39.971 80.2778C43.7923 80.2078 47.6129 80.0966 51.4344 80.0456C55.6787 79.989 59.9238 79.9878 64.1684 79.9501C68.5895 79.9107 73.0112 79.8902 77.431 79.7923C79.1768 79.7536 80.9132 79.878 81.8636 77.6781C83.1387 74.7265 84.7855 71.9335 86.3085 69.0916C87.7768 66.3517 89.3152 63.6494 90.7789 60.9071C93.1212 56.5185 95.4273 52.1105 97.8534 47.5453ZM64.7441 124.384C65.0875 124.402 65.4349 124.461 65.7738 124.43C68.0204 124.222 70.2622 123.956 72.5113 123.783C75.44 123.558 78.3762 123.431 81.3051 123.208C84.1217 122.993 86.9308 122.678 89.7474 122.463C92.6763 122.239 95.6118 122.104 98.5415 121.89C100.786 121.725 103.026 121.502 105.266 121.291C105.516 121.267 105.927 121.199 105.966 121.065C106.034 120.828 105.941 120.484 105.8 120.257C103.081 115.862 100.338 111.482 97.6156 107.09C95.4547 103.604 93.3286 100.096 91.1594 96.6153C89.4888 93.9344 87.7694 91.2839 86.0829 88.6128C85.0341 86.9515 84.0557 85.2426 82.9381 83.6297C82.6112 83.1581 81.9177 82.6612 81.3873 82.6558C78.1754 82.6231 74.9623 82.746 71.7493 82.7849C68.2836 82.8268 64.8172 82.8144 61.3516 82.8613C58.0934 82.9054 54.836 83.0085 51.5779 83.0622C48.0654 83.1201 44.5523 83.1388 41.0398 83.1986C39.4712 83.2253 37.9011 83.2767 36.3364 83.3846C35.6042 83.4351 35.0928 83.7474 35.608 84.6259C36.8207 86.6937 38.0064 88.7774 39.2193 90.8452C43.3327 97.8572 47.4775 104.851 51.5611 111.88C53.8216 115.771 55.9509 119.738 58.2274 123.62C58.5616 124.189 59.3741 124.8 59.9855 124.821C61.4753 124.874 62.977 124.592 64.7441 124.384Z" fill="#95E71F"/>
<path d="M104.955 74.4034C105.659 73.843 106.253 73.2383 106.972 72.9097C110.149 71.4593 114.026 74.9697 113.161 78.0351C112.877 79.0434 111.989 80.0449 111.112 80.6861C109.621 81.7762 106.581 81.4925 105.527 80.4225C103.839 78.7083 103.621 76.6312 104.955 74.4034Z" fill="#95E71F"/>
<path d="M86.2725 43.6913C87.4188 45.1335 87.6023 47.0717 86.9594 48.3125C85.624 50.8898 83.9892 51.0569 82.596 50.8434C80.6529 50.5457 79.0015 49.0651 78.8251 47.3606C78.6346 45.5205 79.2514 43.8656 80.9037 42.8869C82.2663 42.0798 83.7475 41.9001 85.145 42.9712C85.4718 43.2217 85.8404 43.4178 86.2725 43.6913Z" fill="#95E71F"/>
<path d="M65.4231 54.48C67.5745 53.6898 69.3739 54.0578 70.5746 56.0237C71.4144 57.3988 71.6612 58.9034 70.9189 60.4421C70.1543 62.0267 68.7613 62.8236 67.1338 62.7662C65.603 62.7122 64.4341 61.8324 63.784 60.2619C62.8318 57.9615 63.2421 56.2142 65.4231 54.48Z" fill="#95E71F"/>
<path d="M53.5736 66.7934C55.2764 69.3146 55.0342 71.7748 52.8526 73.1829C51.4712 74.0745 49.8818 74.3002 48.3317 73.4337C47.4147 72.9211 46.5141 70.6371 46.7027 69.4106C46.9712 67.665 48.1674 66.3252 49.6239 65.8869C51.1123 65.4391 52.3435 65.8167 53.5736 66.7934Z" fill="#95E71F"/>
<path d="M85.2281 108.498C86.4598 108.339 87.6748 108.047 88.8108 108.234C90.942 108.585 92.0521 110.204 92.0052 112.461C91.9838 113.491 92.1998 114.631 91.8342 115.528C90.9592 117.674 89.3406 118.202 86.8028 117.49C83.7676 116.638 81.9879 113.904 82.9926 111.257C83.3801 110.236 84.4285 109.465 85.2281 108.498Z" fill="#95E71F"/>
<path d="M53.9211 98.6467C51.5425 99.5569 47.4691 97.2589 47.6393 94.0188C47.694 92.9776 48.4847 91.716 49.3266 91.0337C50.7117 89.911 53.5747 90.4578 54.9518 91.7674C56.2089 92.963 56.5951 95.3701 55.6374 96.9678C55.2562 97.6038 54.5381 98.0379 53.9211 98.6467Z" fill="#95E71F"/>
<path d="M62.3116 121.454C60.0352 120.488 59.2462 117.701 59.8514 115.94C60.3931 114.364 61.9887 113.212 63.7223 113.309C65.3134 113.399 66.6739 114.523 66.9837 116.094C67.1546 116.961 67.4225 117.894 67.2632 118.724C66.8273 120.995 65.0385 122.225 62.3116 121.454Z" fill="#95E71F"/>
<path d="M65.8215 101.081C66.9393 99.4073 67.955 99.0845 69.961 99.9534C72.2208 100.932 73.87 102.86 73.1945 105.189C72.6614 107.026 69.823 108.254 68.164 107.311C65.8862 106.016 64.7119 105.387 65.8215 101.081Z" fill="#95E71F"/>
<path d="M79.8199 92.3285C79.4695 93.1641 79.2318 94.0165 78.6804 94.536C77.2003 95.9302 75.9718 96.0855 74.3279 94.7454C72.2936 93.087 71.5235 91.5438 73.18 89.1052C74.0115 87.881 75.329 87.7424 76.6252 87.8997C78.0942 88.0779 79.3733 88.6672 79.6523 90.3618C79.7514 90.9635 79.7468 91.5824 79.8199 92.3285Z" fill="#95E71F"/>
</svg>
