<svg width="164" height="164" viewBox="0 0 164 164" fill="none" xmlns="http://www.w3.org/2000/svg">
<mask id="mask0" mask-type="alpha" maskUnits="userSpaceOnUse" x="0" y="0" width="164" height="164">
<circle cx="82" cy="82" r="82" fill="black"/>
</mask>
<g mask="url(#mask0)">
<circle cx="82" cy="82" r="82" fill="black"/>
<g clip-path="url(#clip0)">
<path d="M86.8781 48.3913C88.1738 48.6648 88.8964 50.3996 88.178 51.512C87.4595 52.6245 85.581 52.6794 84.7988 51.6108C84.3119 50.9456 84.2836 49.9782 84.7308 49.2857C85.1781 48.5932 86.0715 48.2211 86.8781 48.3913V48.3913Z" fill="#F053C2"/>
<path d="M173.207 174.166C170.389 172.873 167.661 171.381 165.052 169.704C162.965 168.363 160.757 166.571 160.601 164.095C160.57 163.604 160.836 162.939 161.316 163.051C168.894 164.823 176.912 164.677 184.42 162.631C181.342 161.497 178.497 159.735 176.11 157.484C173.789 155.295 171.903 152.658 169.438 150.632C163.682 145.901 155.449 145.167 148.2 146.893C140.952 148.618 134.429 152.491 128.003 156.262C121.576 160.032 114.977 163.809 107.679 165.309C105.333 165.791 102.839 166.02 100.587 165.203C100.23 165.073 99.8497 164.887 99.7042 164.535C99.5586 164.184 99.8435 163.675 100.213 163.766C102.985 164.445 105.913 163.968 108.661 163.198C115.609 161.253 121.895 157.511 128.108 153.843C134.321 150.174 140.655 146.496 147.643 144.7C154.631 142.903 162.473 143.197 168.54 147.103C173.633 150.382 177.032 155.863 182.207 159.011C184.427 160.36 186.916 161.242 189.056 162.715C180.466 166.327 170.702 167.079 161.66 164.824C166.234 168.764 171.42 171.992 176.975 174.357C175.95 175.204 174.416 174.721 173.207 174.166V174.166Z" fill="#F053C2"/>
<path d="M182.771 126.384C189.363 129.576 194.843 134.705 199.541 140.324C213.842 157.426 221.595 179.869 220.902 202.151C217.168 198.364 213.433 194.578 209.699 190.791C211.556 195.752 211.957 201.249 210.838 206.427C191.739 192.514 163.818 192.152 144.364 205.563C145.084 210.892 143.123 216.515 139.246 220.241C141.713 228.785 143.45 237.538 144.434 246.376C144.692 248.687 144.819 251.277 143.332 253.064C142.072 254.577 140.001 255.082 138.078 255.5C131.624 256.904 125.17 258.307 118.716 259.711C120.3 272.623 121.884 285.535 123.468 298.447C123.852 301.575 124.198 304.929 122.736 307.72C121.273 310.512 117.228 312.143 114.87 310.052C117.365 308.884 119.859 307.717 122.353 306.549C119.439 291.335 117.387 275.956 116.209 260.51C110.777 261.035 105.196 261.602 100.341 264.093C95.4856 266.584 91.4582 271.481 91.6553 276.935C90.4877 271.21 94.2543 265.391 99.2296 262.327C104.205 259.263 110.168 258.353 115.949 257.507C115.04 245.787 114.552 234.035 114.485 222.28C110.043 220.512 107.147 215.491 107.843 210.76C88.8619 206.884 71.819 194.382 62.4213 177.442C53.0236 160.501 51.4388 139.424 58.1974 121.269C64.8585 103.376 79.2717 87.4487 78.4967 68.3715C78.3601 65.008 76.9341 60.8727 73.5807 60.5801C72.3126 60.4694 71.0755 60.9824 69.9503 61.5777C64.5652 64.4266 60.3979 69.4947 58.6433 75.3289C59.2747 69.5763 62.7578 64.207 67.7533 61.2853C70.7412 59.5379 74.8012 58.7558 77.5033 60.919C79.7004 62.6779 80.259 65.7684 80.3516 68.5812C81.0456 89.6598 64.8558 107.22 58.6185 127.367C53.2207 144.802 55.7314 164.522 65.3258 180.048C74.9202 195.575 91.434 206.642 109.442 209.613C109.22 212.801 109.139 216.403 111.353 218.707C113.567 221.011 118.718 219.792 118.306 216.624C117.57 210.973 123.302 205.472 128.918 206.439C129.869 211.581 132.46 216.408 136.22 220.042C131.446 218.122 127.88 213.48 127.255 208.373C124.302 207.511 121.864 210.807 120.882 213.721C119.899 216.636 118.858 220.184 115.894 221.008C116.902 232.906 117.909 244.805 118.917 256.703C125.285 255.15 131.654 253.597 138.022 252.044C139.259 251.743 140.614 251.361 141.311 250.295C141.995 249.247 141.82 247.879 141.619 246.643C140.139 237.546 138.66 228.449 137.18 219.352C143.201 217.475 140.175 206.93 145.228 203.156C164.077 189.08 192.593 189.881 210.622 204.993C209.839 200.03 209.056 195.067 208.273 190.103C212.885 192.018 216.83 195.499 219.303 199.837C217.948 180.947 211.423 162.454 200.625 146.896C195.309 139.237 188.728 132.096 180.226 128.268C167.115 122.363 151.547 125.314 138.581 131.531C125.614 137.748 114.338 146.955 101.952 154.261C95.7283 157.932 88.3693 161.21 81.48 159.03C75.4241 157.113 71.2833 151.274 69.5906 145.152C66.1738 132.794 71.1486 119.617 77.959 108.754C84.7694 97.8898 93.505 88.1723 98.855 76.5199C101.689 70.3463 103.534 63.5379 102.834 56.781C102.134 50.024 98.5838 43.3429 92.6617 40.015C86.7395 36.6871 78.4468 37.4747 74.043 42.6471C69.8644 47.5548 64.6818 51.5767 60.8359 56.7494C56.9901 61.922 54.598 68.879 57.0501 74.84C54.3509 69.7754 54.3353 63.3739 57.0096 58.2961C60.4149 51.8304 67.4442 48.0591 71.5765 42.0319C77.5163 33.3686 92.0064 34.5025 98.8571 42.4651C105.708 50.4277 105.986 62.3752 102.674 72.3433C98.4998 84.9039 89.5858 95.2051 82.2085 106.194C74.8312 117.184 68.6808 130.268 71.1811 143.265C71.9862 147.45 73.8086 151.626 77.1669 154.249C81.1365 157.351 86.6917 157.795 91.5741 156.556C96.4565 155.316 100.815 152.594 105.011 149.806C116.862 141.931 128.275 133.138 141.387 127.614C154.5 122.089 169.965 120.182 182.771 126.384Z" fill="#F053C2"/>
</g>
</g>
<defs>
<clipPath id="clip0">
<rect width="275" height="275" fill="white" transform="translate(0 36)"/>
</clipPath>
</defs>
</svg>
